<svg width="60" height="50" viewBox="0 0 60 50" fill="none" xmlns="http://www.w3.org/2000/svg">
<path d="M30 0C13.434 0 0 17.271 0 23.232C0 29.193 13.434 46.464 30 46.464C34.615 46.464 38.985 45.121 42.892 43.059L53.58 50V34.686C57.597 30.286 60 25.751 60 23.232C60 17.271 46.568 0 30 0ZM30 38.384C21.717 38.384 15 31.6 15 23.233C15 14.864 21.717 8.082 30 8.082C38.285 8.082 45 14.864 45 23.233C45 31.6 38.285 38.384 30 38.384Z" fill="#487473"/>
<path d="M30 14.142C29.025 14.142 28.089 14.303 27.21 14.592C27.7697 15.064 28.2198 15.6524 28.5289 16.3161C28.838 16.9797 28.9988 17.7028 29 18.435C29 21.223 26.762 23.485 24 23.485C22.9297 23.4818 21.8896 23.1301 21.037 22.483C21.0151 22.7321 21.0027 22.9819 21 23.232C21 28.252 25.029 32.323 30 32.323C34.971 32.323 39 28.252 39 23.232C39 18.211 34.971 14.142 30 14.142Z" fill="#487473"/>
</svg>
