<svg width="175" height="202" viewBox="0 0 175 202" fill="none" xmlns="http://www.w3.org/2000/svg">
<path d="M132.838 102.595V120.73H162.514" stroke="black" stroke-opacity="0.3" stroke-width="1.64865" stroke-linecap="round" stroke-dasharray="3.3 3.3"/>
<path d="M108.108 102.595V135.568H163.338" stroke="black" stroke-opacity="0.3" stroke-width="1.64865" stroke-linecap="round" stroke-dasharray="3.3 3.3"/>
<path d="M83.3784 102.595V150.405H164.162" stroke="black" stroke-opacity="0.3" stroke-width="1.64865" stroke-linecap="round" stroke-dasharray="3.3 3.3"/>
<path d="M58.6486 102.595V165.243H164.162" stroke="black" stroke-opacity="0.3" stroke-width="1.64865" stroke-linecap="round" stroke-dasharray="3.3 3.3"/>
<path d="M33.9189 102.595V180.081H164.162" stroke="black" stroke-opacity="0.3" stroke-width="1.64865" stroke-linecap="round" stroke-dasharray="3.3 3.3"/>
<path d="M9.18921 102.595V194.919H164.162" stroke="black" stroke-opacity="0.3" stroke-width="1.64865" stroke-linecap="round" stroke-dasharray="3.3 3.3"/>
<rect x="0.945923" y="15.2162" width="14.8378" height="87.3784" fill="white" fill-opacity="0.25"/>
<rect x="25.6757" y="15.2162" width="14.8378" height="87.3784" fill="white" fill-opacity="0.25"/>
<rect x="50.4054" y="15.2162" width="14.8378" height="87.3784" fill="white" fill-opacity="0.25"/>
<rect x="75.1351" y="15.2162" width="14.8378" height="87.3784" fill="white" fill-opacity="0.25"/>
<rect x="99.8649" y="15.2162" width="14.8378" height="87.3784" fill="white" fill-opacity="0.25"/>
<rect x="124.595" y="15.2162" width="14.8378" height="87.3784" fill="white" fill-opacity="0.25"/>
<rect x="0.945923" y="61.3784" width="14.8378" height="41.2162" fill="black"/>
<rect x="25.6757" y="49.8378" width="14.8378" height="52.7568" fill="black"/>
<rect x="50.4054" y="31.7027" width="14.8378" height="70.8919" fill="black"/>
<rect x="75.1351" y="41.5946" width="14.8378" height="61" fill="black"/>
<rect x="99.8649" y="15.2162" width="14.8378" height="87.3784" fill="black"/>
<rect x="124.595" y="36.6487" width="14.8378" height="65.9459" fill="black"/>
<path d="M154.798 135.059C155.084 134.85 155.342 134.597 155.573 134.301C155.804 133.993 155.996 133.839 156.15 133.839C156.315 133.839 156.397 134.081 156.397 134.564C156.397 135.037 156.26 135.488 155.985 135.916C155.721 136.334 155.369 136.686 154.93 136.971C154.029 137.565 152.962 137.862 151.731 137.862C150.237 137.862 149.077 137.488 148.253 136.741C147.428 135.993 147.016 134.955 147.016 133.625C147.016 131.987 147.412 130.432 148.203 128.959C148.467 128.475 148.764 128.03 149.094 127.624C148.841 127.327 148.637 127.019 148.484 126.7C148.341 126.371 148.269 126.123 148.269 125.958C148.269 125.662 148.379 125.513 148.599 125.513C148.753 125.524 148.929 125.629 149.127 125.826L149.638 126.321C149.77 126.453 149.907 126.563 150.05 126.651C151.138 125.728 152.308 125.266 153.561 125.266C154.825 125.266 155.644 125.618 156.018 126.321C156.15 126.585 156.216 126.909 156.216 127.294C156.216 127.876 155.963 128.365 155.457 128.761C154.952 129.157 154.27 129.355 153.413 129.355C152.567 129.355 151.687 129.179 150.775 128.827C149.995 130.157 149.605 131.547 149.605 132.998C149.605 135.009 150.407 136.015 152.012 136.015C153.001 136.015 153.93 135.696 154.798 135.059ZM151.567 127.805C152.127 127.992 152.737 128.085 153.397 128.085C154.056 128.085 154.386 127.904 154.386 127.541C154.386 127.112 154.116 126.898 153.578 126.898C152.842 126.898 152.171 127.2 151.567 127.805ZM157.862 134.251C157.862 135.207 158.268 135.685 159.082 135.685C159.972 135.685 160.571 135.378 160.879 134.762C160.989 134.542 161.043 134.262 161.043 133.921C161.043 133.57 160.961 133.245 160.796 132.949C160.521 132.476 160.049 131.954 159.378 131.382C158.268 130.437 157.713 129.459 157.713 128.448C157.713 127.426 158.032 126.64 158.669 126.09C159.307 125.541 160.038 125.266 160.862 125.266C161.686 125.266 162.34 125.475 162.824 125.892C163.308 126.31 163.549 126.937 163.549 127.772C163.549 128.321 163.363 128.8 162.989 129.206C162.626 129.613 162.143 129.866 161.538 129.965C161.813 130.195 162.088 130.432 162.362 130.674C162.626 130.915 162.868 131.179 163.088 131.465C163.571 132.113 163.813 132.888 163.813 133.789C163.813 134.416 163.665 134.982 163.368 135.488C163.082 135.993 162.703 136.422 162.23 136.774C161.769 137.114 161.247 137.378 160.664 137.565C160.082 137.752 159.538 137.845 159.032 137.845C157.955 137.845 157.12 137.598 156.526 137.103C155.834 136.543 155.488 135.735 155.488 134.68C155.488 133.987 155.713 133.317 156.163 132.668C156.614 132.02 157.092 131.696 157.598 131.696C157.993 131.696 158.191 131.817 158.191 132.058C158.191 132.41 158.136 132.762 158.026 133.114C157.917 133.454 157.862 133.833 157.862 134.251ZM161.06 129.569C161.686 128.942 162 128.288 162 127.607C162 127.398 161.89 127.222 161.67 127.079C161.428 126.948 161.175 126.882 160.912 126.882C160.318 126.882 159.889 127.074 159.626 127.459C159.758 127.931 159.95 128.332 160.203 128.662C160.466 128.992 160.752 129.294 161.06 129.569ZM167.264 134.251C167.264 135.207 167.671 135.685 168.484 135.685C169.374 135.685 169.973 135.378 170.281 134.762C170.391 134.542 170.446 134.262 170.446 133.921C170.446 133.57 170.363 133.245 170.199 132.949C169.924 132.476 169.451 131.954 168.781 131.382C167.671 130.437 167.116 129.459 167.116 128.448C167.116 127.426 167.434 126.64 168.072 126.09C168.709 125.541 169.44 125.266 170.265 125.266C171.089 125.266 171.743 125.475 172.226 125.892C172.71 126.31 172.952 126.937 172.952 127.772C172.952 128.321 172.765 128.8 172.391 129.206C172.029 129.613 171.545 129.866 170.94 129.965C171.215 130.195 171.49 130.432 171.765 130.674C172.029 130.915 172.27 131.179 172.49 131.465C172.974 132.113 173.216 132.888 173.216 133.789C173.216 134.416 173.067 134.982 172.77 135.488C172.485 135.993 172.106 136.422 171.633 136.774C171.171 137.114 170.649 137.378 170.067 137.565C169.484 137.752 168.94 137.845 168.435 137.845C167.357 137.845 166.522 137.598 165.929 137.103C165.236 136.543 164.89 135.735 164.89 134.68C164.89 133.987 165.115 133.317 165.566 132.668C166.017 132.02 166.495 131.696 167 131.696C167.396 131.696 167.594 131.817 167.594 132.058C167.594 132.41 167.539 132.762 167.429 133.114C167.319 133.454 167.264 133.833 167.264 134.251ZM170.462 129.569C171.089 128.942 171.402 128.288 171.402 127.607C171.402 127.398 171.292 127.222 171.072 127.079C170.831 126.948 170.578 126.882 170.314 126.882C169.72 126.882 169.292 127.074 169.028 127.459C169.16 127.931 169.352 128.332 169.605 128.662C169.869 128.992 170.155 129.294 170.462 129.569Z" fill="black"/>
<path d="M115.131 130.855C116.296 130.855 117.374 130.866 118.363 130.888C118.879 128.8 119.385 127.349 119.879 126.535C120.209 126.063 120.539 125.722 120.869 125.513C121.001 125.425 121.132 125.381 121.264 125.381C121.407 125.381 121.479 125.596 121.479 126.024C121.479 126.453 121.44 126.904 121.363 127.376C121.297 127.849 121.209 128.393 121.099 129.008C120.737 131.031 120.462 132.646 120.275 133.855C120.099 135.064 120.011 136.229 120.011 137.351C120.011 137.658 119.792 137.812 119.352 137.812C118.659 137.812 118.187 137.68 117.934 137.416C117.681 137.142 117.555 136.653 117.555 135.949C117.555 135.235 117.698 134.114 117.984 132.586C116.775 132.531 116.011 132.504 115.692 132.504H115.016C114.895 132.504 114.774 132.509 114.653 132.52C114.159 134.41 113.911 135.905 113.911 137.004C113.911 137.653 113.279 137.977 112.015 137.977C111.741 137.977 111.576 137.84 111.521 137.565C111.477 137.279 111.455 136.823 111.455 136.196C111.455 135.559 111.653 134.421 112.048 132.784C111.378 132.883 110.889 132.932 110.581 132.932C110.438 132.932 110.367 132.877 110.367 132.767C110.367 132.526 110.543 132.251 110.894 131.943C111.257 131.635 111.785 131.388 112.477 131.201C112.884 129.794 113.29 128.64 113.697 127.739C112.51 127.761 111.636 127.992 111.076 128.431C110.9 128.563 110.757 128.684 110.647 128.794C110.537 128.893 110.438 128.942 110.35 128.942C110.273 128.942 110.196 128.876 110.119 128.745C110.043 128.613 110.004 128.437 110.004 128.217C110.004 127.415 110.68 126.805 112.032 126.387C113.109 126.057 114.362 125.887 115.791 125.876H115.824C115.901 125.876 116.005 125.92 116.137 126.008C116.28 126.096 116.351 126.239 116.351 126.436C116.351 126.634 116.313 126.86 116.236 127.112C116.17 127.354 116.077 127.536 115.956 127.656C115.89 128.173 115.615 129.239 115.131 130.855ZM122.778 136.839C122.657 136.543 122.569 136.202 122.514 135.817C122.459 135.422 122.432 134.872 122.432 134.169C122.432 133.465 122.564 132.515 122.828 131.316H122.086C121.954 131.316 121.888 131.262 121.888 131.152C121.888 130.888 121.91 130.674 121.954 130.509C122.009 130.333 122.13 130.135 122.317 129.915H122.712C122.866 129.915 123.031 129.91 123.207 129.899C123.734 128.206 124.273 127.36 124.822 127.36C125.262 127.371 125.57 127.651 125.746 128.201C125.79 128.354 125.839 128.519 125.894 128.695L125.218 129.882C125.988 129.904 126.471 129.915 126.669 129.915C126.878 129.915 126.988 129.937 126.999 129.981C127.021 130.014 127.032 130.069 127.032 130.146C127.032 130.344 126.982 130.591 126.883 130.888C126.795 131.185 126.691 131.327 126.57 131.316L124.921 131.234C124.691 132.575 124.575 133.685 124.575 134.564C124.575 135.444 124.702 135.883 124.954 135.883C125.163 135.883 125.542 135.713 126.092 135.372C126.641 135.02 127.037 134.685 127.279 134.366C127.521 134.048 127.719 133.888 127.872 133.888C128.026 133.888 128.103 134.075 128.103 134.449C128.103 134.823 127.971 135.207 127.708 135.603C127.444 135.988 127.109 136.345 126.702 136.675C126.306 136.993 125.861 137.257 125.367 137.466C124.883 137.675 124.46 137.779 124.097 137.779C123.734 137.779 123.454 137.697 123.256 137.532C123.069 137.356 122.91 137.125 122.778 136.839ZM136.32 132.718C136.32 132.355 136.111 132.174 135.693 132.174C135.408 132.174 135.089 132.454 134.737 133.015C134.385 133.564 134.133 134.158 133.979 134.795V134.828C133.979 135.202 134.034 135.586 134.144 135.982C134.265 136.378 134.325 136.653 134.325 136.806C134.325 137.18 133.858 137.548 132.924 137.911C132.781 137.966 132.654 137.994 132.544 137.994C132.27 137.994 132.077 137.851 131.967 137.565C131.869 137.279 131.819 136.894 131.819 136.411C131.819 135.916 131.83 135.455 131.852 135.026C131.885 134.586 131.912 134.185 131.934 133.822C131.967 133.449 131.995 133.125 132.017 132.85C132.05 132.564 132.066 132.333 132.066 132.157C132.066 131.784 131.896 131.597 131.555 131.597C131.215 131.597 130.819 131.998 130.368 132.8C129.918 133.592 129.692 134.224 129.692 134.696C129.692 135.158 129.747 135.586 129.857 135.982C129.978 136.378 130.039 136.653 130.039 136.806C130.039 137.18 129.571 137.548 128.637 137.911C128.494 137.966 128.368 137.994 128.258 137.994C127.983 137.994 127.791 137.851 127.681 137.565C127.582 137.279 127.533 136.839 127.533 136.246C127.533 134.685 127.593 133.559 127.714 132.866C127.879 131.844 128.252 130.877 128.835 129.965C129.033 129.657 129.247 129.503 129.478 129.503C129.841 129.503 130.176 129.8 130.484 130.393C130.572 130.547 130.638 130.69 130.681 130.822C131.209 130.162 131.83 129.833 132.544 129.833C133.017 129.833 133.44 129.992 133.814 130.311C134.188 130.619 134.374 131.009 134.374 131.481V131.663C135.045 130.827 135.864 130.41 136.831 130.41C137.424 130.41 137.875 130.564 138.183 130.871C138.491 131.179 138.644 131.558 138.644 132.009C138.644 132.46 138.611 132.866 138.546 133.229C138.48 133.592 138.403 133.932 138.315 134.251C138.238 134.57 138.166 134.856 138.1 135.108C138.034 135.35 138.001 135.543 138.001 135.685C138.001 135.817 138.045 135.883 138.133 135.883C138.298 135.883 138.502 135.779 138.743 135.57C138.985 135.361 139.227 135.136 139.469 134.894C139.711 134.641 139.93 134.41 140.128 134.202C140.337 133.993 140.48 133.888 140.557 133.888C140.711 133.888 140.788 134.075 140.788 134.449C140.788 135.218 140.398 135.966 139.617 136.691C138.848 137.416 138.023 137.779 137.144 137.779C136.353 137.779 135.957 137.059 135.957 135.619C135.957 135.257 136.018 134.757 136.139 134.119C136.259 133.482 136.32 133.015 136.32 132.718ZM143.633 137.779C142.061 137.79 140.989 137.202 140.418 136.015C140.22 135.597 140.121 135.075 140.121 134.449C140.121 133.811 140.176 133.136 140.286 132.421C140.506 130.992 140.929 129.673 141.555 128.464C141.874 127.849 142.231 127.321 142.627 126.882C143.495 125.914 144.462 125.436 145.528 125.447C146.001 125.447 146.369 125.579 146.633 125.843C146.908 126.096 147.045 126.464 147.045 126.948C147.045 127.431 146.902 127.92 146.617 128.415C146.331 128.898 145.963 129.404 145.512 129.932C145.072 130.448 144.583 130.992 144.045 131.564C143.506 132.135 142.979 132.756 142.462 133.427V134.086C142.462 134.702 142.594 135.152 142.858 135.438C143.121 135.724 143.429 135.867 143.781 135.867C144.726 135.867 145.561 135.4 146.287 134.465C146.584 134.081 146.809 133.888 146.963 133.888C147.117 133.888 147.194 134.075 147.194 134.449C147.194 134.823 147.089 135.207 146.88 135.603C146.683 135.988 146.419 136.345 146.089 136.675C145.759 136.993 145.38 137.257 144.951 137.466C144.523 137.675 144.083 137.779 143.633 137.779ZM144.523 128.926C144.754 128.64 144.935 128.382 145.067 128.151C145.199 127.92 145.265 127.684 145.265 127.442C145.265 127.189 145.177 127.063 145.001 127.063C144.616 127.063 144.188 127.459 143.715 128.25C143.253 129.041 142.907 130.08 142.676 131.366C143.05 130.794 143.391 130.316 143.698 129.932C144.017 129.547 144.292 129.212 144.523 128.926Z" fill="black"/>
<path d="M103.294 157.398C102.843 157.123 102.404 156.986 101.975 156.986C101.283 156.986 100.524 157.096 99.7 157.316L98.8097 157.53C98.5459 157.596 98.3426 157.629 98.1997 157.629C97.87 157.629 97.7051 157.508 97.7051 157.266C97.7051 157.123 97.826 156.947 98.0678 156.739C98.2986 156.519 98.6119 156.31 99.0075 156.112C99.9857 155.629 101.046 155.387 102.189 155.387C103.827 155.387 104.877 155.667 105.338 156.228C105.47 156.381 105.536 156.596 105.536 156.871C105.514 157.937 105.02 160.772 104.052 165.378C105.349 164.85 106.141 164.416 106.426 164.075C106.723 163.734 106.954 163.564 107.119 163.564C107.284 163.564 107.366 163.734 107.366 164.075C107.366 164.416 107.262 164.713 107.053 164.965C106.855 165.218 106.536 165.504 106.097 165.823C105.668 166.141 104.877 166.548 103.723 167.043C103.635 167.482 103.47 167.971 103.228 168.51C102.404 170.785 101.057 171.923 99.1889 171.923C98.2766 171.923 97.5018 171.725 96.8643 171.329C96.2268 170.934 95.9081 170.324 95.9081 169.499C95.9081 169.202 96.062 168.922 96.3697 168.658C96.6665 168.395 97.1061 168.114 97.6886 167.818C98.2602 167.532 99.3812 167.092 101.052 166.499C101.118 166.114 101.173 165.757 101.217 165.427C101.261 165.086 101.31 164.795 101.365 164.553C101.596 162.982 102.052 161.13 102.733 158.997C102.931 158.393 103.118 157.86 103.294 157.398ZM98.0843 170.373C98.414 170.549 98.7273 170.637 99.024 170.637C99.3208 170.648 99.5461 170.582 99.7 170.439C99.8538 170.307 100.019 170.087 100.195 169.779C100.381 169.472 100.563 168.933 100.739 168.164C100.167 168.362 99.678 168.526 99.2713 168.658C98.8756 168.79 98.5514 168.911 98.2986 169.021C98.0568 169.131 97.881 169.235 97.7711 169.334C97.6502 169.433 97.5897 169.554 97.5897 169.697C97.5897 169.972 97.7546 170.197 98.0843 170.373ZM116.578 163.515C116.775 163.515 116.874 163.767 116.874 164.273C116.874 164.548 116.759 164.883 116.528 165.279C116.297 165.663 115.995 166.021 115.621 166.35C115.259 166.669 114.852 166.933 114.401 167.142C113.951 167.35 113.511 167.455 113.082 167.455C112.5 167.455 112.11 166.944 111.912 165.922C111.626 166.394 111.252 166.784 110.791 167.092C110.329 167.389 109.708 167.537 108.928 167.537C108.159 167.537 107.538 167.295 107.065 166.812C106.592 166.328 106.361 165.74 106.372 165.048C106.372 163.179 106.993 161.707 108.235 160.629C108.763 160.179 109.252 159.882 109.703 159.739C110.164 159.596 110.648 159.525 111.154 159.525C111.659 159.525 112.071 159.613 112.39 159.789C112.544 159.47 112.72 159.311 112.918 159.311C113.302 159.311 113.665 159.481 114.006 159.822C114.357 160.151 114.533 160.465 114.533 160.761C114.379 161.124 114.154 161.558 113.857 162.064C113.769 162.569 113.725 163.278 113.725 164.191C113.725 165.103 113.841 165.559 114.072 165.559C114.357 165.559 115.05 164.987 116.149 163.844C116.347 163.624 116.49 163.515 116.578 163.515ZM108.796 164.504C108.796 165.35 109.109 165.773 109.736 165.773C110.406 165.762 110.961 165.405 111.401 164.702C111.555 164.46 111.681 164.163 111.78 163.811C111.78 162.58 111.89 161.525 112.11 160.646C111.22 160.822 110.445 161.25 109.785 161.932C109.126 162.613 108.796 163.471 108.796 164.504ZM118.655 160.151C118.655 160.888 118.524 161.723 118.26 162.657C118.282 163.009 118.293 163.35 118.293 163.679C118.293 164.009 118.315 164.295 118.359 164.537C118.524 164.976 118.732 165.246 118.985 165.345C119.205 165.345 119.447 165.158 119.711 164.784C119.974 164.399 120.244 163.943 120.518 163.416C120.387 162.91 120.321 162.432 120.321 161.981C120.321 161.19 120.441 160.613 120.683 160.25C120.98 159.789 121.431 159.558 122.035 159.558C122.64 159.558 123.041 159.789 123.239 160.25C123.316 160.426 123.354 160.624 123.354 160.844C123.354 161.239 123.255 161.646 123.057 162.064C122.859 162.47 122.541 163.009 122.101 163.679C122.299 164.262 122.596 164.553 122.991 164.553C123.475 164.542 123.893 164.372 124.244 164.042C124.376 163.91 124.486 163.795 124.574 163.696C124.673 163.597 124.772 163.548 124.871 163.548C125.025 163.548 125.102 163.729 125.102 164.092C125.102 164.773 124.904 165.273 124.508 165.592C124.123 165.9 123.634 166.054 123.041 166.054C122.26 166.054 121.639 165.713 121.178 165.031C119.892 166.702 118.815 167.537 117.947 167.537C117.606 167.537 117.271 167.054 116.941 166.086C116.611 165.119 116.358 163.811 116.182 162.163C116.051 161.119 116.128 160.371 116.413 159.921C116.655 159.569 117.128 159.393 117.831 159.393C118.095 159.393 118.298 159.475 118.441 159.64C118.584 159.794 118.655 159.964 118.655 160.151ZM134.481 163.515C134.679 163.515 134.778 163.767 134.778 164.273C134.778 164.548 134.662 164.883 134.431 165.279C134.201 165.663 133.898 166.021 133.525 166.35C133.162 166.669 132.755 166.933 132.305 167.142C131.854 167.35 131.414 167.455 130.986 167.455C130.403 167.455 130.013 166.944 129.815 165.922C129.529 166.394 129.156 166.784 128.694 167.092C128.233 167.389 127.612 167.537 126.831 167.537C126.062 167.537 125.441 167.295 124.968 166.812C124.496 166.328 124.265 165.74 124.276 165.048C124.276 163.179 124.897 161.707 126.139 160.629C126.666 160.179 127.155 159.882 127.606 159.739C128.068 159.596 128.551 159.525 129.057 159.525C129.562 159.525 129.975 159.613 130.293 159.789C130.447 159.47 130.623 159.311 130.821 159.311C131.206 159.311 131.568 159.481 131.909 159.822C132.261 160.151 132.437 160.465 132.437 160.761C132.283 161.124 132.057 161.558 131.761 162.064C131.673 162.569 131.629 163.278 131.629 164.191C131.629 165.103 131.744 165.559 131.975 165.559C132.261 165.559 132.953 164.987 134.052 163.844C134.25 163.624 134.393 163.515 134.481 163.515ZM126.699 164.504C126.699 165.35 127.013 165.773 127.639 165.773C128.309 165.762 128.865 165.405 129.304 164.702C129.458 164.46 129.584 164.163 129.683 163.811C129.683 162.58 129.793 161.525 130.013 160.646C129.123 160.822 128.348 161.25 127.688 161.932C127.029 162.613 126.699 163.471 126.699 164.504ZM137.713 159.426C138.449 159.415 138.999 159.552 139.361 159.838C139.724 160.113 139.905 160.514 139.905 161.042C139.905 161.558 139.746 162.003 139.427 162.377C139.12 162.74 138.74 162.998 138.29 163.152C138.609 163.482 138.894 163.817 139.147 164.158C139.411 164.498 139.543 164.855 139.543 165.229C139.543 165.966 139.252 166.537 138.669 166.944C138.086 167.339 137.273 167.537 136.229 167.537C135.196 167.537 134.421 167.334 133.904 166.927C133.388 166.51 133.13 166.043 133.13 165.526C133.13 164.998 133.256 164.52 133.509 164.092C133.773 163.663 134.053 163.449 134.35 163.449C134.525 163.449 134.652 163.515 134.729 163.646C134.806 163.767 134.949 164.13 135.157 164.735C135.234 164.954 135.361 165.163 135.537 165.361C135.943 165.812 136.586 166.037 137.465 166.037C137.334 165.619 137.119 165.262 136.823 164.965C136.537 164.658 136.251 164.361 135.965 164.075C135.679 163.789 135.427 163.487 135.207 163.168C134.987 162.839 134.877 162.454 134.877 162.014C134.877 161.223 135.174 160.58 135.767 160.085C136.328 159.646 136.976 159.426 137.713 159.426ZM137.647 162.476C138.086 162.003 138.306 161.624 138.306 161.338C138.306 161.206 138.257 161.091 138.158 160.992C138.07 160.882 137.938 160.827 137.762 160.827C137.586 160.827 137.416 160.849 137.251 160.893C137.097 160.937 136.971 160.97 136.872 160.992C136.872 161.41 137.13 161.904 137.647 162.476ZM147.116 163.515C147.314 163.515 147.413 163.685 147.413 164.026C147.413 164.355 147.325 164.713 147.149 165.097C146.984 165.482 146.726 165.856 146.374 166.218C146.034 166.57 145.594 166.872 145.055 167.125C144.517 167.378 143.879 167.504 143.143 167.504C142.417 167.504 141.78 167.29 141.23 166.861C140.681 166.422 140.406 165.795 140.406 164.982C140.406 164.158 140.533 163.416 140.785 162.756C141.049 162.086 141.39 161.509 141.807 161.025C142.236 160.542 142.72 160.168 143.258 159.904C143.797 159.629 144.308 159.492 144.792 159.492C145.638 159.492 146.061 159.827 146.061 160.498C146.061 160.882 145.979 161.19 145.814 161.421C145.66 161.652 145.5 161.767 145.336 161.767C145.116 161.767 144.923 161.69 144.759 161.536C144.594 161.382 144.412 161.305 144.215 161.305C144.017 161.294 143.824 161.388 143.637 161.586C143.462 161.784 143.313 162.036 143.192 162.344C142.951 162.96 142.83 163.679 142.83 164.504C142.841 164.899 143.022 165.196 143.374 165.394C143.616 165.526 143.901 165.597 144.231 165.608C144.561 165.608 144.874 165.498 145.171 165.279C145.478 165.059 145.759 164.823 146.012 164.57C146.264 164.306 146.484 164.064 146.671 163.844C146.869 163.624 147.017 163.515 147.116 163.515ZM148.999 164.636L149.098 166.647C149.098 166.911 148.961 167.147 148.686 167.356C148.411 167.565 148.038 167.669 147.565 167.669C147.29 167.669 147.098 167.526 146.988 167.241C146.889 166.955 146.84 166.537 146.84 165.988C146.84 164.834 146.895 163.932 147.005 163.284C147.125 162.624 147.356 161.959 147.697 161.289C147.191 160.805 146.939 160.388 146.939 160.036C146.939 159.3 147.334 158.931 148.126 158.931C148.532 158.931 148.89 159.146 149.197 159.574C149.417 159.871 149.576 160.217 149.675 160.613C149.829 160.668 150.022 160.695 150.252 160.695C150.571 160.695 150.939 160.591 151.357 160.382L151.786 160.168C151.918 160.102 152.033 160.069 152.132 160.069C152.451 160.069 152.769 160.536 153.088 161.47C152.989 161.899 152.879 162.311 152.758 162.707C152.648 163.102 152.517 163.581 152.363 164.141C152.209 164.702 152.126 165.081 152.115 165.279C152.115 165.465 152.176 165.559 152.297 165.559C152.462 165.559 152.665 165.454 152.907 165.246C153.149 165.037 153.39 164.812 153.632 164.57C153.874 164.317 154.094 164.086 154.292 163.877C154.5 163.668 154.643 163.564 154.72 163.564C154.874 163.564 154.951 163.751 154.951 164.125C154.951 164.883 154.616 165.63 153.945 166.367C153.286 167.103 152.528 167.466 151.67 167.455C151.165 167.455 150.785 167.252 150.533 166.845C150.28 166.438 150.148 165.944 150.137 165.361C150.137 164.207 150.395 163.113 150.912 162.08C150.67 162.179 150.395 162.229 150.088 162.229C149.791 162.229 149.576 162.218 149.445 162.196C149.346 162.613 149.247 163.036 149.148 163.465C149.049 163.883 148.999 164.273 148.999 164.636ZM156.106 167.455C155.007 167.455 154.457 166.427 154.457 164.372C154.457 163.251 154.594 162.234 154.869 161.322C155.298 159.915 155.781 159.212 156.32 159.212C156.639 159.212 156.892 159.426 157.078 159.855C157.232 160.184 157.304 160.509 157.293 160.827C157.293 161.267 157.161 162.042 156.897 163.152C156.644 164.119 156.518 164.718 156.518 164.949C156.518 165.18 156.573 165.339 156.683 165.427C156.804 165.515 156.941 165.559 157.095 165.559C157.26 165.559 157.463 165.454 157.705 165.246C157.947 165.037 158.188 164.812 158.43 164.57C158.672 164.317 158.892 164.086 159.09 163.877C159.299 163.668 159.441 163.564 159.518 163.564C159.672 163.564 159.749 163.751 159.749 164.125C159.749 164.894 159.359 165.647 158.579 166.383C157.809 167.109 156.985 167.466 156.106 167.455ZM156.782 157.876C156.485 157.437 156.336 156.964 156.336 156.458C156.336 155.953 156.413 155.535 156.567 155.205C156.732 154.865 156.886 154.617 157.029 154.464C157.172 154.299 157.337 154.216 157.523 154.216C157.831 154.216 158.112 154.447 158.364 154.909C158.617 155.359 158.743 155.738 158.743 156.046C158.743 156.618 158.54 157.068 158.133 157.398C157.738 157.717 157.287 157.876 156.782 157.876ZM162.041 160.498C162.613 159.849 163.343 159.525 164.234 159.525C165.509 159.525 166.317 160.041 166.657 161.075C166.756 161.382 166.806 161.723 166.806 162.097C166.806 162.932 166.531 163.756 165.981 164.57C165.443 165.383 164.789 165.933 164.019 166.218H164.217C165.02 166.218 165.833 165.922 166.657 165.328C167.185 164.954 167.597 164.57 167.894 164.174C168.201 163.767 168.432 163.564 168.586 163.564C168.74 163.564 168.817 163.74 168.817 164.092C168.817 164.707 168.553 165.328 168.026 165.955C167.234 166.856 166.223 167.383 164.992 167.537C164.102 167.636 163.47 167.653 163.096 167.587C162.722 167.521 162.437 167.438 162.239 167.339C161.81 167.12 161.596 166.79 161.596 166.35C161.596 166.108 161.645 165.889 161.744 165.691C162.613 165.691 163.272 165.361 163.723 164.702C164.173 164.042 164.399 163.218 164.399 162.229C164.399 161.987 164.311 161.773 164.135 161.586C163.959 161.388 163.723 161.289 163.426 161.289C163.14 161.289 162.827 161.415 162.486 161.668C162.145 161.921 161.871 162.24 161.662 162.624C161.464 162.998 161.283 163.372 161.118 163.745C160.953 164.108 160.821 164.57 160.722 165.13C160.546 166.141 160.343 167.416 160.112 168.955C159.892 170.505 159.755 171.335 159.7 171.445C159.645 171.565 159.563 171.675 159.453 171.774C159.343 171.873 159.227 171.923 159.106 171.923C158.887 171.923 158.705 171.857 158.562 171.725C158.167 171.384 157.936 171.12 157.87 170.934C157.804 170.758 157.771 170.527 157.771 170.241C157.771 169.164 157.952 167.653 158.315 165.707C158.678 163.762 159.304 161.74 160.195 159.64C160.326 159.333 160.557 159.179 160.887 159.179C161.228 159.179 161.552 159.475 161.86 160.069C161.948 160.223 162.008 160.366 162.041 160.498ZM168.715 166.515C168.594 166.218 168.506 165.878 168.451 165.493C168.396 165.097 168.369 164.548 168.369 163.844C168.369 163.141 168.501 162.19 168.764 160.992H168.022C167.891 160.992 167.825 160.937 167.825 160.827C167.825 160.564 167.847 160.349 167.891 160.184C167.945 160.008 168.066 159.811 168.253 159.591H168.649C168.803 159.591 168.968 159.585 169.143 159.574C169.671 157.882 170.21 157.035 170.759 157.035C171.199 157.046 171.507 157.327 171.682 157.876C171.726 158.03 171.776 158.195 171.831 158.371L171.155 159.558C171.924 159.58 172.408 159.591 172.606 159.591C172.814 159.591 172.924 159.613 172.935 159.657C172.957 159.69 172.968 159.745 172.968 159.822C172.968 160.019 172.919 160.267 172.82 160.564C172.732 160.86 172.628 161.003 172.507 160.992L170.858 160.91C170.627 162.251 170.512 163.361 170.512 164.24C170.512 165.119 170.638 165.559 170.891 165.559C171.1 165.559 171.479 165.389 172.029 165.048C172.578 164.696 172.974 164.361 173.216 164.042C173.457 163.723 173.655 163.564 173.809 163.564C173.963 163.564 174.04 163.751 174.04 164.125C174.04 164.498 173.908 164.883 173.644 165.279C173.381 165.663 173.045 166.021 172.639 166.35C172.243 166.669 171.798 166.933 171.303 167.142C170.82 167.35 170.396 167.455 170.034 167.455C169.671 167.455 169.391 167.372 169.193 167.208C169.006 167.032 168.847 166.801 168.715 166.515Z" fill="black"/>
<path d="M125.023 174.478C125.155 174.17 125.369 174.022 125.666 174.033C125.963 174.033 126.249 174.247 126.523 174.676C126.798 175.094 126.936 175.407 126.936 175.616C126.936 175.923 126.815 176.594 126.573 177.627C126.331 178.649 126.04 179.732 125.699 180.875C126.491 180.358 127.364 179.605 128.321 178.616C128.463 178.462 128.573 178.391 128.65 178.402C128.804 178.402 128.881 178.572 128.881 178.913C128.881 179.55 128.518 180.254 127.793 181.023C127.068 181.782 126.161 182.403 125.073 182.886L124.644 184.222C124.369 185.057 124.034 185.661 123.638 186.035C123.122 186.519 122.446 186.761 121.611 186.761C120.775 186.761 120.105 186.552 119.599 186.134C119.083 185.716 118.824 185.2 118.824 184.584C118.824 183.969 119.253 183.463 120.11 183.068C120.506 182.892 120.962 182.721 121.479 182.556C121.984 182.403 122.528 182.232 123.111 182.045C123.221 181.463 123.32 180.902 123.408 180.364C123.506 179.682 123.836 178.363 124.397 176.407C124.661 175.55 124.869 174.907 125.023 174.478ZM127.216 169.186C127.897 169.186 128.359 169.444 128.601 169.961C128.568 170.609 128.304 171.247 127.809 171.873C127.315 172.5 126.76 172.807 126.144 172.796C125.859 172.346 125.716 171.846 125.716 171.296C125.716 170.747 125.848 170.258 126.111 169.829C126.375 169.4 126.743 169.186 127.216 169.186ZM122.682 183.793C122.286 183.936 121.946 184.051 121.66 184.139C121.374 184.238 121.083 184.337 120.786 184.436C120.489 184.535 120.341 184.645 120.341 184.766C120.341 184.974 120.473 185.156 120.737 185.31C121.066 185.431 121.308 185.491 121.462 185.491C121.924 185.491 122.33 184.925 122.682 183.793ZM133.914 182.837C133.112 183.057 132.199 183.166 131.177 183.166C130.155 183.166 129.325 182.947 128.688 182.507C128.05 182.078 127.732 181.463 127.732 180.661C127.732 180.144 127.973 179.704 128.457 179.342C128.941 178.968 129.644 178.781 130.567 178.781C131.754 178.781 132.732 179.138 133.502 179.853C133.722 180.062 133.93 180.281 134.128 180.512C135.161 179.996 135.958 179.265 136.519 178.319C137.079 177.363 137.36 176.308 137.36 175.154C137.36 173.989 137.09 173.132 136.552 172.582C136.013 172.033 135.348 171.758 134.557 171.758C133.436 171.758 132.524 172.121 131.82 172.846C131.117 173.571 130.765 174.544 130.765 175.764C130.765 176.226 130.814 176.616 130.913 176.935C131.023 177.242 131.078 177.473 131.078 177.627C131.078 177.781 131.018 177.858 130.897 177.858C130.424 177.858 130.001 177.616 129.627 177.132C129.254 176.638 129.067 175.962 129.067 175.105C129.067 174.236 129.226 173.478 129.545 172.829C129.875 172.17 130.303 171.62 130.831 171.181C131.897 170.302 133.172 169.862 134.656 169.862C136.151 169.862 137.393 170.28 138.382 171.115C139.481 172.038 140.036 173.302 140.047 174.907C140.047 176.742 139.602 178.319 138.712 179.638C137.953 180.759 136.903 181.628 135.563 182.243C136.035 182.716 136.552 182.952 137.112 182.952C137.684 182.952 138.145 182.93 138.497 182.886C138.86 182.853 139.151 182.837 139.371 182.837C139.602 182.837 139.717 182.886 139.717 182.985C139.717 183.238 139.47 183.518 138.975 183.826C138.492 184.145 137.783 184.304 136.849 184.304C135.705 184.304 134.727 183.815 133.914 182.837ZM132.579 181.04C132.062 180.523 131.523 180.265 130.963 180.265C130.622 180.265 130.325 180.303 130.073 180.38C129.831 180.457 129.71 180.573 129.71 180.726C129.71 181.056 130.204 181.221 131.194 181.221C131.545 181.221 132.007 181.161 132.579 181.04ZM146.246 175.286C146.246 174.55 146.817 174.181 147.96 174.181C148.246 174.181 148.422 174.275 148.488 174.462C148.565 174.648 148.603 174.934 148.603 175.319C148.603 175.857 148.482 176.693 148.241 177.825C147.999 178.957 147.883 179.721 147.894 180.116C147.894 180.303 147.955 180.397 148.076 180.397C148.241 180.397 148.444 180.292 148.686 180.083C148.928 179.875 149.169 179.649 149.411 179.408C149.653 179.155 149.873 178.924 150.071 178.715C150.279 178.506 150.422 178.402 150.499 178.402C150.653 178.402 150.73 178.589 150.73 178.962C150.73 179.732 150.351 180.474 149.592 181.188C148.318 181.935 147.51 182.309 147.169 182.309C147.136 182.309 147.109 182.304 147.087 182.293C146.669 182.293 146.372 182.155 146.196 181.881C146.031 181.606 145.927 181.26 145.883 180.842C145.663 181.249 145.361 181.6 144.976 181.897C144.592 182.183 144.152 182.326 143.657 182.326C142.789 182.326 142.119 182.161 141.646 181.831C141.184 181.501 140.954 181.012 140.954 180.364C140.954 180.078 140.992 179.814 141.069 179.572C141.157 179.331 141.294 179.034 141.481 178.682L141.959 174.626C142.3 174.363 142.789 174.231 143.427 174.231C143.932 174.231 144.218 174.561 144.284 175.22C144.339 175.759 144.311 176.242 144.201 176.671C144.102 177.088 143.965 177.622 143.789 178.27C143.613 178.907 143.525 179.473 143.525 179.968C143.525 180.364 143.773 180.562 144.267 180.562C144.806 180.562 145.273 180.089 145.669 179.144C145.976 178.418 146.185 177.611 146.295 176.72C146.284 176.632 146.273 176.522 146.262 176.391C146.262 176.248 146.257 176.11 146.246 175.978C146.246 175.846 146.246 175.715 146.246 175.583V175.286ZM153.75 180.446C154.608 180.446 155.438 180.105 156.24 179.424C156.537 179.171 156.778 178.94 156.965 178.732C157.152 178.512 157.295 178.402 157.394 178.402C157.548 178.402 157.625 178.556 157.625 178.863C157.625 179.171 157.542 179.517 157.377 179.902C157.213 180.276 156.938 180.644 156.553 181.007C155.608 181.897 154.311 182.342 152.662 182.342C151.354 182.342 150.464 181.87 149.991 180.924C149.827 180.595 149.744 180.122 149.744 179.506C149.744 178.891 149.865 178.253 150.107 177.594C150.349 176.924 150.667 176.347 151.063 175.863C151.47 175.379 151.937 175.006 152.464 174.742C152.992 174.467 153.553 174.33 154.146 174.33C154.751 174.33 155.212 174.478 155.531 174.775C155.861 175.072 156.026 175.456 156.026 175.929C156.026 176.402 155.905 176.792 155.663 177.099C155.432 177.396 155.13 177.649 154.756 177.858C154.382 178.056 153.965 178.237 153.503 178.402C153.052 178.556 152.607 178.732 152.168 178.929V179.342C152.179 179.737 152.344 180.018 152.662 180.182C152.981 180.347 153.344 180.435 153.75 180.446ZM153.47 175.797C152.899 175.797 152.503 176.462 152.283 177.792C152.514 177.638 152.728 177.501 152.926 177.38C153.135 177.259 153.316 177.143 153.47 177.033C153.8 176.792 153.97 176.517 153.981 176.209C153.981 175.934 153.811 175.797 153.47 175.797ZM159.207 179.473L159.306 181.485C159.306 181.749 159.168 181.985 158.894 182.194C158.619 182.403 158.245 182.507 157.773 182.507C157.498 182.507 157.305 182.364 157.196 182.078C157.097 181.793 157.047 181.375 157.047 180.825C157.047 179.671 157.102 178.77 157.212 178.122C157.333 177.462 157.564 176.797 157.904 176.127C157.399 175.643 157.146 175.225 157.146 174.874C157.146 174.137 157.542 173.769 158.333 173.769C158.74 173.769 159.097 173.983 159.405 174.412C159.625 174.709 159.784 175.055 159.883 175.451C160.037 175.506 160.229 175.533 160.46 175.533C160.779 175.533 161.147 175.429 161.564 175.22L161.993 175.006C162.125 174.94 162.24 174.907 162.339 174.907C162.658 174.907 162.977 175.374 163.296 176.308C163.197 176.737 163.087 177.149 162.966 177.545C162.856 177.94 162.724 178.418 162.57 178.979C162.416 179.539 162.334 179.919 162.323 180.116C162.323 180.303 162.383 180.397 162.504 180.397C162.669 180.397 162.872 180.292 163.114 180.083C163.356 179.875 163.598 179.649 163.84 179.408C164.081 179.155 164.301 178.924 164.499 178.715C164.708 178.506 164.851 178.402 164.928 178.402C165.082 178.402 165.159 178.589 165.159 178.962C165.159 179.721 164.823 180.468 164.153 181.205C163.493 181.941 162.735 182.304 161.878 182.293C161.372 182.293 160.993 182.089 160.74 181.683C160.487 181.276 160.355 180.781 160.344 180.199C160.344 179.045 160.603 177.951 161.119 176.918C160.878 177.017 160.603 177.066 160.295 177.066C159.998 177.066 159.784 177.055 159.652 177.033C159.553 177.451 159.454 177.874 159.355 178.303C159.256 178.721 159.207 179.111 159.207 179.473ZM168.77 181.04C168.22 181.798 167.484 182.177 166.56 182.177C165.813 182.177 165.214 182.023 164.763 181.716C164.324 181.397 164.104 180.897 164.104 180.215C164.104 179.93 164.142 179.666 164.219 179.424C164.307 179.182 164.445 178.885 164.631 178.534L165.11 174.626C165.45 174.363 165.912 174.231 166.494 174.231C166.989 174.231 167.269 174.561 167.335 175.22C167.357 175.418 167.368 175.654 167.368 175.929C167.368 176.193 167.324 176.473 167.236 176.77C166.797 178.286 166.582 179.303 166.593 179.82C166.593 180.215 166.824 180.413 167.286 180.413C167.747 180.413 168.088 180.265 168.308 179.968C168.528 179.671 168.715 179.303 168.869 178.863C169.154 177.643 169.418 176.638 169.66 175.846C169.913 175.055 170.072 174.583 170.138 174.429C170.248 174.165 170.457 174.027 170.764 174.016C171.072 174.027 171.363 174.247 171.638 174.676C171.913 175.094 172.05 175.418 172.05 175.649C172.028 176.418 171.55 178.358 170.616 181.468C171.33 180.908 172.039 180.221 172.743 179.408C172.985 179.122 173.188 178.885 173.353 178.699C173.518 178.501 173.65 178.402 173.749 178.402C173.902 178.402 173.979 178.578 173.979 178.929C173.979 179.622 173.589 180.43 172.809 181.353C172.039 182.276 171.094 182.996 169.973 183.513C169.841 183.952 169.698 184.37 169.544 184.766C169.391 185.161 169.193 185.508 168.951 185.804C168.423 186.442 167.621 186.761 166.544 186.761C165.819 186.761 165.198 186.552 164.681 186.134C164.175 185.716 163.923 185.194 163.923 184.568C163.923 184.216 164.038 183.936 164.269 183.727C164.511 183.518 164.835 183.342 165.241 183.199C165.659 183.068 166.143 182.947 166.692 182.837C167.242 182.738 167.83 182.611 168.456 182.458C168.61 181.798 168.715 181.325 168.77 181.04ZM166.527 185.491C167.044 185.491 167.511 185.04 167.929 184.139C167.533 184.216 167.181 184.271 166.874 184.304C166.566 184.348 166.302 184.386 166.082 184.419C165.643 184.485 165.428 184.601 165.439 184.766C165.439 184.974 165.56 185.15 165.802 185.293C166.055 185.436 166.297 185.502 166.527 185.491Z" fill="black"/>
<path d="M146.258 193.19C146.445 193.19 146.538 193.443 146.538 193.949C146.538 194.223 146.423 194.559 146.192 194.954C145.961 195.339 145.659 195.696 145.285 196.026C144.922 196.345 144.516 196.608 144.065 196.817C143.614 197.026 143.186 197.131 142.779 197.131C142.372 197.131 142.054 197.054 141.823 196.9C141.592 196.746 141.411 196.537 141.279 196.273C141.092 195.9 140.938 195.191 140.817 194.146C140.696 193.091 140.575 192.355 140.455 191.937C140.169 191.882 139.916 191.772 139.696 191.608C139.487 191.432 139.383 191.223 139.383 190.981C139.383 190.728 139.493 190.547 139.713 190.437C139.943 190.327 140.202 190.272 140.488 190.272C140.784 190.272 141.048 190.344 141.279 190.486C141.587 190.234 141.834 189.937 142.021 189.596C142.219 189.245 142.318 188.777 142.318 188.195C142.318 187.601 142.12 187.129 141.724 186.777C141.328 186.425 140.746 186.249 139.976 186.249C139.218 186.249 138.636 186.31 138.229 186.431C137.822 186.552 137.471 186.684 137.174 186.826C136.888 186.969 136.63 187.101 136.399 187.222C136.179 187.343 135.97 187.404 135.772 187.404C135.575 187.404 135.476 187.343 135.476 187.222C135.476 187.09 135.58 186.881 135.789 186.596C135.998 186.31 136.305 186.024 136.712 185.738C137.734 185.024 138.888 184.672 140.174 184.683C141.46 184.683 142.521 184.925 143.356 185.409C144.334 185.98 144.823 186.837 144.823 187.981C144.834 188.926 144.587 189.712 144.082 190.338C143.576 190.965 142.95 191.415 142.202 191.69C142.367 192.053 142.499 192.443 142.598 192.861C142.708 193.278 142.812 193.663 142.911 194.015C143.01 194.366 143.12 194.658 143.241 194.888C143.373 195.119 143.527 195.235 143.702 195.235C143.889 195.235 144.109 195.13 144.362 194.921C144.626 194.702 144.884 194.465 145.137 194.212C145.39 193.96 145.615 193.729 145.813 193.52C146.021 193.3 146.17 193.19 146.258 193.19ZM139.086 187.255C139.229 187.255 139.301 187.442 139.301 187.816C139.301 188.189 139.279 188.541 139.235 188.871C139.136 189.508 139.009 190.102 138.855 190.651C138.46 192.146 138.262 193.02 138.262 193.273V195.696C138.262 196.29 138.037 196.696 137.586 196.916C137.377 197.015 137.174 197.109 136.976 197.196C136.789 197.284 136.575 197.328 136.333 197.328C135.871 197.328 135.641 196.801 135.641 195.746C135.641 194.68 135.888 193.339 136.382 191.723C136.877 190.107 137.394 188.876 137.932 188.03C138.042 187.865 138.201 187.695 138.41 187.519C138.619 187.343 138.844 187.255 139.086 187.255ZM149.561 195.284C150.418 195.284 151.248 194.943 152.051 194.262C152.347 194.009 152.589 193.778 152.776 193.569C152.963 193.35 153.106 193.24 153.205 193.24C153.359 193.24 153.435 193.394 153.435 193.701C153.435 194.009 153.353 194.355 153.188 194.74C153.023 195.114 152.749 195.482 152.364 195.845C151.419 196.735 150.122 197.18 148.473 197.18C147.165 197.18 146.275 196.707 145.802 195.762C145.637 195.432 145.555 194.96 145.555 194.344C145.555 193.729 145.676 193.091 145.918 192.432C146.159 191.761 146.478 191.184 146.874 190.701C147.281 190.217 147.748 189.844 148.275 189.58C148.803 189.305 149.363 189.168 149.957 189.168C150.561 189.168 151.023 189.316 151.342 189.613C151.671 189.909 151.836 190.294 151.836 190.767C151.836 191.239 151.715 191.63 151.474 191.937C151.243 192.234 150.941 192.487 150.567 192.696C150.193 192.894 149.775 193.075 149.314 193.24C148.863 193.394 148.418 193.569 147.978 193.767V194.179C147.989 194.575 148.154 194.855 148.473 195.02C148.792 195.185 149.154 195.273 149.561 195.284ZM149.281 190.635C148.709 190.635 148.314 191.3 148.094 192.63C148.325 192.476 148.539 192.338 148.737 192.218C148.946 192.097 149.127 191.981 149.281 191.871C149.611 191.63 149.781 191.355 149.792 191.047C149.792 190.772 149.622 190.635 149.281 190.635ZM162.733 193.19C162.931 193.19 163.03 193.443 163.03 193.949C163.03 194.223 162.915 194.559 162.684 194.954C162.453 195.339 162.151 195.696 161.777 196.026C161.414 196.345 161.008 196.608 160.557 196.817C160.106 197.026 159.667 197.131 159.238 197.131C158.656 197.131 158.266 196.619 158.068 195.597C157.782 196.07 157.408 196.46 156.947 196.768C156.485 197.065 155.864 197.213 155.084 197.213C154.314 197.213 153.693 196.971 153.221 196.488C152.748 196.004 152.517 195.416 152.528 194.724C152.528 192.855 153.149 191.382 154.391 190.305C154.919 189.855 155.408 189.558 155.858 189.415C156.32 189.272 156.804 189.201 157.309 189.201C157.815 189.201 158.227 189.288 158.546 189.464C158.7 189.146 158.876 188.986 159.073 188.986C159.458 188.986 159.821 189.157 160.161 189.497C160.513 189.827 160.689 190.14 160.689 190.437C160.535 190.8 160.31 191.234 160.013 191.739C159.925 192.245 159.881 192.954 159.881 193.866C159.881 194.778 159.997 195.235 160.227 195.235C160.513 195.235 161.206 194.663 162.305 193.52C162.503 193.3 162.645 193.19 162.733 193.19ZM154.952 194.179C154.952 195.026 155.265 195.449 155.891 195.449C156.562 195.438 157.117 195.081 157.557 194.377C157.71 194.135 157.837 193.839 157.936 193.487C157.936 192.256 158.046 191.201 158.266 190.322C157.375 190.497 156.6 190.926 155.941 191.608C155.281 192.289 154.952 193.146 154.952 194.179ZM168.751 193.19C168.949 193.19 169.048 193.361 169.048 193.701C169.048 194.031 168.96 194.388 168.784 194.773C168.62 195.158 168.361 195.531 168.01 195.894C167.669 196.246 167.229 196.548 166.691 196.801C166.152 197.054 165.515 197.18 164.778 197.18C164.053 197.18 163.415 196.966 162.866 196.537C162.316 196.097 162.041 195.471 162.041 194.658C162.041 193.833 162.168 193.091 162.421 192.432C162.684 191.761 163.025 191.184 163.443 190.701C163.871 190.217 164.355 189.844 164.894 189.58C165.432 189.305 165.943 189.168 166.427 189.168C167.273 189.168 167.696 189.503 167.696 190.173C167.696 190.558 167.614 190.866 167.449 191.096C167.295 191.327 167.136 191.443 166.971 191.443C166.751 191.443 166.559 191.366 166.394 191.212C166.229 191.058 166.048 190.981 165.85 190.981C165.652 190.97 165.46 191.064 165.273 191.261C165.097 191.459 164.949 191.712 164.828 192.02C164.586 192.635 164.465 193.355 164.465 194.179C164.476 194.575 164.657 194.872 165.009 195.07C165.251 195.202 165.537 195.273 165.866 195.284C166.196 195.284 166.509 195.174 166.806 194.954C167.114 194.735 167.394 194.498 167.647 194.245C167.9 193.982 168.119 193.74 168.306 193.52C168.504 193.3 168.653 193.19 168.751 193.19ZM168.953 196.191C168.832 195.894 168.744 195.553 168.689 195.169C168.634 194.773 168.607 194.223 168.607 193.52C168.607 192.817 168.739 191.866 169.003 190.668H168.261C168.129 190.668 168.063 190.613 168.063 190.503C168.063 190.239 168.085 190.025 168.129 189.86C168.184 189.684 168.305 189.486 168.492 189.266H168.887C169.041 189.266 169.206 189.261 169.382 189.25C169.909 187.557 170.448 186.711 170.997 186.711C171.437 186.722 171.745 187.002 171.921 187.552C171.965 187.706 172.014 187.871 172.069 188.046L171.393 189.234C172.162 189.255 172.646 189.266 172.844 189.266C173.053 189.266 173.163 189.288 173.174 189.332C173.196 189.365 173.207 189.42 173.207 189.497C173.207 189.695 173.157 189.942 173.058 190.239C172.97 190.536 172.866 190.679 172.745 190.668L171.096 190.585C170.866 191.926 170.75 193.036 170.75 193.916C170.75 194.795 170.877 195.235 171.129 195.235C171.338 195.235 171.717 195.064 172.267 194.724C172.816 194.372 173.212 194.037 173.454 193.718C173.696 193.399 173.894 193.24 174.047 193.24C174.201 193.24 174.278 193.427 174.278 193.8C174.278 194.174 174.146 194.559 173.883 194.954C173.619 195.339 173.284 195.696 172.877 196.026C172.481 196.345 172.036 196.608 171.542 196.817C171.058 197.026 170.635 197.131 170.272 197.131C169.909 197.131 169.629 197.048 169.431 196.883C169.244 196.707 169.085 196.477 168.953 196.191Z" fill="black"/>
<path d="M143.867 119.413C143.867 120.369 144.274 120.848 145.087 120.848C145.978 120.848 146.577 120.54 146.884 119.924C146.994 119.705 147.049 119.424 147.049 119.084C147.049 118.732 146.967 118.408 146.802 118.111C146.527 117.638 146.054 117.116 145.384 116.545C144.274 115.599 143.719 114.621 143.719 113.61C143.719 112.588 144.038 111.802 144.675 111.252C145.313 110.703 146.043 110.428 146.868 110.428C147.692 110.428 148.346 110.637 148.83 111.055C149.313 111.472 149.555 112.099 149.555 112.934C149.555 113.484 149.368 113.962 148.995 114.368C148.632 114.775 148.148 115.028 147.544 115.127C147.819 115.358 148.093 115.594 148.368 115.836C148.632 116.077 148.874 116.341 149.093 116.627C149.577 117.276 149.819 118.05 149.819 118.952C149.819 119.578 149.671 120.144 149.374 120.65C149.088 121.155 148.709 121.584 148.236 121.936C147.775 122.276 147.252 122.54 146.67 122.727C146.087 122.914 145.543 123.007 145.038 123.007C143.961 123.007 143.125 122.76 142.532 122.265C141.839 121.705 141.493 120.897 141.493 119.842C141.493 119.149 141.719 118.479 142.169 117.831C142.62 117.182 143.098 116.858 143.603 116.858C143.999 116.858 144.197 116.979 144.197 117.221C144.197 117.572 144.142 117.924 144.032 118.276C143.922 118.616 143.867 118.996 143.867 119.413ZM147.066 114.731C147.692 114.105 148.005 113.451 148.005 112.769C148.005 112.56 147.895 112.385 147.676 112.242C147.434 112.11 147.181 112.044 146.917 112.044C146.324 112.044 145.895 112.236 145.631 112.621C145.763 113.093 145.956 113.495 146.208 113.824C146.472 114.154 146.758 114.456 147.066 114.731ZM161.101 119.001C161.299 119.001 161.398 119.254 161.398 119.759C161.398 120.034 161.282 120.369 161.051 120.765C160.821 121.15 160.518 121.507 160.145 121.837C159.782 122.156 159.375 122.419 158.925 122.628C158.474 122.837 158.034 122.941 157.606 122.941C157.023 122.941 156.633 122.43 156.435 121.408C156.149 121.881 155.776 122.271 155.314 122.579C154.852 122.875 154.231 123.024 153.451 123.024C152.682 123.024 152.061 122.782 151.588 122.298C151.115 121.815 150.885 121.227 150.896 120.534C150.896 118.666 151.517 117.193 152.759 116.116C153.286 115.665 153.775 115.369 154.226 115.226C154.688 115.083 155.171 115.011 155.677 115.011C156.182 115.011 156.594 115.099 156.913 115.275C157.067 114.956 157.243 114.797 157.441 114.797C157.825 114.797 158.188 114.967 158.529 115.308C158.881 115.638 159.056 115.951 159.056 116.248C158.903 116.611 158.677 117.045 158.381 117.55C158.293 118.056 158.249 118.765 158.249 119.677C158.249 120.589 158.364 121.045 158.595 121.045C158.881 121.045 159.573 120.474 160.672 119.331C160.87 119.111 161.013 119.001 161.101 119.001ZM153.319 119.99C153.319 120.837 153.632 121.26 154.259 121.26C154.929 121.249 155.484 120.892 155.924 120.188C156.078 119.946 156.204 119.65 156.303 119.298C156.303 118.067 156.413 117.012 156.633 116.132C155.743 116.308 154.968 116.737 154.308 117.418C153.649 118.1 153.319 118.957 153.319 119.99ZM164.333 114.912C165.069 114.901 165.619 115.039 165.981 115.325C166.344 115.599 166.525 116.001 166.525 116.528C166.525 117.045 166.366 117.49 166.047 117.864C165.74 118.226 165.36 118.485 164.91 118.638C165.228 118.968 165.514 119.303 165.767 119.644C166.031 119.985 166.163 120.342 166.163 120.716C166.163 121.452 165.871 122.024 165.289 122.43C164.706 122.826 163.893 123.024 162.849 123.024C161.816 123.024 161.041 122.82 160.524 122.414C160.008 121.996 159.749 121.529 159.749 121.012C159.749 120.485 159.876 120.007 160.129 119.578C160.392 119.149 160.673 118.935 160.969 118.935C161.145 118.935 161.272 119.001 161.349 119.133C161.426 119.254 161.568 119.617 161.777 120.221C161.854 120.441 161.981 120.65 162.156 120.848C162.563 121.298 163.206 121.524 164.085 121.524C163.953 121.106 163.739 120.749 163.442 120.452C163.157 120.144 162.871 119.847 162.585 119.562C162.299 119.276 162.047 118.974 161.827 118.655C161.607 118.325 161.497 117.94 161.497 117.501C161.497 116.709 161.794 116.067 162.387 115.572C162.948 115.132 163.596 114.912 164.333 114.912ZM164.267 117.962C164.706 117.49 164.926 117.111 164.926 116.825C164.926 116.693 164.877 116.578 164.778 116.479C164.69 116.369 164.558 116.314 164.382 116.314C164.206 116.314 164.036 116.336 163.871 116.38C163.717 116.424 163.591 116.457 163.492 116.479C163.492 116.896 163.75 117.391 164.267 117.962ZM170.95 114.912C171.686 114.901 172.236 115.039 172.598 115.325C172.961 115.599 173.143 116.001 173.143 116.528C173.143 117.045 172.983 117.49 172.664 117.864C172.357 118.226 171.977 118.485 171.527 118.638C171.846 118.968 172.131 119.303 172.384 119.644C172.648 119.985 172.78 120.342 172.78 120.716C172.78 121.452 172.489 122.024 171.906 122.43C171.323 122.826 170.51 123.024 169.466 123.024C168.433 123.024 167.658 122.82 167.141 122.414C166.625 121.996 166.367 121.529 166.367 121.012C166.367 120.485 166.493 120.007 166.746 119.578C167.01 119.149 167.29 118.935 167.587 118.935C167.762 118.935 167.889 119.001 167.966 119.133C168.043 119.254 168.186 119.617 168.394 120.221C168.471 120.441 168.598 120.65 168.774 120.848C169.18 121.298 169.823 121.524 170.703 121.524C170.571 121.106 170.356 120.749 170.06 120.452C169.774 120.144 169.488 119.847 169.202 119.562C168.916 119.276 168.664 118.974 168.444 118.655C168.224 118.325 168.114 117.94 168.114 117.501C168.114 116.709 168.411 116.067 169.004 115.572C169.565 115.132 170.213 114.912 170.95 114.912ZM170.884 117.962C171.323 117.49 171.543 117.111 171.543 116.825C171.543 116.693 171.494 116.578 171.395 116.479C171.307 116.369 171.175 116.314 170.999 116.314C170.823 116.314 170.653 116.336 170.488 116.38C170.334 116.424 170.208 116.457 170.109 116.479C170.109 116.896 170.367 117.391 170.884 117.962Z" fill="black"/>
<path d="M106.591 146.781C105.525 146.781 105.003 146.512 105.025 145.973C105.025 145.467 105.536 145.215 106.558 145.215C106.8 145.215 107.031 145.242 107.251 145.297C107.614 144.934 107.795 144.385 107.795 143.648C107.795 142.373 106.943 141.736 105.239 141.736C104.349 141.736 103.503 141.928 102.701 142.313C102.404 142.456 102.135 142.588 101.893 142.709C101.662 142.83 101.448 142.89 101.25 142.89C101.052 142.89 100.953 142.83 100.953 142.709C100.953 142.566 101.063 142.357 101.283 142.082C101.503 141.796 101.81 141.511 102.206 141.225C103.217 140.521 104.366 140.164 105.652 140.153C107.333 140.153 108.57 140.488 109.361 141.159C110.043 141.719 110.383 142.483 110.383 143.451C110.383 144.572 109.834 145.429 108.735 146.022C109.79 146.627 110.416 147.369 110.614 148.248C110.68 148.556 110.713 148.963 110.713 149.468C110.713 149.974 110.576 150.452 110.301 150.902C110.026 151.353 109.658 151.732 109.196 152.04C108.273 152.634 107.091 152.93 105.652 152.93C104.629 152.93 103.492 152.699 102.239 152.238C101.404 151.93 100.788 151.562 100.392 151.133C100.195 150.924 100.096 150.716 100.096 150.507C100.107 150.298 100.211 150.194 100.409 150.194C100.618 150.194 101.008 150.265 101.579 150.408V150.391C101.579 149.534 101.678 148.655 101.876 147.754C102.217 146.182 102.613 144.951 103.063 144.061C103.547 143.071 104.047 142.577 104.564 142.577C104.706 142.577 104.778 142.824 104.778 143.319C104.778 143.813 104.728 144.319 104.629 144.835C104.542 145.352 104.443 145.863 104.333 146.369C104.234 146.863 104.135 147.314 104.036 147.721C103.948 148.127 103.904 148.418 103.904 148.594L103.739 151.084C104.388 151.26 104.937 151.348 105.388 151.348C105.838 151.348 106.245 151.271 106.608 151.117C107.52 150.732 107.976 150.062 107.976 149.105C107.976 148.534 107.921 148.061 107.811 147.688C107.701 147.314 107.504 146.984 107.218 146.698C106.965 146.753 106.756 146.781 106.591 146.781ZM118.693 151.166C117.824 152.188 116.78 152.699 115.56 152.699C114.351 152.699 113.444 152.392 112.84 151.776C112.235 151.15 111.939 150.375 111.95 149.452C111.939 148.144 112.351 147.017 113.186 146.072C114.021 145.127 115.115 144.654 116.467 144.654C117.082 144.654 117.577 144.731 117.951 144.885C118.599 145.149 118.923 145.396 118.923 145.627C118.923 145.803 118.467 145.896 117.555 145.907C116.654 145.907 115.895 146.22 115.28 146.847C114.675 147.462 114.373 148.243 114.373 149.188C114.373 149.682 114.516 150.1 114.802 150.441C115.099 150.771 115.511 150.935 116.038 150.935C116.577 150.935 117.022 150.825 117.374 150.606C116.593 150.078 116.203 149.314 116.203 148.314C116.192 147.786 116.379 147.308 116.764 146.88C117.159 146.44 117.659 146.22 118.264 146.22C118.879 146.209 119.319 146.374 119.583 146.715C119.847 147.056 119.979 147.495 119.979 148.034C119.979 148.561 119.852 149.122 119.599 149.715H119.698C120.182 149.704 120.6 149.534 120.951 149.204C121.083 149.072 121.193 148.957 121.281 148.858C121.38 148.759 121.479 148.71 121.578 148.71C121.732 148.71 121.809 148.891 121.809 149.254C121.809 149.924 121.611 150.43 121.215 150.771C120.819 151.1 120.38 151.265 119.896 151.265C119.423 151.265 119.022 151.232 118.693 151.166ZM118.544 149.254C118.731 148.858 118.824 148.473 118.824 148.1C118.824 147.726 118.704 147.539 118.462 147.539C118.363 147.539 118.28 147.611 118.214 147.754C118.149 147.896 118.116 148.034 118.116 148.166C118.116 148.605 118.258 148.968 118.544 149.254ZM127.644 151.166C126.776 152.188 125.732 152.699 124.512 152.699C123.303 152.699 122.396 152.392 121.792 151.776C121.187 151.15 120.89 150.375 120.901 149.452C120.89 148.144 121.302 147.017 122.138 146.072C122.973 145.127 124.067 144.654 125.419 144.654C126.034 144.654 126.529 144.731 126.902 144.885C127.551 145.149 127.875 145.396 127.875 145.627C127.875 145.803 127.419 145.896 126.507 145.907C125.605 145.907 124.847 146.22 124.232 146.847C123.627 147.462 123.325 148.243 123.325 149.188C123.325 149.682 123.468 150.1 123.753 150.441C124.05 150.771 124.462 150.935 124.99 150.935C125.528 150.935 125.974 150.825 126.325 150.606C125.545 150.078 125.155 149.314 125.155 148.314C125.144 147.786 125.331 147.308 125.715 146.88C126.111 146.44 126.611 146.22 127.216 146.22C127.831 146.209 128.271 146.374 128.534 146.715C128.798 147.056 128.93 147.495 128.93 148.034C128.93 148.561 128.804 149.122 128.551 149.715H128.65C129.133 149.704 129.551 149.534 129.903 149.204C130.035 149.072 130.145 148.957 130.233 148.858C130.332 148.759 130.43 148.71 130.529 148.71C130.683 148.71 130.76 148.891 130.76 149.254C130.76 149.924 130.562 150.43 130.167 150.771C129.771 151.1 129.331 151.265 128.848 151.265C128.375 151.265 127.974 151.232 127.644 151.166ZM127.496 149.254C127.683 148.858 127.776 148.473 127.776 148.1C127.776 147.726 127.655 147.539 127.413 147.539C127.314 147.539 127.232 147.611 127.166 147.754C127.1 147.896 127.067 148.034 127.067 148.166C127.067 148.605 127.21 148.968 127.496 149.254ZM130.661 151.677C130.54 151.381 130.452 151.04 130.397 150.655C130.342 150.259 130.315 149.71 130.315 149.006C130.315 148.303 130.446 147.352 130.71 146.154H129.968C129.836 146.154 129.77 146.099 129.77 145.989C129.77 145.726 129.792 145.511 129.836 145.346C129.891 145.171 130.012 144.973 130.199 144.753H130.595C130.749 144.753 130.914 144.747 131.089 144.736C131.617 143.044 132.155 142.198 132.705 142.198C133.145 142.209 133.452 142.489 133.628 143.038C133.672 143.192 133.722 143.357 133.777 143.533L133.101 144.72C133.87 144.742 134.354 144.753 134.552 144.753C134.76 144.753 134.87 144.775 134.881 144.819C134.903 144.852 134.914 144.907 134.914 144.984C134.914 145.182 134.865 145.429 134.766 145.726C134.678 146.022 134.574 146.165 134.453 146.154L132.804 146.072C132.573 147.413 132.458 148.523 132.458 149.402C132.458 150.281 132.584 150.721 132.837 150.721C133.046 150.721 133.425 150.551 133.975 150.21C134.524 149.858 134.92 149.523 135.162 149.204C135.403 148.886 135.601 148.726 135.755 148.726C135.909 148.726 135.986 148.913 135.986 149.287C135.986 149.66 135.854 150.045 135.59 150.441C135.326 150.825 134.991 151.183 134.585 151.512C134.189 151.831 133.744 152.095 133.249 152.304C132.765 152.513 132.342 152.617 131.98 152.617C131.617 152.617 131.337 152.535 131.139 152.37C130.952 152.194 130.793 151.963 130.661 151.677ZM138.927 144.588C139.663 144.577 140.213 144.715 140.575 145C140.938 145.275 141.119 145.676 141.119 146.204C141.119 146.72 140.96 147.165 140.641 147.539C140.334 147.902 139.954 148.16 139.504 148.314C139.823 148.644 140.108 148.979 140.361 149.32C140.625 149.66 140.757 150.018 140.757 150.391C140.757 151.128 140.466 151.699 139.883 152.106C139.3 152.502 138.487 152.699 137.443 152.699C136.41 152.699 135.635 152.496 135.118 152.089C134.602 151.672 134.344 151.205 134.344 150.688C134.344 150.161 134.47 149.682 134.723 149.254C134.986 148.825 135.267 148.611 135.564 148.611C135.739 148.611 135.866 148.677 135.943 148.809C136.02 148.93 136.163 149.292 136.371 149.897C136.448 150.117 136.575 150.325 136.751 150.523C137.157 150.974 137.8 151.199 138.679 151.199C138.548 150.782 138.333 150.424 138.036 150.128C137.751 149.82 137.465 149.523 137.179 149.237C136.893 148.952 136.641 148.649 136.421 148.331C136.201 148.001 136.091 147.616 136.091 147.176C136.091 146.385 136.388 145.742 136.981 145.248C137.542 144.808 138.19 144.588 138.927 144.588ZM138.861 147.638C139.3 147.165 139.52 146.786 139.52 146.501C139.52 146.369 139.471 146.253 139.372 146.154C139.284 146.044 139.152 145.989 138.976 145.989C138.8 145.989 138.63 146.011 138.465 146.055C138.311 146.099 138.185 146.132 138.086 146.154C138.086 146.572 138.344 147.067 138.861 147.638ZM142.51 151.677C142.389 151.381 142.302 151.04 142.247 150.655C142.192 150.259 142.164 149.71 142.164 149.006C142.164 148.303 142.296 147.352 142.56 146.154H141.818C141.686 146.154 141.62 146.099 141.62 145.989C141.62 145.726 141.642 145.511 141.686 145.346C141.741 145.171 141.862 144.973 142.049 144.753H142.444C142.598 144.753 142.763 144.747 142.939 144.736C143.467 143.044 144.005 142.198 144.555 142.198C144.994 142.209 145.302 142.489 145.478 143.038C145.522 143.192 145.571 143.357 145.626 143.533L144.95 144.72C145.72 144.742 146.203 144.753 146.401 144.753C146.61 144.753 146.72 144.775 146.731 144.819C146.753 144.852 146.764 144.907 146.764 144.984C146.764 145.182 146.714 145.429 146.616 145.726C146.528 146.022 146.423 146.165 146.302 146.154L144.654 146.072C144.423 147.413 144.307 148.523 144.307 149.402C144.307 150.281 144.434 150.721 144.687 150.721C144.895 150.721 145.275 150.551 145.824 150.21C146.374 149.858 146.769 149.523 147.011 149.204C147.253 148.886 147.451 148.726 147.605 148.726C147.759 148.726 147.836 148.913 147.836 149.287C147.836 149.66 147.704 150.045 147.44 150.441C147.176 150.825 146.841 151.183 146.434 151.512C146.038 151.831 145.593 152.095 145.099 152.304C144.615 152.513 144.192 152.617 143.829 152.617C143.467 152.617 143.186 152.535 142.988 152.37C142.802 152.194 142.642 151.963 142.51 151.677ZM149.425 149.798L149.523 151.809C149.523 152.073 149.386 152.309 149.111 152.518C148.837 152.727 148.463 152.831 147.99 152.831C147.715 152.831 147.523 152.688 147.413 152.403C147.314 152.117 147.265 151.699 147.265 151.15C147.265 149.996 147.32 149.094 147.43 148.446C147.551 147.786 147.781 147.122 148.122 146.451C147.617 145.967 147.364 145.55 147.364 145.198C147.364 144.462 147.759 144.094 148.551 144.094C148.957 144.094 149.315 144.308 149.622 144.736C149.842 145.033 150.002 145.379 150.1 145.775C150.254 145.83 150.447 145.858 150.678 145.858C150.996 145.858 151.364 145.753 151.782 145.544L152.211 145.33C152.343 145.264 152.458 145.231 152.557 145.231C152.876 145.231 153.194 145.698 153.513 146.632C153.414 147.061 153.304 147.473 153.183 147.869C153.074 148.265 152.942 148.743 152.788 149.303C152.634 149.864 152.551 150.243 152.54 150.441C152.54 150.628 152.601 150.721 152.722 150.721C152.887 150.721 153.09 150.617 153.332 150.408C153.574 150.199 153.815 149.974 154.057 149.732C154.299 149.479 154.519 149.248 154.717 149.039C154.926 148.831 155.068 148.726 155.145 148.726C155.299 148.726 155.376 148.913 155.376 149.287C155.376 150.045 155.041 150.793 154.37 151.529C153.711 152.265 152.953 152.628 152.095 152.617C151.59 152.617 151.211 152.414 150.958 152.007C150.705 151.6 150.573 151.106 150.562 150.523C150.562 149.369 150.82 148.276 151.337 147.242C151.095 147.341 150.82 147.391 150.513 147.391C150.216 147.391 150.002 147.38 149.87 147.358C149.771 147.775 149.672 148.199 149.573 148.627C149.474 149.045 149.425 149.435 149.425 149.798ZM164.675 148.677C164.873 148.677 164.972 148.93 164.972 149.435C164.972 149.71 164.856 150.045 164.626 150.441C164.395 150.825 164.093 151.183 163.719 151.512C163.356 151.831 162.949 152.095 162.499 152.304C162.048 152.513 161.609 152.617 161.18 152.617C160.597 152.617 160.207 152.106 160.009 151.084C159.724 151.556 159.35 151.947 158.888 152.254C158.427 152.551 157.806 152.699 157.025 152.699C156.256 152.699 155.635 152.458 155.162 151.974C154.69 151.49 154.459 150.902 154.47 150.21C154.47 148.342 155.091 146.869 156.333 145.792C156.86 145.341 157.35 145.044 157.8 144.901C158.262 144.758 158.745 144.687 159.251 144.687C159.757 144.687 160.169 144.775 160.487 144.951C160.641 144.632 160.817 144.473 161.015 144.473C161.4 144.473 161.762 144.643 162.103 144.984C162.455 145.314 162.631 145.627 162.631 145.924C162.477 146.286 162.252 146.72 161.955 147.226C161.867 147.732 161.823 148.44 161.823 149.353C161.823 150.265 161.938 150.721 162.169 150.721C162.455 150.721 163.147 150.15 164.246 149.006C164.444 148.787 164.587 148.677 164.675 148.677ZM156.893 149.666C156.893 150.512 157.207 150.935 157.833 150.935C158.504 150.924 159.059 150.567 159.498 149.864C159.652 149.622 159.779 149.325 159.877 148.974C159.877 147.743 159.987 146.687 160.207 145.808C159.317 145.984 158.542 146.413 157.883 147.094C157.223 147.775 156.893 148.633 156.893 149.666ZM167.264 145.66C167.835 145.011 168.566 144.687 169.457 144.687C170.732 144.687 171.539 145.204 171.88 146.237C171.979 146.545 172.029 146.885 172.029 147.259C172.029 148.094 171.754 148.919 171.204 149.732C170.666 150.545 170.012 151.095 169.242 151.381H169.44C170.243 151.381 171.056 151.084 171.88 150.49C172.408 150.117 172.82 149.732 173.117 149.336C173.424 148.93 173.655 148.726 173.809 148.726C173.963 148.726 174.04 148.902 174.04 149.254C174.04 149.869 173.776 150.49 173.249 151.117C172.457 152.018 171.446 152.546 170.215 152.699C169.325 152.798 168.693 152.815 168.319 152.749C167.945 152.683 167.66 152.601 167.462 152.502C167.033 152.282 166.819 151.952 166.819 151.512C166.819 151.271 166.868 151.051 166.967 150.853C167.835 150.853 168.495 150.523 168.946 149.864C169.396 149.204 169.622 148.38 169.622 147.391C169.622 147.149 169.534 146.935 169.358 146.748C169.182 146.55 168.946 146.451 168.649 146.451C168.363 146.451 168.05 146.577 167.709 146.83C167.368 147.083 167.094 147.402 166.885 147.786C166.687 148.16 166.506 148.534 166.341 148.908C166.176 149.27 166.044 149.732 165.945 150.292C165.769 151.304 165.566 152.579 165.335 154.117C165.115 155.667 164.978 156.497 164.923 156.607C164.868 156.728 164.785 156.838 164.676 156.936C164.566 157.035 164.45 157.085 164.329 157.085C164.11 157.085 163.928 157.019 163.785 156.887C163.39 156.546 163.159 156.283 163.093 156.096C163.027 155.92 162.994 155.689 162.994 155.403C162.994 154.326 163.175 152.815 163.538 150.869C163.901 148.924 164.527 146.902 165.417 144.802C165.549 144.495 165.78 144.341 166.11 144.341C166.451 144.341 166.775 144.638 167.083 145.231C167.171 145.385 167.231 145.528 167.264 145.66Z" fill="black"/>
<path d="M54.0489 5.13055C54.6589 5.52623 54.9639 5.99334 54.9639 6.5319C54.9639 7.09794 54.7688 7.57605 54.3786 7.96623C53.9555 8.37289 53.4087 8.57897 52.7382 8.58447C52.1722 8.58996 51.7106 8.44708 51.3534 8.15582C50.9962 7.86456 50.8176 7.5046 50.8176 7.07595C50.8176 6.33956 51.1418 5.79001 51.7903 5.42731C51.9771 5.32839 52.1694 5.23771 52.3673 5.15528C52.0101 4.94095 51.7738 4.76785 51.6584 4.63595C51.4221 4.36668 51.3039 4.08366 51.3039 3.7869C51.3039 3.25384 51.4605 2.85267 51.7738 2.58339C52.0925 2.30861 52.5239 2.17123 53.068 2.17123C53.4472 2.16573 53.7851 2.27839 54.0819 2.5092C54.3786 2.72902 54.5243 2.96807 54.5188 3.22636C54.5188 3.27582 54.4968 3.30055 54.4528 3.30055C54.3264 3.30055 54.1204 3.24559 53.8346 3.13568C53.5543 3.02577 53.2905 2.97082 53.0432 2.97082C52.8014 2.96532 52.6118 3.02028 52.4744 3.13568C52.3371 3.25109 52.2684 3.38848 52.2684 3.54785C52.2684 3.82262 52.3755 4.05618 52.5899 4.24852C52.7327 4.37492 52.9828 4.53429 53.34 4.72663C53.5323 4.62222 53.6862 4.50132 53.8016 4.36393C53.9225 4.22654 53.983 4.04519 53.983 3.81987C53.983 3.75393 53.9637 3.69073 53.9253 3.63028C53.8923 3.56983 53.8758 3.51213 53.8758 3.45717C53.8758 3.40222 53.895 3.37474 53.9335 3.37474C54.0654 3.37474 54.1945 3.44618 54.3209 3.58906C54.4473 3.73195 54.5105 3.91605 54.5105 4.14136C54.5105 4.581 54.3567 4.91073 54.0489 5.13055ZM52.8207 7.52933C53.057 7.52933 53.2521 7.45789 53.4059 7.31501C53.5653 7.16663 53.645 6.9633 53.645 6.70501C53.645 6.25987 53.4554 5.89168 53.0762 5.60041C52.763 5.7433 52.5486 5.88068 52.4332 6.01258C52.2134 6.25987 52.1035 6.56762 52.1035 6.93582C52.1035 7.10618 52.164 7.24906 52.2849 7.36447C52.4113 7.47438 52.5899 7.52933 52.8207 7.52933ZM60.2935 3.02028C60.2935 3.08073 60.2248 3.11095 60.0874 3.11095C59.95 3.11095 59.8374 3.10271 59.7494 3.08623C59.667 3.06974 59.5296 3.04501 59.3373 3.01204C59.1449 2.97906 58.9279 2.96258 58.6861 2.96258C58.4497 2.96258 58.2272 3.04501 58.0184 3.20987C57.815 3.36924 57.6419 3.57532 57.499 3.82812C57.2133 4.3392 57.0731 4.92996 57.0786 5.60041C57.0841 6.17195 57.2078 6.60609 57.4496 6.90285C57.6914 7.19411 57.9964 7.33974 58.3646 7.33974C58.5844 7.33974 58.807 7.28478 59.0323 7.17487C59.2631 7.06496 59.4719 6.90559 59.6588 6.69677C60.0764 6.22415 60.2825 5.63339 60.277 4.92447C60.2825 4.47933 60.1479 4.13037 59.8731 3.87758C59.7742 3.77866 59.6807 3.69623 59.5928 3.63028C59.5049 3.56433 59.4609 3.47915 59.4609 3.37474C59.4609 3.31429 59.5214 3.28406 59.6423 3.28406C59.95 3.28406 60.2303 3.39947 60.4831 3.63028C60.8238 3.94352 60.9942 4.39415 60.9942 4.98217C60.9942 6.08127 60.7111 6.93307 60.1451 7.53758C59.5791 8.13659 58.8729 8.43609 58.0266 8.43609C57.3891 8.43609 56.867 8.23001 56.4604 7.81785C56.0097 7.35623 55.7844 6.7215 55.7844 5.91366C55.7844 5.32564 55.9053 4.75136 56.1471 4.19082C56.5428 3.25659 57.1308 2.63559 57.9112 2.32785C58.186 2.21794 58.4662 2.16298 58.752 2.16298C59.2521 2.16848 59.634 2.2619 59.8978 2.44325C60.1671 2.61911 60.299 2.81145 60.2935 3.02028ZM63.7839 2.60812L63.281 2.5669C63.0997 2.5669 62.9595 2.66307 62.8606 2.85541C62.7727 3.02028 62.726 3.21262 62.7205 3.43244C62.7205 3.65226 62.7589 3.80888 62.8359 3.90231C62.9183 3.99023 63.0035 4.0342 63.0914 4.0342C63.2618 4.0342 63.4157 3.96001 63.553 3.81163C63.6904 3.65776 63.7591 3.45717 63.7591 3.20987C63.7591 3.13843 63.7481 3.06974 63.7262 3.00379C63.7042 2.93785 63.6932 2.8774 63.6932 2.82244C63.6932 2.72352 63.7454 2.67406 63.8498 2.67406C63.9542 2.67406 64.0367 2.72902 64.0971 2.83893C64.1576 2.94334 64.1878 3.09447 64.1878 3.29231C64.1878 3.69897 64.0696 4.02046 63.8333 4.25677C63.6135 4.48758 63.336 4.60298 63.0007 4.60298C62.5886 4.60298 62.3056 4.41613 62.1517 4.04244C62.0967 3.91055 62.0693 3.75668 62.0693 3.58082C62.0693 3.21262 62.1819 2.87465 62.4072 2.5669C62.6326 2.25915 62.9238 2.10528 63.281 2.10528C63.4953 2.10528 63.6547 2.1465 63.7591 2.22893C63.869 2.30586 63.924 2.39654 63.924 2.50095C63.924 2.5724 63.8773 2.60812 63.7839 2.60812ZM65.6633 2.25366C65.6798 2.20969 65.7073 2.18771 65.7457 2.18771C65.8227 2.18771 65.9161 2.26465 66.026 2.41852C66.1359 2.5724 66.1881 2.70978 66.1826 2.83068C66.1826 2.95159 66.1552 3.07249 66.1002 3.19339C66.0507 3.30879 65.9793 3.44068 65.8859 3.58906C65.798 3.73195 65.6963 3.88857 65.5809 4.05893C65.0368 4.86127 64.4873 5.74879 63.9322 6.7215C63.3772 7.6942 63.031 8.38663 62.8936 8.79879C62.8826 8.81528 62.8551 8.82352 62.8112 8.82352C62.7232 8.82352 62.6298 8.75208 62.5309 8.6092C62.432 8.46632 62.3825 8.35366 62.3825 8.27123C62.3825 8.18879 62.3907 8.12285 62.4072 8.07339L65.6633 2.25366ZM66.2074 6.48244L65.7045 6.44123C65.5232 6.44123 65.383 6.5374 65.2841 6.72974C65.1962 6.8946 65.1495 7.08695 65.144 7.30677C65.144 7.52659 65.1825 7.68321 65.2594 7.77663C65.3418 7.86456 65.427 7.90852 65.5149 7.90852C65.6853 7.90852 65.8392 7.83433 65.9766 7.68595C66.1139 7.53208 66.1826 7.3315 66.1826 7.0842C66.1826 7.01276 66.1717 6.94406 66.1497 6.87812C66.1277 6.81217 66.1167 6.75172 66.1167 6.69677C66.1167 6.59785 66.1689 6.54839 66.2733 6.54839C66.3777 6.54839 66.4602 6.60334 66.5206 6.71325C66.5811 6.81767 66.6113 6.96879 66.6113 7.16663C66.6113 7.5733 66.4931 7.89478 66.2568 8.13109C66.037 8.3619 65.7595 8.47731 65.4243 8.47731C65.0121 8.47731 64.7291 8.29046 64.5752 7.91677C64.5203 7.78487 64.4928 7.631 64.4928 7.45514C64.4928 7.08695 64.6054 6.74897 64.8307 6.44123C65.0561 6.13348 65.3473 5.9796 65.7045 5.9796C65.9189 5.9796 66.0782 6.02082 66.1826 6.10325C66.2926 6.18019 66.3475 6.27086 66.3475 6.37528C66.3475 6.44672 66.3008 6.48244 66.2074 6.48244Z" fill="black" fill-opacity="0.6"/>
<path d="M26.0054 6.30109C26.0054 6.15821 26.1538 6.01258 26.4505 5.8642C26.456 5.44104 26.5275 5.00965 26.6648 4.57001C26.8022 4.13037 27.0001 3.73469 27.2584 3.38298C27.5167 3.02577 27.8299 2.73451 28.1981 2.5092C28.5718 2.28388 28.9922 2.17123 29.4593 2.17123C29.9264 2.17123 30.2946 2.2619 30.5639 2.44325C30.8332 2.61911 30.9651 2.81145 30.9596 3.02028C30.9596 3.13019 30.9156 3.18514 30.8277 3.18514C30.7782 3.18514 30.6106 3.14668 30.3248 3.06974C30.0391 2.9928 29.7561 2.95708 29.4758 2.96258C29.201 2.96258 28.9702 3.02303 28.7834 3.14393C28.602 3.25933 28.4426 3.41046 28.3053 3.59731C28.025 3.98749 27.8436 4.4546 27.7612 4.99866C28.2503 4.77884 28.7751 4.66893 29.3357 4.66893C29.8962 4.66893 30.3441 4.84204 30.6793 5.18825C31.02 5.53447 31.1904 5.94388 31.1904 6.4165C31.1904 7.03749 30.9486 7.53208 30.465 7.90028C29.9814 8.26848 29.3686 8.45258 28.6267 8.45258C28.0772 8.45807 27.5991 8.28771 27.1924 7.9415C26.7857 7.58978 26.5439 7.05397 26.467 6.33406C26.3461 6.38902 26.2389 6.4165 26.1455 6.4165C26.0521 6.4165 26.0054 6.37803 26.0054 6.30109ZM30.0858 6.40825C30.0858 6.12798 29.9951 5.89442 29.8138 5.70758C29.6324 5.52073 29.3412 5.42731 28.94 5.42731C28.5388 5.42731 28.1294 5.53172 27.7117 5.74055C27.7337 6.26812 27.8574 6.68028 28.0827 6.97704C28.3135 7.2683 28.5993 7.41668 28.94 7.42217C29.2807 7.42217 29.5555 7.32325 29.7643 7.12541C29.9786 6.92208 30.0858 6.68303 30.0858 6.40825ZM33.0028 5.53447C32.761 5.45753 32.6154 5.33663 32.5659 5.17177C32.6209 4.69366 32.7363 4.16609 32.9121 3.58906C32.9671 3.40222 33.033 3.22911 33.11 3.06974C32.9341 3.08622 32.7995 3.09447 32.7061 3.09447C32.6126 3.09447 32.5659 3.06699 32.5659 3.01204C32.5659 2.91312 32.6209 2.8087 32.7308 2.69879C32.8407 2.58339 32.9946 2.47622 33.1924 2.37731C33.643 2.15749 34.1926 2.05032 34.8411 2.05582L36.5062 2.08055C36.5941 2.08055 36.6381 2.13276 36.6381 2.23717C36.6381 2.27014 36.6243 2.32785 36.5969 2.41028C36.5694 2.49271 36.5447 2.57789 36.5227 2.66582C36.4787 2.84717 36.3853 2.93785 36.2424 2.93785L34.9894 2.88014C34.7476 2.88014 34.4069 2.90762 33.9673 2.96258C33.9123 3.19339 33.8436 3.44618 33.7612 3.72096C33.6788 3.99573 33.5936 4.30622 33.5056 4.65244C33.6265 4.63046 33.7942 4.61947 34.0085 4.61947C34.2283 4.61947 34.4674 4.65519 34.7256 4.72663C34.9894 4.79258 35.2202 4.90249 35.4181 5.05636C35.8522 5.39159 36.0693 5.89168 36.0693 6.55663C36.0693 7.21609 35.844 7.71618 35.3933 8.0569C34.9427 8.39213 34.352 8.55974 33.6211 8.55974C33.11 8.55974 32.6566 8.41136 32.2609 8.1146C32.0906 7.98271 31.9587 7.83983 31.8652 7.68595C31.7718 7.53208 31.7251 7.39744 31.7251 7.28204C31.7251 7.16114 31.7801 7.10068 31.89 7.10068C31.9999 7.10068 32.107 7.13641 32.2115 7.20785C32.3159 7.27379 32.4285 7.35073 32.5494 7.43866C32.8572 7.65848 33.1539 7.76839 33.4397 7.76839C33.8683 7.76839 34.1843 7.66397 34.3877 7.45514C34.5965 7.24632 34.7009 6.97978 34.7009 6.65555C34.7009 5.82023 34.3382 5.40258 33.6128 5.40258L33.3078 5.41082C33.2474 5.49325 33.1457 5.53447 33.0028 5.53447ZM39.0944 2.60812L38.5915 2.5669C38.4102 2.5669 38.27 2.66307 38.1711 2.85541C38.0832 3.02028 38.0365 3.21262 38.031 3.43244C38.031 3.65226 38.0695 3.80888 38.1464 3.90231C38.2288 3.99023 38.314 4.0342 38.4019 4.0342C38.5723 4.0342 38.7262 3.96001 38.8636 3.81163C39.0009 3.65776 39.0696 3.45717 39.0696 3.20987C39.0696 3.13843 39.0587 3.06974 39.0367 3.00379C39.0147 2.93785 39.0037 2.8774 39.0037 2.82244C39.0037 2.72352 39.0559 2.67406 39.1603 2.67406C39.2647 2.67406 39.3472 2.72902 39.4076 2.83893C39.4681 2.94334 39.4983 3.09447 39.4983 3.29231C39.4983 3.69897 39.3801 4.02046 39.1438 4.25677C38.924 4.48758 38.6465 4.60298 38.3113 4.60298C37.8991 4.60298 37.6161 4.41613 37.4622 4.04244C37.4073 3.91055 37.3798 3.75668 37.3798 3.58082C37.3798 3.21262 37.4924 2.87465 37.7178 2.5669C37.9431 2.25915 38.2343 2.10528 38.5915 2.10528C38.8059 2.10528 38.9652 2.1465 39.0696 2.22893C39.1796 2.30586 39.2345 2.39654 39.2345 2.50095C39.2345 2.5724 39.1878 2.60812 39.0944 2.60812ZM40.9738 2.25366C40.9903 2.20969 41.0178 2.18771 41.0563 2.18771C41.1332 2.18771 41.2266 2.26465 41.3365 2.41852C41.4464 2.5724 41.4987 2.70978 41.4932 2.83068C41.4932 2.95159 41.4657 3.07249 41.4107 3.19339C41.3613 3.30879 41.2898 3.44068 41.1964 3.58906C41.1085 3.73195 41.0068 3.88857 40.8914 4.05893C40.3473 4.86127 39.7978 5.74879 39.2428 6.7215C38.6877 7.6942 38.3415 8.38663 38.2041 8.79879C38.1931 8.81528 38.1656 8.82352 38.1217 8.82352C38.0337 8.82352 37.9403 8.75208 37.8414 8.6092C37.7425 8.46632 37.693 8.35366 37.693 8.27123C37.693 8.18879 37.7013 8.12285 37.7178 8.07339L40.9738 2.25366ZM41.5179 6.48244L41.015 6.44123C40.8337 6.44123 40.6936 6.5374 40.5946 6.72974C40.5067 6.8946 40.46 7.08695 40.4545 7.30677C40.4545 7.52659 40.493 7.68321 40.5699 7.77663C40.6523 7.86456 40.7375 7.90852 40.8255 7.90852C40.9958 7.90852 41.1497 7.83433 41.2871 7.68595C41.4245 7.53208 41.4932 7.3315 41.4932 7.0842C41.4932 7.01276 41.4822 6.94406 41.4602 6.87812C41.4382 6.81217 41.4272 6.75172 41.4272 6.69677C41.4272 6.59785 41.4794 6.54839 41.5838 6.54839C41.6882 6.54839 41.7707 6.60334 41.8311 6.71325C41.8916 6.81767 41.9218 6.96879 41.9218 7.16663C41.9218 7.5733 41.8037 7.89478 41.5673 8.13109C41.3475 8.3619 41.07 8.47731 40.7348 8.47731C40.3226 8.47731 40.0396 8.29046 39.8857 7.91677C39.8308 7.78487 39.8033 7.631 39.8033 7.45514C39.8033 7.08695 39.9159 6.74897 40.1413 6.44123C40.3666 6.13348 40.6578 5.9796 41.015 5.9796C41.2294 5.9796 41.3887 6.02082 41.4932 6.10325C41.6031 6.18019 41.658 6.27086 41.658 6.37528C41.658 6.44672 41.6113 6.48244 41.5179 6.48244Z" fill="black" fill-opacity="0.6"/>
<path d="M2.38849 5.53447C2.14669 5.45753 2.00106 5.33663 1.9516 5.17177C2.00655 4.69366 2.12196 4.16609 2.29781 3.58906C2.35277 3.40222 2.41872 3.22911 2.49565 3.06974C2.3198 3.08622 2.18516 3.09447 2.09173 3.09447C1.99831 3.09447 1.9516 3.06699 1.9516 3.01204C1.9516 2.91312 2.00655 2.8087 2.11646 2.69879C2.22637 2.58339 2.38025 2.47622 2.57809 2.37731C3.02872 2.15749 3.57827 2.05032 4.22673 2.05582L5.89187 2.08055C5.9798 2.08055 6.02376 2.13276 6.02376 2.23717C6.02376 2.27014 6.01002 2.32785 5.98254 2.41028C5.95507 2.49271 5.93034 2.57789 5.90836 2.66582C5.86439 2.84717 5.77097 2.93785 5.62809 2.93785L4.37511 2.88014C4.13331 2.88014 3.79259 2.90762 3.35295 2.96258C3.298 3.19339 3.2293 3.44618 3.14687 3.72096C3.06444 3.99573 2.97926 4.30622 2.89133 4.65244C3.01223 4.63046 3.17984 4.61947 3.39417 4.61947C3.61399 4.61947 3.85304 4.65519 4.11133 4.72663C4.37511 4.79258 4.60592 4.90249 4.80376 5.05636C5.23791 5.39159 5.45498 5.89168 5.45498 6.55663C5.45498 7.21609 5.22966 7.71618 4.77903 8.0569C4.3284 8.39213 3.73763 8.55974 3.00673 8.55974C2.49565 8.55974 2.04227 8.41136 1.6466 8.1146C1.47624 7.98271 1.34435 7.83983 1.25092 7.68595C1.1575 7.53208 1.11079 7.39744 1.11079 7.28204C1.11079 7.16114 1.16574 7.10068 1.27565 7.10068C1.38556 7.10068 1.49272 7.13641 1.59714 7.20785C1.70155 7.27379 1.81421 7.35073 1.93511 7.43866C2.24286 7.65848 2.53962 7.76839 2.82538 7.76839C3.25403 7.76839 3.57002 7.66397 3.77336 7.45514C3.98218 7.24632 4.0866 6.97978 4.0866 6.65555C4.0866 5.82023 3.7239 5.40258 2.99849 5.40258L2.69349 5.41082C2.63304 5.49325 2.53137 5.53447 2.38849 5.53447ZM7.54857 5.53447C7.30677 5.45753 7.16114 5.33663 7.11168 5.17177C7.16663 4.69366 7.28204 4.16609 7.45789 3.58906C7.51285 3.40222 7.57879 3.22911 7.65573 3.06974C7.47987 3.08622 7.34523 3.09447 7.25181 3.09447C7.15839 3.09447 7.11168 3.06699 7.11168 3.01204C7.11168 2.91312 7.16663 2.8087 7.27654 2.69879C7.38645 2.58339 7.54032 2.47622 7.73816 2.37731C8.18879 2.15749 8.73834 2.05032 9.38681 2.05582L11.0519 2.08055C11.1399 2.08055 11.1838 2.13276 11.1838 2.23717C11.1838 2.27014 11.1701 2.32785 11.1426 2.41028C11.1151 2.49271 11.0904 2.57789 11.0684 2.66582C11.0245 2.84717 10.931 2.93785 10.7882 2.93785L9.53519 2.88014C9.29339 2.88014 8.95267 2.90762 8.51303 2.96258C8.45807 3.19339 8.38938 3.44618 8.30695 3.72096C8.22451 3.99573 8.13933 4.30622 8.05141 4.65244C8.17231 4.63046 8.33992 4.61947 8.55424 4.61947C8.77406 4.61947 9.01312 4.65519 9.27141 4.72663C9.53519 4.79258 9.766 4.90249 9.96384 5.05636C10.398 5.39159 10.6151 5.89168 10.6151 6.55663C10.6151 7.21609 10.3897 7.71618 9.93911 8.0569C9.48848 8.39213 8.89771 8.55974 8.16681 8.55974C7.65573 8.55974 7.20235 8.41136 6.80668 8.1146C6.63632 7.98271 6.50442 7.83983 6.411 7.68595C6.31758 7.53208 6.27086 7.39744 6.27086 7.28204C6.27086 7.16114 6.32582 7.10068 6.43573 7.10068C6.54564 7.10068 6.6528 7.13641 6.75722 7.20785C6.86163 7.27379 6.97429 7.35073 7.09519 7.43866C7.40294 7.65848 7.69969 7.76839 7.98546 7.76839C8.41411 7.76839 8.7301 7.66397 8.93343 7.45514C9.14226 7.24632 9.24668 6.97978 9.24668 6.65555C9.24668 5.82023 8.88397 5.40258 8.15857 5.40258L7.85357 5.41082C7.79312 5.49325 7.69145 5.53447 7.54857 5.53447ZM13.6401 2.60812L13.1373 2.5669C12.9559 2.5669 12.8158 2.66307 12.7169 2.85541C12.629 3.02028 12.5822 3.21262 12.5768 3.43244C12.5768 3.65226 12.6152 3.80888 12.6922 3.90231C12.7746 3.99023 12.8598 4.0342 12.9477 4.0342C13.1181 4.0342 13.2719 3.96001 13.4093 3.81163C13.5467 3.65776 13.6154 3.45717 13.6154 3.20987C13.6154 3.13843 13.6044 3.06974 13.5824 3.00379C13.5604 2.93785 13.5495 2.8774 13.5495 2.82244C13.5495 2.72352 13.6017 2.67406 13.7061 2.67406C13.8105 2.67406 13.8929 2.72902 13.9534 2.83893C14.0138 2.94334 14.0441 3.09447 14.0441 3.29231C14.0441 3.69897 13.9259 4.02046 13.6896 4.25677C13.4698 4.48758 13.1922 4.60298 12.857 4.60298C12.4449 4.60298 12.1618 4.41613 12.008 4.04244C11.953 3.91055 11.9255 3.75668 11.9255 3.58082C11.9255 3.21262 12.0382 2.87465 12.2635 2.5669C12.4888 2.25915 12.7801 2.10528 13.1373 2.10528C13.3516 2.10528 13.511 2.1465 13.6154 2.22893C13.7253 2.30586 13.7803 2.39654 13.7803 2.50095C13.7803 2.5724 13.7336 2.60812 13.6401 2.60812ZM15.5196 2.25366C15.5361 2.20969 15.5636 2.18771 15.602 2.18771C15.679 2.18771 15.7724 2.26465 15.8823 2.41852C15.9922 2.5724 16.0444 2.70978 16.0389 2.83068C16.0389 2.95159 16.0114 3.07249 15.9565 3.19339C15.907 3.30879 15.8356 3.44068 15.7422 3.58906C15.6542 3.73195 15.5526 3.88857 15.4372 4.05893C14.8931 4.86127 14.3436 5.74879 13.7885 6.7215C13.2335 7.6942 12.8872 8.38663 12.7499 8.79879C12.7389 8.81528 12.7114 8.82352 12.6674 8.82352C12.5795 8.82352 12.4861 8.75208 12.3872 8.6092C12.2882 8.46632 12.2388 8.35366 12.2388 8.27123C12.2388 8.18879 12.247 8.12285 12.2635 8.07339L15.5196 2.25366ZM16.0636 6.48244L15.5608 6.44123C15.3795 6.44123 15.2393 6.5374 15.1404 6.72974C15.0525 6.8946 15.0058 7.08695 15.0003 7.30677C15.0003 7.52659 15.0387 7.68321 15.1157 7.77663C15.1981 7.86456 15.2833 7.90852 15.3712 7.90852C15.5416 7.90852 15.6954 7.83433 15.8328 7.68595C15.9702 7.53208 16.0389 7.3315 16.0389 7.0842C16.0389 7.01276 16.0279 6.94406 16.0059 6.87812C15.984 6.81217 15.973 6.75172 15.973 6.69677C15.973 6.59785 16.0252 6.54839 16.1296 6.54839C16.234 6.54839 16.3164 6.60334 16.3769 6.71325C16.4373 6.81767 16.4676 6.96879 16.4676 7.16663C16.4676 7.5733 16.3494 7.89478 16.1131 8.13109C15.8933 8.3619 15.6158 8.47731 15.2805 8.47731C14.8684 8.47731 14.5854 8.29046 14.4315 7.91677C14.3765 7.78487 14.3491 7.631 14.3491 7.45514C14.3491 7.08695 14.4617 6.74897 14.687 6.44123C14.9123 6.13348 15.2036 5.9796 15.5608 5.9796C15.7751 5.9796 15.9345 6.02082 16.0389 6.10325C16.1488 6.18019 16.2038 6.27086 16.2038 6.37528C16.2038 6.44672 16.1571 6.48244 16.0636 6.48244Z" fill="black" fill-opacity="0.6"/>
<path d="M77.8307 4.7019C78.0066 4.71289 78.0945 4.76235 78.0945 4.85028C78.0945 4.89974 78.0807 4.96568 78.0533 5.04812C78.0258 5.13055 78.0011 5.21573 77.9791 5.30366C77.9351 5.48501 77.8389 5.57568 77.6906 5.57568C77.5422 5.57568 77.2619 5.56195 76.8498 5.53447C76.4816 6.77095 76.2975 7.65573 76.2975 8.18879C76.2975 8.34267 76.1875 8.4196 75.9677 8.4196C75.6215 8.4196 75.3852 8.35366 75.2588 8.22177C75.1324 8.08438 75.0692 7.84807 75.0692 7.51285C75.0692 7.17213 75.2396 6.52915 75.5803 5.58393C75.3 5.61141 75.028 5.64438 74.7642 5.68285C74.5004 5.71582 74.2889 5.73231 74.1295 5.73231C74.058 5.73231 74.0223 5.70483 74.0223 5.64987C74.0278 5.44654 74.2119 5.25969 74.5746 5.08933C74.9428 4.91897 75.388 4.79807 75.91 4.72663C76.0804 4.29249 76.3359 3.68523 76.6766 2.90487C76.5118 2.88839 76.3387 2.88014 76.1573 2.88014C75.8825 2.88014 75.4676 2.91586 74.9126 2.98731C74.3575 3.05875 74.0003 3.09447 73.841 3.09447C73.7695 3.09447 73.7338 3.06699 73.7338 3.01204C73.7338 2.91312 73.7888 2.8087 73.8987 2.69879C74.0086 2.58339 74.1625 2.47622 74.3603 2.37731C74.8109 2.15749 75.3605 2.05032 76.0089 2.05582L77.6741 2.08055C77.806 2.08055 77.8719 2.16848 77.8719 2.34433C77.8719 2.44875 77.8499 2.55866 77.806 2.67406C77.762 2.78947 77.7098 2.86641 77.6493 2.90487L77.0971 4.7019C77.3389 4.7019 77.5834 4.7019 77.8307 4.7019ZM79.8638 5.53447C79.622 5.45753 79.4763 5.33663 79.4269 5.17177C79.4818 4.69366 79.5972 4.16609 79.7731 3.58906C79.828 3.40222 79.894 3.22911 79.9709 3.06974C79.7951 3.08622 79.6604 3.09447 79.567 3.09447C79.4736 3.09447 79.4269 3.06699 79.4269 3.01204C79.4269 2.91312 79.4818 2.8087 79.5917 2.69879C79.7016 2.58339 79.8555 2.47622 80.0533 2.37731C80.504 2.15749 81.0535 2.05032 81.702 2.05582L83.3671 2.08055C83.4551 2.08055 83.499 2.13276 83.499 2.23717C83.499 2.27014 83.4853 2.32785 83.4578 2.41028C83.4303 2.49271 83.4056 2.57789 83.3836 2.66582C83.3397 2.84717 83.2462 2.93785 83.1033 2.93785L81.8504 2.88014C81.6086 2.88014 81.2679 2.90762 80.8282 2.96258C80.7733 3.19339 80.7046 3.44618 80.6221 3.72096C80.5397 3.99573 80.4545 4.30622 80.3666 4.65244C80.4875 4.63046 80.6551 4.61947 80.8694 4.61947C81.0893 4.61947 81.3283 4.65519 81.5866 4.72663C81.8504 4.79258 82.0812 4.90249 82.279 5.05636C82.7132 5.39159 82.9302 5.89168 82.9302 6.55663C82.9302 7.21609 82.7049 7.71618 82.2543 8.0569C81.8037 8.39213 81.2129 8.55974 80.482 8.55974C79.9709 8.55974 79.5175 8.41136 79.1219 8.1146C78.9515 7.98271 78.8196 7.83983 78.7262 7.68595C78.6328 7.53208 78.5861 7.39744 78.5861 7.28204C78.5861 7.16114 78.641 7.10068 78.7509 7.10068C78.8608 7.10068 78.968 7.13641 79.0724 7.20785C79.1768 7.27379 79.2895 7.35073 79.4104 7.43866C79.7181 7.65848 80.0149 7.76839 80.3006 7.76839C80.7293 7.76839 81.0453 7.66397 81.2486 7.45514C81.4574 7.24632 81.5619 6.97978 81.5619 6.65555C81.5619 5.82023 81.1992 5.40258 80.4738 5.40258L80.1688 5.41082C80.1083 5.49325 80.0066 5.53447 79.8638 5.53447ZM85.9553 2.60812L85.4525 2.5669C85.2711 2.5669 85.131 2.66307 85.0321 2.85541C84.9441 3.02028 84.8974 3.21262 84.8919 3.43244C84.8919 3.65226 84.9304 3.80888 85.0073 3.90231C85.0898 3.99023 85.175 4.0342 85.2629 4.0342C85.4332 4.0342 85.5871 3.96001 85.7245 3.81163C85.8619 3.65776 85.9306 3.45717 85.9306 3.20987C85.9306 3.13843 85.9196 3.06974 85.8976 3.00379C85.8756 2.93785 85.8646 2.8774 85.8646 2.82244C85.8646 2.72352 85.9169 2.67406 86.0213 2.67406C86.1257 2.67406 86.2081 2.72902 86.2686 2.83893C86.329 2.94334 86.3592 3.09447 86.3592 3.29231C86.3592 3.69897 86.2411 4.02046 86.0048 4.25677C85.785 4.48758 85.5074 4.60298 85.1722 4.60298C84.76 4.60298 84.477 4.41613 84.3232 4.04244C84.2682 3.91055 84.2407 3.75668 84.2407 3.58082C84.2407 3.21262 84.3534 2.87465 84.5787 2.5669C84.804 2.25915 85.0953 2.10528 85.4525 2.10528C85.6668 2.10528 85.8262 2.1465 85.9306 2.22893C86.0405 2.30586 86.0955 2.39654 86.0955 2.50095C86.0955 2.5724 86.0487 2.60812 85.9553 2.60812ZM87.8348 2.25366C87.8513 2.20969 87.8787 2.18771 87.9172 2.18771C87.9941 2.18771 88.0876 2.26465 88.1975 2.41852C88.3074 2.5724 88.3596 2.70978 88.3541 2.83068C88.3541 2.95159 88.3266 3.07249 88.2717 3.19339C88.2222 3.30879 88.1508 3.44068 88.0573 3.58906C87.9694 3.73195 87.8678 3.88857 87.7523 4.05893C87.2083 4.86127 86.6587 5.74879 86.1037 6.7215C85.5487 7.6942 85.2024 8.38663 85.065 8.79879C85.0541 8.81528 85.0266 8.82352 84.9826 8.82352C84.8947 8.82352 84.8013 8.75208 84.7023 8.6092C84.6034 8.46632 84.554 8.35366 84.554 8.27123C84.554 8.18879 84.5622 8.12285 84.5787 8.07339L87.8348 2.25366ZM88.3788 6.48244L87.876 6.44123C87.6946 6.44123 87.5545 6.5374 87.4556 6.72974C87.3677 6.8946 87.3209 7.08695 87.3155 7.30677C87.3155 7.52659 87.3539 7.68321 87.4309 7.77663C87.5133 7.86456 87.5985 7.90852 87.6864 7.90852C87.8568 7.90852 88.0106 7.83433 88.148 7.68595C88.2854 7.53208 88.3541 7.3315 88.3541 7.0842C88.3541 7.01276 88.3431 6.94406 88.3211 6.87812C88.2991 6.81217 88.2882 6.75172 88.2882 6.69677C88.2882 6.59785 88.3404 6.54839 88.4448 6.54839C88.5492 6.54839 88.6316 6.60334 88.6921 6.71325C88.7525 6.81767 88.7828 6.96879 88.7828 7.16663C88.7828 7.5733 88.6646 7.89478 88.4283 8.13109C88.2085 8.3619 87.9309 8.47731 87.5957 8.47731C87.1836 8.47731 86.9005 8.29046 86.7467 7.91677C86.6917 7.78487 86.6642 7.631 86.6642 7.45514C86.6642 7.08695 86.7769 6.74897 87.0022 6.44123C87.2275 6.13348 87.5188 5.9796 87.876 5.9796C88.0903 5.9796 88.2497 6.02082 88.3541 6.10325C88.464 6.18019 88.519 6.27086 88.519 6.37528C88.519 6.44672 88.4723 6.48244 88.3788 6.48244Z" fill="black" fill-opacity="0.6"/>
<path d="M97.3507 3.93528C97.3012 3.93528 97.2765 3.86659 97.2765 3.7292C97.2765 3.47091 97.3754 3.23735 97.5732 3.02852C97.7711 2.8142 98.0074 2.66857 98.2822 2.59163C98.3866 2.55866 98.5075 2.52019 98.6449 2.47623C98.7823 2.43226 98.9691 2.37456 99.2054 2.30312C99.4472 2.23168 99.656 2.1987 99.8319 2.2042C99.9143 2.2042 99.994 2.29762 100.071 2.48447C100.093 2.53942 100.104 2.62735 100.104 2.74825C100.104 2.86366 100.063 3.09996 99.9803 3.45717C99.9033 3.81438 99.8154 4.2183 99.7165 4.66893C99.4362 5.89992 99.2713 6.84514 99.2219 7.5046C99.5406 7.5046 99.8594 7.5046 100.178 7.5046C100.398 7.51559 100.508 7.5733 100.508 7.67771C100.508 7.71068 100.491 7.76839 100.458 7.85082C100.425 7.93325 100.395 8.01843 100.368 8.10636C100.313 8.28771 100.197 8.37839 100.021 8.37839L98.2986 8.32068C97.9469 8.32068 97.6282 8.34541 97.3424 8.39487C97.0622 8.44433 96.8588 8.48005 96.7324 8.50204C96.6115 8.52402 96.5126 8.53501 96.4357 8.53501C96.3587 8.53501 96.3203 8.50753 96.3203 8.45258C96.3203 8.24924 96.4796 8.04591 96.7984 7.84258C97.1171 7.63924 97.51 7.52659 97.9772 7.5046V7.37271C97.9772 6.81217 98.153 5.90541 98.5047 4.65244C98.6586 4.10289 98.8042 3.64402 98.9416 3.27582L98.6449 3.35001C98.447 3.40496 98.2382 3.49564 98.0184 3.62204C97.7986 3.74294 97.6474 3.82537 97.565 3.86933C97.4826 3.9133 97.4111 3.93528 97.3507 3.93528ZM105.844 3.02028C105.844 3.08073 105.775 3.11095 105.638 3.11095C105.5 3.11095 105.388 3.10271 105.3 3.08623C105.217 3.06974 105.08 3.04501 104.888 3.01204C104.695 2.97906 104.478 2.96258 104.236 2.96258C104 2.96258 103.778 3.04501 103.569 3.20987C103.365 3.36924 103.192 3.57532 103.049 3.82812C102.764 4.3392 102.623 4.92996 102.629 5.60041C102.634 6.17195 102.758 6.60609 103 6.90285C103.242 7.19411 103.547 7.33974 103.915 7.33974C104.135 7.33974 104.357 7.28478 104.583 7.17487C104.813 7.06496 105.022 6.90559 105.209 6.69677C105.627 6.22415 105.833 5.63339 105.827 4.92447C105.833 4.47933 105.698 4.13037 105.423 3.87758C105.325 3.77866 105.231 3.69623 105.143 3.63028C105.055 3.56433 105.011 3.47915 105.011 3.37474C105.011 3.31429 105.072 3.28406 105.193 3.28406C105.5 3.28406 105.781 3.39947 106.033 3.63028C106.374 3.94352 106.545 4.39415 106.545 4.98217C106.545 6.08127 106.262 6.93307 105.695 7.53758C105.129 8.13659 104.423 8.43609 103.577 8.43609C102.939 8.43609 102.417 8.23001 102.011 7.81785C101.56 7.35623 101.335 6.7215 101.335 5.91366C101.335 5.32564 101.456 4.75136 101.698 4.19082C102.093 3.25659 102.681 2.63559 103.462 2.32785C103.736 2.21794 104.017 2.16298 104.302 2.16298C104.802 2.16848 105.184 2.2619 105.448 2.44325C105.717 2.61911 105.849 2.81145 105.844 3.02028ZM111.881 3.02028C111.881 3.08073 111.813 3.11095 111.675 3.11095C111.538 3.11095 111.425 3.10271 111.337 3.08623C111.255 3.06974 111.118 3.04501 110.925 3.01204C110.733 2.97906 110.516 2.96258 110.274 2.96258C110.038 2.96258 109.815 3.04501 109.606 3.20987C109.403 3.36924 109.23 3.57532 109.087 3.82812C108.801 4.3392 108.661 4.92996 108.667 5.60041C108.672 6.17195 108.796 6.60609 109.037 6.90285C109.279 7.19411 109.584 7.33974 109.952 7.33974C110.172 7.33974 110.395 7.28478 110.62 7.17487C110.851 7.06496 111.06 6.90559 111.247 6.69677C111.664 6.22415 111.87 5.63339 111.865 4.92447C111.87 4.47933 111.736 4.13037 111.461 3.87758C111.362 3.77866 111.269 3.69623 111.181 3.63028C111.093 3.56433 111.049 3.47915 111.049 3.37474C111.049 3.31429 111.109 3.28406 111.23 3.28406C111.538 3.28406 111.818 3.39947 112.071 3.63028C112.412 3.94352 112.582 4.39415 112.582 4.98217C112.582 6.08127 112.299 6.93307 111.733 7.53758C111.167 8.13659 110.461 8.43609 109.614 8.43609C108.977 8.43609 108.455 8.23001 108.048 7.81785C107.598 7.35623 107.372 6.7215 107.372 5.91366C107.372 5.32564 107.493 4.75136 107.735 4.19082C108.131 3.25659 108.719 2.63559 109.499 2.32785C109.774 2.21794 110.054 2.16298 110.34 2.16298C110.84 2.16848 111.222 2.2619 111.486 2.44325C111.755 2.61911 111.887 2.81145 111.881 3.02028ZM115.372 2.60812L114.869 2.5669C114.688 2.5669 114.547 2.66307 114.449 2.85541C114.361 3.02028 114.314 3.21262 114.308 3.43244C114.308 3.65226 114.347 3.80888 114.424 3.90231C114.506 3.99023 114.591 4.0342 114.679 4.0342C114.85 4.0342 115.004 3.96001 115.141 3.81163C115.278 3.65776 115.347 3.45717 115.347 3.20987C115.347 3.13843 115.336 3.06974 115.314 3.00379C115.292 2.93785 115.281 2.8774 115.281 2.82244C115.281 2.72352 115.333 2.67406 115.438 2.67406C115.542 2.67406 115.625 2.72902 115.685 2.83893C115.745 2.94334 115.776 3.09447 115.776 3.29231C115.776 3.69897 115.658 4.02046 115.421 4.25677C115.201 4.48758 114.924 4.60298 114.589 4.60298C114.176 4.60298 113.893 4.41613 113.74 4.04244C113.685 3.91055 113.657 3.75668 113.657 3.58082C113.657 3.21262 113.77 2.87465 113.995 2.5669C114.22 2.25915 114.512 2.10528 114.869 2.10528C115.083 2.10528 115.243 2.1465 115.347 2.22893C115.457 2.30586 115.512 2.39654 115.512 2.50095C115.512 2.5724 115.465 2.60812 115.372 2.60812ZM117.251 2.25366C117.268 2.20969 117.295 2.18771 117.334 2.18771C117.411 2.18771 117.504 2.26465 117.614 2.41852C117.724 2.5724 117.776 2.70978 117.771 2.83068C117.771 2.95159 117.743 3.07249 117.688 3.19339C117.639 3.30879 117.567 3.44068 117.474 3.58906C117.386 3.73195 117.284 3.88857 117.169 4.05893C116.625 4.86127 116.075 5.74879 115.52 6.7215C114.965 7.6942 114.619 8.38663 114.481 8.79879C114.47 8.81528 114.443 8.82352 114.399 8.82352C114.311 8.82352 114.218 8.75208 114.119 8.6092C114.02 8.46632 113.97 8.35366 113.97 8.27123C113.97 8.18879 113.979 8.12285 113.995 8.07339L117.251 2.25366ZM117.795 6.48244L117.292 6.44123C117.111 6.44123 116.971 6.5374 116.872 6.72974C116.784 6.8946 116.737 7.08695 116.732 7.30677C116.732 7.52659 116.77 7.68321 116.847 7.77663C116.93 7.86456 117.015 7.90852 117.103 7.90852C117.273 7.90852 117.427 7.83433 117.564 7.68595C117.702 7.53208 117.771 7.3315 117.771 7.0842C117.771 7.01276 117.76 6.94406 117.738 6.87812C117.716 6.81217 117.705 6.75172 117.705 6.69677C117.705 6.59785 117.757 6.54839 117.861 6.54839C117.966 6.54839 118.048 6.60334 118.109 6.71325C118.169 6.81767 118.199 6.96879 118.199 7.16663C118.199 7.5733 118.081 7.89478 117.845 8.13109C117.625 8.3619 117.347 8.47731 117.012 8.47731C116.6 8.47731 116.317 8.29046 116.163 7.91677C116.108 7.78487 116.081 7.631 116.081 7.45514C116.081 7.08695 116.193 6.74897 116.419 6.44123C116.644 6.13348 116.935 5.9796 117.292 5.9796C117.507 5.9796 117.666 6.02082 117.771 6.10325C117.88 6.18019 117.935 6.27086 117.935 6.37528C117.935 6.44672 117.889 6.48244 117.795 6.48244Z" fill="black" fill-opacity="0.6"/>
<path d="M128.238 5.13055C128.848 5.52623 129.153 5.99334 129.153 6.5319C129.153 7.09794 128.958 7.57605 128.568 7.96623C128.145 8.37289 127.598 8.57897 126.927 8.58447C126.361 8.58996 125.9 8.44708 125.543 8.15582C125.185 7.86456 125.007 7.5046 125.007 7.07595C125.007 6.33956 125.331 5.79001 125.979 5.42731C126.166 5.32839 126.359 5.23771 126.556 5.15528C126.199 4.94095 125.963 4.76785 125.848 4.63595C125.611 4.36668 125.493 4.08366 125.493 3.7869C125.493 3.25384 125.65 2.85267 125.963 2.58339C126.282 2.30861 126.713 2.17123 127.257 2.17123C127.636 2.16573 127.974 2.27839 128.271 2.5092C128.568 2.72902 128.713 2.96807 128.708 3.22636C128.708 3.27582 128.686 3.30055 128.642 3.30055C128.516 3.30055 128.31 3.24559 128.024 3.13568C127.744 3.02577 127.48 2.97082 127.232 2.97082C126.991 2.96532 126.801 3.02028 126.664 3.13568C126.526 3.25109 126.458 3.38848 126.458 3.54785C126.458 3.82262 126.565 4.05618 126.779 4.24852C126.922 4.37492 127.172 4.53429 127.529 4.72663C127.722 4.62222 127.875 4.50132 127.991 4.36393C128.112 4.22654 128.172 4.04519 128.172 3.81987C128.172 3.75393 128.153 3.69073 128.114 3.63028C128.081 3.56983 128.065 3.51213 128.065 3.45717C128.065 3.40222 128.084 3.37474 128.123 3.37474C128.255 3.37474 128.384 3.44618 128.51 3.58906C128.637 3.73195 128.7 3.91605 128.7 4.14136C128.7 4.581 128.546 4.91073 128.238 5.13055ZM127.01 7.52933C127.246 7.52933 127.441 7.45789 127.595 7.31501C127.755 7.16663 127.834 6.9633 127.834 6.70501C127.834 6.25987 127.645 5.89168 127.265 5.60041C126.952 5.7433 126.738 5.88068 126.622 6.01258C126.403 6.25987 126.293 6.56762 126.293 6.93582C126.293 7.10618 126.353 7.24906 126.474 7.36447C126.6 7.47438 126.779 7.52933 127.01 7.52933ZM131.004 5.53447C130.762 5.45753 130.617 5.33663 130.567 5.17177C130.622 4.69366 130.738 4.16609 130.913 3.58906C130.968 3.40222 131.034 3.22911 131.111 3.06974C130.935 3.08622 130.801 3.09447 130.707 3.09447C130.614 3.09447 130.567 3.06699 130.567 3.01204C130.567 2.91312 130.622 2.8087 130.732 2.69879C130.842 2.58339 130.996 2.47622 131.194 2.37731C131.644 2.15749 132.194 2.05032 132.842 2.05582L134.507 2.08055C134.595 2.08055 134.639 2.13276 134.639 2.23717C134.639 2.27014 134.626 2.32785 134.598 2.41028C134.571 2.49271 134.546 2.57789 134.524 2.66582C134.48 2.84717 134.387 2.93785 134.244 2.93785L132.991 2.88014C132.749 2.88014 132.408 2.90762 131.969 2.96258C131.914 3.19339 131.845 3.44618 131.762 3.72096C131.68 3.99573 131.595 4.30622 131.507 4.65244C131.628 4.63046 131.795 4.61947 132.01 4.61947C132.23 4.61947 132.469 4.65519 132.727 4.72663C132.991 4.79258 133.221 4.90249 133.419 5.05636C133.853 5.39159 134.071 5.89168 134.071 6.55663C134.071 7.21609 133.845 7.71618 133.395 8.0569C132.944 8.39213 132.353 8.55974 131.622 8.55974C131.111 8.55974 130.658 8.41136 130.262 8.1146C130.092 7.98271 129.96 7.83983 129.866 7.68595C129.773 7.53208 129.726 7.39744 129.726 7.28204C129.726 7.16114 129.781 7.10068 129.891 7.10068C130.001 7.10068 130.108 7.13641 130.213 7.20785C130.317 7.27379 130.43 7.35073 130.551 7.43866C130.858 7.65848 131.155 7.76839 131.441 7.76839C131.87 7.76839 132.186 7.66397 132.389 7.45514C132.598 7.24632 132.702 6.97978 132.702 6.65555C132.702 5.82023 132.339 5.40258 131.614 5.40258L131.309 5.41082C131.249 5.49325 131.147 5.53447 131.004 5.53447ZM137.096 2.60812L136.593 2.5669C136.411 2.5669 136.271 2.66307 136.172 2.85541C136.084 3.02028 136.038 3.21262 136.032 3.43244C136.032 3.65226 136.071 3.80888 136.148 3.90231C136.23 3.99023 136.315 4.0342 136.403 4.0342C136.574 4.0342 136.727 3.96001 136.865 3.81163C137.002 3.65776 137.071 3.45717 137.071 3.20987C137.071 3.13843 137.06 3.06974 137.038 3.00379C137.016 2.93785 137.005 2.8774 137.005 2.82244C137.005 2.72352 137.057 2.67406 137.162 2.67406C137.266 2.67406 137.348 2.72902 137.409 2.83893C137.469 2.94334 137.5 3.09447 137.5 3.29231C137.5 3.69897 137.381 4.02046 137.145 4.25677C136.925 4.48758 136.648 4.60298 136.313 4.60298C135.9 4.60298 135.617 4.41613 135.463 4.04244C135.408 3.91055 135.381 3.75668 135.381 3.58082C135.381 3.21262 135.494 2.87465 135.719 2.5669C135.944 2.25915 136.236 2.10528 136.593 2.10528C136.807 2.10528 136.966 2.1465 137.071 2.22893C137.181 2.30586 137.236 2.39654 137.236 2.50095C137.236 2.5724 137.189 2.60812 137.096 2.60812ZM138.975 2.25366C138.992 2.20969 139.019 2.18771 139.058 2.18771C139.134 2.18771 139.228 2.26465 139.338 2.41852C139.448 2.5724 139.5 2.70978 139.494 2.83068C139.494 2.95159 139.467 3.07249 139.412 3.19339C139.363 3.30879 139.291 3.44068 139.198 3.58906C139.11 3.73195 139.008 3.88857 138.893 4.05893C138.349 4.86127 137.799 5.74879 137.244 6.7215C136.689 7.6942 136.343 8.38663 136.205 8.79879C136.194 8.81528 136.167 8.82352 136.123 8.82352C136.035 8.82352 135.942 8.75208 135.843 8.6092C135.744 8.46632 135.694 8.35366 135.694 8.27123C135.694 8.18879 135.703 8.12285 135.719 8.07339L138.975 2.25366ZM139.519 6.48244L139.016 6.44123C138.835 6.44123 138.695 6.5374 138.596 6.72974C138.508 6.8946 138.461 7.08695 138.456 7.30677C138.456 7.52659 138.494 7.68321 138.571 7.77663C138.654 7.86456 138.739 7.90852 138.827 7.90852C138.997 7.90852 139.151 7.83433 139.288 7.68595C139.426 7.53208 139.494 7.3315 139.494 7.0842C139.494 7.01276 139.483 6.94406 139.461 6.87812C139.439 6.81217 139.428 6.75172 139.428 6.69677C139.428 6.59785 139.481 6.54839 139.585 6.54839C139.689 6.54839 139.772 6.60334 139.832 6.71325C139.893 6.81767 139.923 6.96879 139.923 7.16663C139.923 7.5733 139.805 7.89478 139.569 8.13109C139.349 8.3619 139.071 8.47731 138.736 8.47731C138.324 8.47731 138.041 8.29046 137.887 7.91677C137.832 7.78487 137.805 7.631 137.805 7.45514C137.805 7.08695 137.917 6.74897 138.143 6.44123C138.368 6.13348 138.659 5.9796 139.016 5.9796C139.231 5.9796 139.39 6.02082 139.494 6.10325C139.604 6.18019 139.659 6.27086 139.659 6.37528C139.659 6.44672 139.613 6.48244 139.519 6.48244Z" fill="black" fill-opacity="0.6"/>
</svg>
