<svg width="38" height="38" viewBox="0 0 38 38" fill="none" xmlns="http://www.w3.org/2000/svg">
<circle cx="18.7088" cy="18.7088" r="18.7088" fill="white"/>
<path d="M16.7542 21.7181C16.7542 22.6434 16.3 24.1574 15.225 24.1574C14.15 24.1574 13.6958 22.6434 13.6958 21.7181C13.6958 20.7929 14.15 19.2789 15.225 19.2789C16.3 19.2789 16.7542 20.7929 16.7542 21.7181V21.7181ZM29 19.4825C29 20.8947 28.8667 22.391 28.2708 23.6881C26.6917 27.0792 22.35 26.9995 19.2417 26.9995C16.0833 26.9995 11.4833 27.119 9.84167 23.6881C9.23333 22.4043 9 20.8947 9 19.4825C9 17.6276 9.57917 15.8746 10.7292 14.4535C10.5125 13.7541 10.4083 13.0192 10.4083 12.2932C10.4083 11.3414 10.6125 10.8633 11.0167 10C12.9042 10 14.1125 10.3984 15.55 11.5937C16.7583 11.2882 18 11.151 19.2458 11.151C20.3708 11.151 21.5042 11.2794 22.5958 11.5583C24.0125 10.3763 25.2208 10 27.0875 10C27.4958 10.8633 27.6958 11.3414 27.6958 12.2932C27.6958 13.0192 27.5875 13.7408 27.375 14.427C28.5208 15.8613 29 17.6276 29 19.4825V19.4825ZM26.3208 21.7181C26.3208 19.7747 25.2083 18.0615 23.2583 18.0615C22.4708 18.0615 21.7167 18.212 20.925 18.3271C20.3042 18.4289 19.6833 18.4688 19.0458 18.4688C18.4125 18.4688 17.7917 18.4289 17.1667 18.3271C16.3875 18.212 15.625 18.0615 14.8333 18.0615C12.8833 18.0615 11.7708 19.7747 11.7708 21.7181C11.7708 25.605 15.1208 26.2026 18.0375 26.2026H20.0458C22.975 26.2026 26.3208 25.6094 26.3208 21.7181V21.7181ZM22.8792 19.2789C21.8042 19.2789 21.35 20.7929 21.35 21.7181C21.35 22.6434 21.8042 24.1574 22.8792 24.1574C23.9542 24.1574 24.4083 22.6434 24.4083 21.7181C24.4083 20.7929 23.9542 19.2789 22.8792 19.2789Z" fill="#487473"/>
</svg>
