<svg width="126" height="156" viewBox="0 0 126 156" fill="none" xmlns="http://www.w3.org/2000/svg">
<path d="M27.198 2.7735C27.198 1.31637 26.013 0.119627 24.5652 0.284784C19.8742 0.819934 15.4344 2.77602 11.858 5.92206C7.61823 9.65173 4.88246 14.7983 4.16251 20.399C3.44255 25.9997 4.78772 31.6709 7.94639 36.3516C11.1051 41.0323 15.8608 44.402 21.324 45.8301C26.7872 47.2583 32.5836 46.6472 37.6289 44.1111C42.6741 41.575 46.6226 37.2876 48.7357 32.0511C50.8487 26.8146 50.9816 20.9876 49.1095 15.6601C47.5303 11.1664 44.6157 7.28773 40.7867 4.52531C39.605 3.67278 37.9859 4.13649 37.2728 5.40721C36.5597 6.67792 37.027 8.27188 38.1796 9.16341C40.9023 11.2695 42.9777 14.1272 44.1312 17.4096C45.578 21.5266 45.4753 26.0297 43.8423 30.0765C42.2093 34.1233 39.1579 37.4366 35.259 39.3965C31.36 41.3564 26.8806 41.8286 22.6586 40.725C18.4366 39.6213 14.7614 37.0172 12.3204 33.4C9.87934 29.7827 8.83979 25.4 9.39618 21.0718C9.95256 16.7436 12.0668 12.7663 15.3433 9.88401C17.9556 7.58603 21.164 6.10959 24.569 5.60541C26.0104 5.39198 27.198 4.23063 27.198 2.7735Z" fill="black"/>
<ellipse cx="27.4618" cy="23.3602" rx="18.7384" ry="18.4745" fill="white"/>
<path d="M21.8066 28.4301C21.8066 29.136 21.1187 29.489 19.7428 29.489C19.4436 29.489 19.2642 29.3394 19.2044 29.0403C19.1565 28.7292 19.1326 28.2985 19.1326 27.7482C19.1326 26.5876 19.3659 25.1519 19.8325 23.441C20.6102 20.6174 21.4417 18.9543 22.3271 18.4518C22.4467 18.38 22.5783 18.3441 22.7219 18.3441C22.8655 18.3441 22.9373 18.5774 22.9373 19.0441C22.9373 19.5107 22.9133 19.9234 22.8655 20.2824C22.7698 21.0002 22.5963 21.9275 22.345 23.0641C22.1057 24.2007 21.9861 24.8707 21.9861 25.0741L21.8066 28.4301ZM23.027 23.6025C23.027 23.447 23.1107 23.3453 23.2782 23.2974C23.4577 23.2495 23.679 23.2077 23.9423 23.1718C24.2055 23.1239 24.4926 23.0581 24.8037 22.9744C25.1148 22.8906 25.4019 22.7351 25.6651 22.5078C26.2753 21.9813 26.5804 21.1019 26.5804 19.8696C26.5804 19.0799 26.3112 18.4757 25.7728 18.057C25.2464 17.6382 24.4807 17.4289 23.4757 17.4289C22.4826 17.4289 21.5494 17.6382 20.676 18.057C20.3529 18.2125 20.0598 18.3561 19.7966 18.4877C19.5453 18.6193 19.312 18.6851 19.0967 18.6851C18.8813 18.6851 18.7736 18.6193 18.7736 18.4877C18.7736 18.2843 18.971 17.9493 19.3659 17.4827C19.7607 17.052 20.3828 16.6512 21.2323 16.2803C22.0938 15.9094 22.9971 15.7239 23.9423 15.7239C25.725 15.712 27.1128 16.1307 28.1059 16.9802C28.9673 17.722 29.398 18.6851 29.398 19.8696C29.398 21.0421 28.9733 22.095 28.1238 23.0282C27.2744 23.9495 26.2095 24.4101 24.9293 24.4101C23.6611 24.4101 23.027 24.1409 23.027 23.6025ZM33.3159 20.5336C34.1175 20.5217 34.7157 20.6712 35.1105 20.9823C35.5054 21.2814 35.7028 21.7181 35.7028 22.2924C35.7028 22.8547 35.5293 23.3393 35.1823 23.7461C34.8473 24.1409 34.4345 24.4221 33.944 24.5896C34.291 24.9485 34.602 25.3134 34.8772 25.6843C35.1644 26.0552 35.3079 26.444 35.3079 26.8508C35.3079 27.6524 34.9909 28.2746 34.3568 28.7173C33.7227 29.148 32.8373 29.3634 31.7007 29.3634C30.576 29.3634 29.7325 29.142 29.1702 28.6993C28.6079 28.2447 28.3267 27.7362 28.3267 27.1739C28.3267 26.5996 28.4643 26.0791 28.7395 25.6125C29.0266 25.1459 29.3317 24.9126 29.6548 24.9126C29.8462 24.9126 29.9838 24.9844 30.0675 25.128C30.1513 25.2596 30.3068 25.6544 30.5341 26.3124C30.6179 26.5517 30.7555 26.779 30.9469 26.9944C31.3896 27.4849 32.0895 27.7302 33.0467 27.7302C32.9031 27.2756 32.6698 26.8867 32.3468 26.5637C32.0357 26.2287 31.7246 25.9056 31.4135 25.5946C31.1025 25.2835 30.8273 24.9545 30.588 24.6075C30.3487 24.2486 30.229 23.8298 30.229 23.3512C30.229 22.4898 30.5521 21.7899 31.1982 21.2515C31.8084 20.7729 32.5143 20.5336 33.3159 20.5336ZM33.2441 23.8537C33.7227 23.3393 33.9619 22.9265 33.9619 22.6154C33.9619 22.4719 33.9081 22.3462 33.8004 22.2386C33.7047 22.1189 33.5611 22.0591 33.3697 22.0591C33.1783 22.0591 32.9928 22.083 32.8134 22.1309C32.6459 22.1787 32.5083 22.2146 32.4006 22.2386C32.4006 22.6932 32.6818 23.2316 33.2441 23.8537Z" fill="black"/>
<path d="M3.31844 62.7354C3.31844 63.1894 2.87606 63.4163 1.99128 63.4163C1.79894 63.4163 1.68353 63.3202 1.64506 63.1278C1.61429 62.9278 1.5989 62.6508 1.5989 62.2969C1.5989 61.5506 1.74893 60.6274 2.04898 59.5272C2.54907 57.7115 3.08379 56.642 3.65312 56.3189C3.73006 56.2727 3.81469 56.2497 3.90701 56.2497C3.99934 56.2497 4.0455 56.3997 4.0455 56.6997C4.0455 56.9998 4.03011 57.2652 3.99934 57.496C3.93779 57.9577 3.82623 58.5539 3.66466 59.2848C3.51079 60.0157 3.43385 60.4466 3.43385 60.5774L3.31844 62.7354ZM4.1032 59.631C4.1032 59.531 4.15706 59.4656 4.26477 59.4348C4.38017 59.4041 4.52251 59.3771 4.69177 59.3541C4.86103 59.3233 5.04568 59.281 5.24571 59.2271C5.44575 59.1733 5.6304 59.0732 5.79966 58.9271C6.19204 58.5885 6.38823 58.0231 6.38823 57.2306C6.38823 56.7228 6.21512 56.3343 5.8689 56.065C5.53038 55.7957 5.03798 55.6611 4.39171 55.6611C3.75314 55.6611 3.15303 55.7957 2.59139 56.065C2.38366 56.165 2.19516 56.2574 2.0259 56.342C1.86433 56.4266 1.71431 56.4689 1.57582 56.4689C1.43733 56.4689 1.36809 56.4266 1.36809 56.342C1.36809 56.2112 1.49504 55.9958 1.74893 55.6957C2.00282 55.4187 2.40289 55.161 2.94915 54.9225C3.50309 54.684 4.08397 54.5647 4.69177 54.5647C5.83813 54.557 6.7306 54.8263 7.36917 55.3726C7.92312 55.8496 8.20009 56.4689 8.20009 57.2306C8.20009 57.9846 7.92697 58.6616 7.38071 59.2617C6.83446 59.8542 6.14972 60.1504 5.3265 60.1504C4.51097 60.1504 4.1032 59.9773 4.1032 59.631ZM11.9312 59.3656C11.9312 59.0886 11.7658 58.9501 11.435 58.9501C11.1118 58.9501 10.7925 59.204 10.4771 59.7118C10.1617 60.2119 9.96546 60.7235 9.88853 61.2467C9.90391 61.4237 9.9193 61.6006 9.93469 61.7776C9.95008 61.9545 9.95777 62.1276 9.95777 62.2969C9.95777 62.7047 9.82313 62.9816 9.55385 63.1278C9.43075 63.1971 9.3115 63.2625 9.19609 63.324C9.08838 63.3856 8.96144 63.4163 8.81526 63.4163C8.66908 63.4163 8.53828 63.3202 8.42288 63.1278C8.31517 62.9278 8.26131 62.62 8.26131 62.2046C8.26131 61.0428 8.34594 60.035 8.5152 59.181C8.77679 57.8576 9.29611 56.442 10.0732 54.934C10.1809 54.7263 10.3386 54.6263 10.5463 54.634C10.7541 54.634 10.9233 54.7763 11.0541 55.061C11.1849 55.3456 11.2465 55.5842 11.2388 55.7765C11.2388 55.9688 11.208 56.1573 11.1464 56.342C11.0926 56.5189 11.0195 56.6959 10.9272 56.8728C10.8425 57.0421 10.7425 57.2191 10.6271 57.4037C10.5194 57.5807 10.4117 57.773 10.304 57.9807L10.1309 58.8117C10.4309 58.3116 10.8349 57.9769 11.3426 57.8076C11.5273 57.7461 11.7312 57.7153 11.9543 57.7153C12.4775 57.7153 12.8737 57.8346 13.143 58.0731C13.4122 58.3039 13.5469 58.6347 13.5469 59.0655C13.5469 59.4887 13.4892 59.9195 13.3738 60.3581C13.2661 60.7966 13.1853 61.1121 13.1314 61.3044C13.0853 61.4891 13.0622 61.6429 13.0622 61.766C13.0622 61.8891 13.1045 61.9507 13.1891 61.9507C13.3045 61.9507 13.4469 61.8776 13.6161 61.7314C13.7854 61.5852 13.9546 61.4275 14.1239 61.2583C14.2932 61.0813 14.447 60.9197 14.5855 60.7735C14.7317 60.6274 14.8317 60.5543 14.8856 60.5543C14.9933 60.5543 15.0471 60.6851 15.0471 60.9467C15.0471 61.4852 14.7817 62.0045 14.2509 62.5046C13.3584 63.0278 12.789 63.2894 12.5429 63.2894C12.5198 63.2894 12.5044 63.2855 12.4967 63.2778C11.8812 63.2778 11.5734 62.7855 11.5734 61.8007C11.5734 61.3775 11.6119 60.989 11.6889 60.6351C11.7735 60.2812 11.835 60.0234 11.8735 59.8618C11.912 59.7003 11.9312 59.5349 11.9312 59.3656ZM19.1294 62.2623C18.5216 62.9778 17.7907 63.3355 16.9367 63.3355C16.0904 63.3355 15.4557 63.1201 15.0325 62.6893C14.6094 62.2507 14.4017 61.7083 14.4094 61.0621C14.4017 60.1465 14.6902 59.3579 15.2749 58.6963C15.8596 58.0346 16.6251 57.7038 17.5715 57.7038C18.0023 57.7038 18.3485 57.7576 18.6101 57.8653C19.064 58.05 19.291 58.2231 19.291 58.3847C19.291 58.5078 18.9717 58.5732 18.3331 58.5808C17.7023 58.5808 17.1714 58.8001 16.7405 59.2387C16.3174 59.6695 16.1058 60.2158 16.1058 60.8774C16.1058 61.2236 16.2058 61.516 16.4059 61.7545C16.6136 61.9853 16.9021 62.1007 17.2714 62.1007C17.6484 62.1007 17.96 62.0238 18.2062 61.8699C17.6599 61.5006 17.3868 60.9659 17.3868 60.2658C17.3791 59.8965 17.5099 59.5618 17.7792 59.2617C18.0562 58.954 18.4062 58.8001 18.8294 58.8001C19.2602 58.7924 19.568 58.9078 19.7526 59.1463C19.9373 59.3848 20.0296 59.6926 20.0296 60.0696C20.0296 60.4389 19.9411 60.8313 19.7642 61.2467H19.8334C20.1719 61.239 20.4643 61.1198 20.7105 60.889C20.8028 60.7966 20.8798 60.7158 20.9413 60.6466C21.0105 60.5774 21.0798 60.5427 21.149 60.5427C21.2567 60.5427 21.3106 60.6697 21.3106 60.9236C21.3106 61.3929 21.1721 61.7468 20.8951 61.9853C20.6182 62.2161 20.3104 62.3315 19.9719 62.3315C19.6411 62.3315 19.3602 62.3084 19.1294 62.2623ZM19.0256 60.9236C19.1564 60.6466 19.2218 60.3773 19.2218 60.1157C19.2218 59.8542 19.1371 59.7234 18.9679 59.7234C18.8986 59.7234 18.8409 59.7734 18.7948 59.8734C18.7486 59.9734 18.7255 60.0696 18.7255 60.1619C18.7255 60.4696 18.8255 60.7235 19.0256 60.9236ZM21.241 62.62C21.1564 62.4123 21.0948 62.1738 21.0563 61.9045C21.0179 61.6275 20.9986 61.2429 20.9986 60.7505C20.9986 60.2581 21.091 59.5926 21.2756 58.754H20.7563C20.664 58.754 20.6178 58.7155 20.6178 58.6385C20.6178 58.4539 20.6332 58.3039 20.664 58.1885C20.7024 58.0654 20.7871 57.9269 20.9179 57.773H21.1948C21.3025 57.773 21.4179 57.7692 21.541 57.7615C21.9103 56.5766 22.2873 55.9842 22.672 55.9842C22.9798 55.9919 23.1952 56.1881 23.3183 56.5728C23.3491 56.6805 23.3837 56.7959 23.4222 56.919L22.949 57.7499C23.4876 57.7653 23.8261 57.773 23.9646 57.773C24.1107 57.773 24.1877 57.7884 24.1954 57.8192C24.2108 57.8423 24.2185 57.8807 24.2185 57.9346C24.2185 58.0731 24.1838 58.2462 24.1146 58.4539C24.053 58.6616 23.9799 58.7616 23.8953 58.754L22.7413 58.6963C22.5797 59.6349 22.4989 60.4119 22.4989 61.0274C22.4989 61.6429 22.5874 61.9507 22.7643 61.9507C22.9105 61.9507 23.176 61.8314 23.5606 61.5929C23.9453 61.3467 24.2223 61.1121 24.3916 60.889C24.5608 60.6658 24.6993 60.5543 24.807 60.5543C24.9147 60.5543 24.9686 60.6851 24.9686 60.9467C24.9686 61.2082 24.8763 61.4775 24.6916 61.7545C24.507 62.0238 24.2723 62.2738 23.9876 62.5046C23.7107 62.7277 23.3991 62.9124 23.0529 63.0586C22.7143 63.2048 22.4181 63.2778 22.1642 63.2778C21.9103 63.2778 21.7142 63.2201 21.5757 63.1047C21.4449 62.9816 21.3333 62.8201 21.241 62.62ZM29.0584 62.2623C28.4506 62.9778 27.7197 63.3355 26.8657 63.3355C26.0193 63.3355 25.3846 63.1201 24.9615 62.6893C24.5383 62.2507 24.3306 61.7083 24.3383 61.0621C24.3306 60.1465 24.6191 59.3579 25.2038 58.6963C25.7885 58.0346 26.5541 57.7038 27.5004 57.7038C27.9312 57.7038 28.2774 57.7576 28.539 57.8653C28.993 58.05 29.2199 58.2231 29.2199 58.3847C29.2199 58.5078 28.9006 58.5732 28.2621 58.5808C27.6312 58.5808 27.1003 58.8001 26.6695 59.2387C26.2463 59.6695 26.0347 60.2158 26.0347 60.8774C26.0347 61.2236 26.1348 61.516 26.3348 61.7545C26.5425 61.9853 26.831 62.1007 27.2003 62.1007C27.5773 62.1007 27.8889 62.0238 28.1351 61.8699C27.5889 61.5006 27.3157 60.9659 27.3157 60.2658C27.308 59.8965 27.4388 59.5618 27.7081 59.2617C27.9851 58.954 28.3352 58.8001 28.7583 58.8001C29.1892 58.7924 29.4969 58.9078 29.6815 59.1463C29.8662 59.3848 29.9585 59.6926 29.9585 60.0696C29.9585 60.4389 29.87 60.8313 29.6931 61.2467H29.7623C30.1009 61.239 30.3932 61.1198 30.6394 60.889C30.7317 60.7966 30.8087 60.7158 30.8702 60.6466C30.9395 60.5774 31.0087 60.5427 31.078 60.5427C31.1857 60.5427 31.2395 60.6697 31.2395 60.9236C31.2395 61.3929 31.101 61.7468 30.8241 61.9853C30.5471 62.2161 30.2393 62.3315 29.9008 62.3315C29.57 62.3315 29.2892 62.3084 29.0584 62.2623ZM28.9545 60.9236C29.0853 60.6466 29.1507 60.3773 29.1507 60.1157C29.1507 59.8542 29.0661 59.7234 28.8968 59.7234C28.8275 59.7234 28.7698 59.7734 28.7237 59.8734C28.6775 59.9734 28.6544 60.0696 28.6544 60.1619C28.6544 60.4696 28.7545 60.7235 28.9545 60.9236ZM33.2934 57.6576C33.8089 57.6499 34.1935 57.7461 34.4474 57.9461C34.7013 58.1385 34.8283 58.4193 34.8283 58.7886C34.8283 59.1502 34.7167 59.4618 34.4936 59.7234C34.2782 59.9773 34.0127 60.1581 33.6973 60.2658C33.9204 60.4966 34.1204 60.7312 34.2974 60.9697C34.482 61.2082 34.5744 61.4583 34.5744 61.7199C34.5744 62.2354 34.3705 62.6354 33.9627 62.9201C33.555 63.1971 32.9856 63.3355 32.2547 63.3355C31.5315 63.3355 30.9891 63.1932 30.6275 62.9085C30.2659 62.6162 30.0851 62.2892 30.0851 61.9276C30.0851 61.5583 30.1736 61.2236 30.3505 60.9236C30.5352 60.6235 30.7314 60.4735 30.9391 60.4735C31.0622 60.4735 31.1507 60.5197 31.2045 60.612C31.2584 60.6966 31.3584 60.9505 31.5046 61.3737C31.5584 61.5275 31.6469 61.6737 31.77 61.8122C32.0547 62.1276 32.5048 62.2854 33.1203 62.2854C33.0279 61.993 32.8779 61.743 32.6702 61.5352C32.4701 61.3198 32.2701 61.1121 32.0701 60.912C31.87 60.712 31.6931 60.5004 31.5392 60.2773C31.3853 60.0465 31.3084 59.7772 31.3084 59.4695C31.3084 58.9155 31.5161 58.4654 31.9316 58.1192C32.324 57.8115 32.7779 57.6576 33.2934 57.6576ZM33.2472 59.7926C33.555 59.4618 33.7088 59.1963 33.7088 58.9963C33.7088 58.904 33.6742 58.8232 33.605 58.754C33.5434 58.677 33.4511 58.6385 33.328 58.6385C33.2049 58.6385 33.0856 58.6539 32.9702 58.6847C32.8625 58.7155 32.774 58.7386 32.7048 58.754C32.7048 59.0463 32.8856 59.3925 33.2472 59.7926ZM39.1371 59.3656C39.1371 59.0886 38.9717 58.9501 38.6409 58.9501C38.3177 58.9501 37.9985 59.204 37.683 59.7118C37.3676 60.2119 37.1714 60.7235 37.0945 61.2467C37.1098 61.4237 37.1252 61.6006 37.1406 61.7776C37.156 61.9545 37.1637 62.1276 37.1637 62.2969C37.1637 62.7047 37.0291 62.9816 36.7598 63.1278C36.6367 63.1971 36.5174 63.2625 36.402 63.324C36.2943 63.3856 36.1674 63.4163 36.0212 63.4163C35.875 63.4163 35.7442 63.3202 35.6288 63.1278C35.5211 62.9278 35.4672 62.62 35.4672 62.2046C35.4672 61.0428 35.5519 60.035 35.7211 59.181C35.9827 57.8576 36.502 56.442 37.2791 54.934C37.3868 54.7263 37.5445 54.6263 37.7523 54.634C37.96 54.634 38.1293 54.7763 38.26 55.061C38.3908 55.3456 38.4524 55.5842 38.4447 55.7765C38.4447 55.9688 38.4139 56.1573 38.3524 56.342C38.2985 56.5189 38.2254 56.6959 38.1331 56.8728C38.0485 57.0421 37.9485 57.2191 37.833 57.4037C37.7253 57.5807 37.6176 57.773 37.5099 57.9807L37.3368 58.8117C37.6369 58.3116 38.0408 57.9769 38.5486 57.8076C38.7332 57.7461 38.9371 57.7153 39.1602 57.7153C39.6834 57.7153 40.0796 57.8346 40.3489 58.0731C40.6182 58.3039 40.7528 58.6347 40.7528 59.0655C40.7528 59.4887 40.6951 59.9195 40.5797 60.3581C40.472 60.7966 40.3912 61.1121 40.3373 61.3044C40.2912 61.4891 40.2681 61.6429 40.2681 61.766C40.2681 61.8891 40.3104 61.9507 40.395 61.9507C40.5105 61.9507 40.6528 61.8776 40.822 61.7314C40.9913 61.5852 41.1606 61.4275 41.3298 61.2583C41.4991 61.0813 41.653 60.9197 41.7915 60.7735C41.9376 60.6274 42.0376 60.5543 42.0915 60.5543C42.1992 60.5543 42.2531 60.6851 42.2531 60.9467C42.2531 61.4852 41.9876 62.0045 41.4568 62.5046C40.5643 63.0278 39.995 63.2894 39.7488 63.2894C39.7257 63.2894 39.7103 63.2855 39.7026 63.2778C39.0871 63.2778 38.7794 62.7855 38.7794 61.8007C38.7794 61.3775 38.8178 60.989 38.8948 60.6351C38.9794 60.2812 39.041 60.0234 39.0794 59.8618C39.1179 59.7003 39.1371 59.5349 39.1371 59.3656ZM46.3354 62.2623C45.7276 62.9778 44.9967 63.3355 44.1427 63.3355C43.2963 63.3355 42.6616 63.1201 42.2385 62.6893C41.8153 62.2507 41.6076 61.7083 41.6153 61.0621C41.6076 60.1465 41.8961 59.3579 42.4808 58.6963C43.0655 58.0346 43.8311 57.7038 44.7774 57.7038C45.2082 57.7038 45.5544 57.7576 45.816 57.8653C46.27 58.05 46.4969 58.2231 46.4969 58.3847C46.4969 58.5078 46.1776 58.5732 45.5391 58.5808C44.9082 58.5808 44.3773 58.8001 43.9465 59.2387C43.5233 59.6695 43.3117 60.2158 43.3117 60.8774C43.3117 61.2236 43.4118 61.516 43.6118 61.7545C43.8195 61.9853 44.108 62.1007 44.4773 62.1007C44.8543 62.1007 45.1659 62.0238 45.4121 61.8699C44.8659 61.5006 44.5927 60.9659 44.5927 60.2658C44.585 59.8965 44.7158 59.5618 44.9851 59.2617C45.2621 58.954 45.6122 58.8001 46.0353 58.8001C46.4662 58.7924 46.7739 58.9078 46.9585 59.1463C47.1432 59.3848 47.2355 59.6926 47.2355 60.0696C47.2355 60.4389 47.147 60.8313 46.9701 61.2467H47.0393C47.3779 61.239 47.6702 61.1198 47.9164 60.889C48.0087 60.7966 48.0857 60.7158 48.1472 60.6466C48.2165 60.5774 48.2857 60.5427 48.355 60.5427C48.4627 60.5427 48.5165 60.6697 48.5165 60.9236C48.5165 61.3929 48.378 61.7468 48.1011 61.9853C47.8241 62.2161 47.5163 62.3315 47.1778 62.3315C46.847 62.3315 46.5662 62.3084 46.3354 62.2623ZM46.2315 60.9236C46.3623 60.6466 46.4277 60.3773 46.4277 60.1157C46.4277 59.8542 46.3431 59.7234 46.1738 59.7234C46.1045 59.7234 46.0468 59.7734 46.0007 59.8734C45.9545 59.9734 45.9314 60.0696 45.9314 60.1619C45.9314 60.4696 46.0315 60.7235 46.2315 60.9236ZM50.1203 58.4077C50.5204 57.9538 51.032 57.7268 51.6552 57.7268C52.5477 57.7268 53.1131 58.0885 53.3516 58.8117C53.4209 59.0271 53.4555 59.2656 53.4555 59.5272C53.4555 60.1119 53.2632 60.6889 52.8785 61.2583C52.5015 61.8276 52.0437 62.2123 51.5052 62.4123H51.6436C52.2053 62.4123 52.7746 62.2046 53.3516 61.7891C53.7209 61.5275 54.0095 61.2583 54.2172 60.9813C54.4326 60.6966 54.5942 60.5543 54.7019 60.5543C54.8096 60.5543 54.8635 60.6774 54.8635 60.9236C54.8635 61.3544 54.6788 61.7891 54.3095 62.2277C53.7556 62.8585 53.0477 63.2278 52.1861 63.3355C51.5629 63.4048 51.1205 63.4163 50.8589 63.3702C50.5973 63.324 50.3973 63.2663 50.2588 63.1971C49.9587 63.0432 49.8087 62.8124 49.8087 62.5046C49.8087 62.3354 49.8433 62.1815 49.9126 62.043C50.5204 62.043 50.982 61.8122 51.2974 61.3506C51.6129 60.889 51.7706 60.3119 51.7706 59.6195C51.7706 59.4502 51.709 59.3002 51.5859 59.1694C51.4628 59.0309 51.2974 58.9617 51.0897 58.9617C50.8897 58.9617 50.6704 59.0502 50.4319 59.2271C50.1934 59.4041 50.001 59.6272 49.8549 59.8965C49.7164 60.1581 49.5894 60.4196 49.474 60.6812C49.3586 60.9351 49.2663 61.2583 49.197 61.6506C49.074 62.3585 48.9316 63.2509 48.77 64.328C48.6162 65.4128 48.52 65.9937 48.4815 66.0707C48.4431 66.1553 48.3854 66.2322 48.3084 66.3015C48.2315 66.3707 48.1507 66.4053 48.0661 66.4053C47.9122 66.4053 47.7853 66.3592 47.6852 66.2668C47.4083 66.0283 47.2467 65.8437 47.2005 65.7129C47.1544 65.5898 47.1313 65.4282 47.1313 65.2282C47.1313 64.4742 47.2582 63.4163 47.5121 62.0545C47.766 60.6928 48.2046 59.2771 48.8278 57.8076C48.9201 57.5922 49.0816 57.4845 49.3125 57.4845C49.551 57.4845 49.7779 57.6922 49.9933 58.1077C50.0549 58.2154 50.0972 58.3154 50.1203 58.4077Z" fill="black"/>
<path d="M96.4412 2.7735C96.4412 1.31637 95.2562 0.119641 93.8084 0.284814C89.7919 0.743058 85.9481 2.24415 82.6686 4.65945C78.678 7.5984 75.7322 11.7368 74.2619 16.4697C72.7915 21.2026 72.8737 26.2817 74.4964 30.9645C76.1191 35.6473 79.1972 39.6883 83.2807 42.4966C87.3643 45.305 92.2391 46.7334 97.1925 46.5731C102.146 46.4127 106.918 44.6721 110.812 41.6056C114.705 38.5391 117.515 34.3076 118.832 29.5296C119.914 25.603 119.94 21.4765 118.931 17.562C118.567 16.151 117.026 15.4726 115.665 15.994C114.304 16.5154 113.645 18.0399 113.961 19.4622C114.595 22.3121 114.527 25.2877 113.745 28.1279C112.727 31.8203 110.555 35.0905 107.547 37.4602C104.538 39.83 100.85 41.1752 97.0218 41.2991C93.1938 41.423 89.4266 40.3191 86.2708 38.1488C83.115 35.9785 80.7363 32.8557 79.4822 29.2368C78.2282 25.6179 78.1647 21.6928 79.301 18.0352C80.4373 14.3776 82.7138 11.1795 85.7977 8.90826C88.1699 7.16119 90.9242 6.03308 93.8123 5.60543C95.2537 5.39199 96.4412 4.23063 96.4412 2.7735Z" fill="black"/>
<ellipse cx="96.7051" cy="23.3602" rx="18.7384" ry="18.4745" fill="white"/>
<path d="M100.544 24.9844C100.747 24.9844 100.849 25.2596 100.849 25.8099C100.849 26.109 100.723 26.474 100.472 26.9047C100.221 27.3234 99.8916 27.7123 99.4848 28.0712C99.09 28.4182 98.6473 28.7053 98.1568 28.9326C97.6662 29.16 97.1876 29.2736 96.721 29.2736C96.0151 29.2736 95.5246 29.1001 95.2494 28.7532C94.9862 28.3942 94.8546 27.8738 94.8546 27.1918C94.8546 26.4979 95.1238 25.3134 95.6622 23.6384C94.0111 23.5666 92.8087 23.5307 92.0549 23.5307H91.8037C91.5883 24.8588 91.4806 26.2526 91.4806 27.7123C91.4806 28.3583 91.2353 28.801 90.7448 29.0403C90.5175 29.148 90.2961 29.2497 90.0808 29.3454C89.8774 29.4411 89.656 29.489 89.4168 29.489C88.8185 29.489 88.5194 28.9506 88.5194 27.8738C88.5194 26.797 88.7647 25.4151 89.2552 23.7281C88.7288 23.7879 88.2622 23.8478 87.8554 23.9076C87.4606 23.9674 87.1495 23.9973 86.9222 23.9973C86.6949 23.9973 86.5812 23.9375 86.5812 23.8179C86.5812 23.4589 86.8743 23.094 87.4606 22.7231C88.0588 22.3522 88.8664 22.071 89.8834 21.8796C91.008 19.0201 92.3839 17.1118 94.0111 16.1546C94.6093 15.7957 95.2434 15.6162 95.9134 15.6162C97.1099 15.6282 97.9713 15.9513 98.4978 16.5854C99.0361 17.2195 99.3053 18.063 99.3053 19.1158C99.3173 20.1567 99.0003 21.5147 98.3542 23.1897C98.1149 23.8358 97.8935 24.4221 97.6902 24.9485C97.4868 25.4749 97.3851 25.8997 97.3851 26.2227C97.3851 26.5457 97.409 26.791 97.4568 26.9585C97.5047 27.126 97.6184 27.2098 97.7978 27.2098C98.1209 27.2098 98.8806 26.5876 100.077 25.3433C100.292 25.104 100.448 24.9844 100.544 24.9844ZM96.721 19.6363C96.721 18.5954 96.3322 18.0749 95.5545 18.0749C94.7649 18.0749 94.0829 18.4099 93.5086 19.0799C92.9463 19.738 92.5096 20.6234 92.1985 21.736L96.2724 21.7899C96.5715 20.8327 96.721 20.1149 96.721 19.6363ZM102.111 29.2736C100.914 29.2736 100.316 28.155 100.316 25.9176C100.316 24.6972 100.466 23.5905 100.765 22.5975C101.231 21.066 101.758 20.3003 102.344 20.3003C102.691 20.3003 102.966 20.5336 103.169 21.0002C103.337 21.3592 103.415 21.7121 103.403 22.0591C103.403 22.5377 103.259 23.3812 102.972 24.5896C102.697 25.6424 102.559 26.2945 102.559 26.5457C102.559 26.797 102.619 26.9705 102.739 27.0662C102.87 27.1619 103.02 27.2098 103.187 27.2098C103.367 27.2098 103.588 27.0961 103.851 26.8688C104.115 26.6415 104.378 26.3962 104.641 26.133C104.904 25.8578 105.144 25.6065 105.359 25.3792C105.586 25.1519 105.742 25.0382 105.826 25.0382C105.993 25.0382 106.077 25.2416 106.077 25.6484C106.077 26.4859 105.652 27.3055 104.803 28.1071C103.965 28.8967 103.068 29.2856 102.111 29.2736ZM102.846 18.8466C102.523 18.3681 102.362 17.8536 102.362 17.3032C102.362 16.7529 102.446 16.2982 102.613 15.9393C102.793 15.5684 102.96 15.2992 103.116 15.1317C103.271 14.9522 103.451 14.8625 103.654 14.8625C103.989 14.8625 104.294 15.1137 104.569 15.6162C104.844 16.1068 104.982 16.5196 104.982 16.8546C104.982 17.4767 104.761 17.9673 104.318 18.3262C103.887 18.6732 103.397 18.8466 102.846 18.8466Z" fill="black"/>
<path d="M72.3886 62.9778C72.3886 63.1932 72.2347 63.3009 71.927 63.3009C71.4423 63.3009 71.1115 63.2086 70.9345 63.024C70.7576 62.8316 70.6691 62.5123 70.6691 62.0661C70.6768 61.3737 70.8653 60.2658 71.2346 58.7424C71.6116 57.2191 71.9655 56.0881 72.2963 55.3495C72.3809 55.1572 72.5002 54.9764 72.6541 54.8071C72.8079 54.6301 73.0118 54.5417 73.2657 54.5417C73.3734 54.5417 73.4619 54.6071 73.5311 54.7378C73.6081 54.8686 73.6465 55.0187 73.6465 55.1879C73.6465 55.3572 73.6158 55.6111 73.5542 55.9496C73.4927 56.2804 73.4157 56.6613 73.3234 57.0921C73.2311 57.523 73.1272 57.9884 73.0118 58.4885C72.5964 60.3889 72.3886 61.8853 72.3886 62.9778ZM76.6254 63.2778C75.5252 63.2855 74.7751 62.8739 74.375 62.043C74.2366 61.7506 74.1673 61.3852 74.1673 60.9467C74.1673 60.5004 74.2058 60.0273 74.2827 59.5272C74.4366 58.527 74.7328 57.6037 75.1713 56.7574C75.3945 56.3266 75.6445 55.9573 75.9215 55.6495C76.5293 54.9725 77.2063 54.6378 77.9526 54.6455C78.2834 54.6455 78.5412 54.7378 78.7258 54.9225C78.9182 55.0995 79.0143 55.3572 79.0143 55.6957C79.0143 56.0342 78.9143 56.3766 78.7143 56.7228C78.5142 57.0613 78.2565 57.4153 77.9411 57.7845C77.6333 58.1462 77.2909 58.527 76.914 58.9271C76.537 59.3271 76.1677 59.7618 75.8061 60.2311V60.6928C75.8061 61.1236 75.8984 61.4391 76.083 61.6391C76.2677 61.8391 76.4831 61.9391 76.7293 61.9391C77.391 61.9391 77.9757 61.6122 78.4835 60.9582C78.6912 60.6889 78.8489 60.5543 78.9566 60.5543C79.0643 60.5543 79.1182 60.6851 79.1182 60.9467C79.1182 61.2082 79.0451 61.4775 78.8989 61.7545C78.7604 62.0238 78.5758 62.2738 78.345 62.5046C78.1142 62.7277 77.8487 62.9124 77.5487 63.0586C77.2486 63.2048 76.9409 63.2778 76.6254 63.2778ZM77.2486 57.0806C77.4102 56.8805 77.5371 56.6997 77.6295 56.5382C77.7218 56.3766 77.768 56.2112 77.768 56.0419C77.768 55.865 77.7064 55.7765 77.5833 55.7765C77.314 55.7765 77.014 56.0535 76.6831 56.6074C76.36 57.1614 76.1177 57.8884 75.9561 58.7886C76.2177 58.3885 76.4562 58.0538 76.6716 57.7845C76.8947 57.5153 77.0871 57.2806 77.2486 57.0806ZM81.0095 63.2778C79.9093 63.2855 79.1592 62.8739 78.7591 62.043C78.6206 61.7506 78.5514 61.3852 78.5514 60.9467C78.5514 60.5004 78.5898 60.0273 78.6668 59.5272C78.8206 58.527 79.1168 57.6037 79.5554 56.7574C79.7785 56.3266 80.0285 55.9573 80.3055 55.6495C80.9133 54.9725 81.5904 54.6378 82.3367 54.6455C82.6675 54.6455 82.9252 54.7378 83.1099 54.9225C83.3022 55.0995 83.3984 55.3572 83.3984 55.6957C83.3984 56.0342 83.2984 56.3766 83.0983 56.7228C82.8983 57.0613 82.6406 57.4153 82.3251 57.7845C82.0174 58.1462 81.675 58.527 81.298 58.9271C80.921 59.3271 80.5517 59.7618 80.1901 60.2311V60.6928C80.1901 61.1236 80.2824 61.4391 80.4671 61.6391C80.6517 61.8391 80.8672 61.9391 81.1134 61.9391C81.775 61.9391 82.3597 61.6122 82.8675 60.9582C83.0753 60.6889 83.233 60.5543 83.3407 60.5543C83.4484 60.5543 83.5023 60.6851 83.5023 60.9467C83.5023 61.2082 83.4292 61.4775 83.283 61.7545C83.1445 62.0238 82.9598 62.2738 82.729 62.5046C82.4982 62.7277 82.2328 62.9124 81.9327 63.0586C81.6327 63.2048 81.3249 63.2778 81.0095 63.2778ZM81.6327 57.0806C81.7943 56.8805 81.9212 56.6997 82.0135 56.5382C82.1058 56.3766 82.152 56.2112 82.152 56.0419C82.152 55.865 82.0905 55.7765 81.9674 55.7765C81.6981 55.7765 81.398 56.0535 81.0672 56.6074C80.7441 57.1614 80.5017 57.8884 80.3401 58.7886C80.6017 58.3885 80.8402 58.0538 81.0557 57.7845C81.2788 57.5153 81.4711 57.2806 81.6327 57.0806ZM86.4091 58.3731C86.4091 57.8576 86.8092 57.5999 87.6093 57.5999C87.8094 57.5999 87.9325 57.6653 87.9786 57.7961C88.0325 57.9269 88.0594 58.1269 88.0594 58.3962C88.0594 58.7732 87.9748 59.3579 87.8055 60.1504C87.6363 60.9428 87.5555 61.4775 87.5632 61.7545C87.5632 61.8853 87.6055 61.9507 87.6901 61.9507C87.8055 61.9507 87.9479 61.8776 88.1171 61.7314C88.2864 61.5852 88.4556 61.4275 88.6249 61.2583C88.7942 61.0813 88.948 60.9197 89.0865 60.7735C89.2327 60.6274 89.3327 60.5543 89.3866 60.5543C89.4943 60.5543 89.5481 60.6851 89.5481 60.9467C89.5481 61.4852 89.2827 62.0045 88.7518 62.5046C87.8594 63.0278 87.2939 63.2894 87.0554 63.2894C87.0323 63.2894 87.0131 63.2855 86.9977 63.2778C86.7053 63.2778 86.4976 63.1817 86.3745 62.9893C86.2591 62.797 86.186 62.5546 86.1552 62.2623C86.0013 62.5469 85.7898 62.7931 85.5205 63.0009C85.2512 63.2009 84.9435 63.3009 84.5973 63.3009C83.9894 63.3009 83.5201 63.1855 83.1893 62.9547C82.8662 62.7239 82.7046 62.3815 82.7046 61.9276C82.7046 61.7276 82.7315 61.5429 82.7854 61.3737C82.8469 61.2044 82.9431 60.9967 83.0739 60.7505L83.4086 57.9115C83.6471 57.7268 83.9894 57.6345 84.4357 57.6345C84.7896 57.6345 84.9896 57.8653 85.0358 58.327C85.0743 58.7039 85.055 59.0425 84.9781 59.3425C84.9088 59.6349 84.8127 60.008 84.6896 60.462C84.5665 60.9082 84.5049 61.3044 84.5049 61.6506C84.5049 61.9276 84.678 62.0661 85.0243 62.0661C85.4012 62.0661 85.7282 61.7353 86.0052 61.0736C86.2206 60.5658 86.3668 60.0003 86.4437 59.3771C86.436 59.3156 86.4283 59.2387 86.4207 59.1463C86.4207 59.0463 86.4168 58.9501 86.4091 58.8578C86.4091 58.7655 86.4091 58.6732 86.4091 58.5808V58.3731ZM91.6047 57.6576C92.1202 57.6499 92.5049 57.7461 92.7588 57.9461C93.0126 58.1385 93.1396 58.4193 93.1396 58.7886C93.1396 59.1502 93.028 59.4618 92.8049 59.7234C92.5895 59.9773 92.3241 60.1581 92.0086 60.2658C92.2317 60.4966 92.4318 60.7312 92.6087 60.9697C92.7934 61.2082 92.8857 61.4583 92.8857 61.7199C92.8857 62.2354 92.6818 62.6354 92.2741 62.9201C91.8663 63.1971 91.297 63.3355 90.5661 63.3355C89.8428 63.3355 89.3004 63.1932 88.9388 62.9085C88.5772 62.6162 88.3964 62.2892 88.3964 61.9276C88.3964 61.5583 88.4849 61.2236 88.6619 60.9236C88.8465 60.6235 89.0427 60.4735 89.2504 60.4735C89.3735 60.4735 89.462 60.5197 89.5159 60.612C89.5697 60.6966 89.6697 60.9505 89.8159 61.3737C89.8698 61.5275 89.9583 61.6737 90.0814 61.8122C90.366 62.1276 90.8161 62.2854 91.4316 62.2854C91.3393 61.993 91.1892 61.743 90.9815 61.5352C90.7815 61.3198 90.5814 61.1121 90.3814 60.912C90.1814 60.712 90.0044 60.5004 89.8505 60.2773C89.6967 60.0465 89.6197 59.7772 89.6197 59.4695C89.6197 58.9155 89.8275 58.4654 90.2429 58.1192C90.6353 57.8115 91.0892 57.6576 91.6047 57.6576ZM91.5585 59.7926C91.8663 59.4618 92.0202 59.1963 92.0202 58.9963C92.0202 58.904 91.9855 58.8232 91.9163 58.754C91.8547 58.677 91.7624 58.6385 91.6393 58.6385C91.5162 58.6385 91.397 58.6539 91.2816 58.6847C91.1739 58.7155 91.0854 58.7386 91.0161 58.754C91.0161 59.0463 91.1969 59.3925 91.5585 59.7926ZM94.1132 62.62C94.0286 62.4123 93.9671 62.1738 93.9286 61.9045C93.8901 61.6275 93.8709 61.2429 93.8709 60.7505C93.8709 60.2581 93.9632 59.5926 94.1479 58.754H93.6285C93.5362 58.754 93.4901 58.7155 93.4901 58.6385C93.4901 58.4539 93.5054 58.3039 93.5362 58.1885C93.5747 58.0654 93.6593 57.9269 93.7901 57.773H94.0671C94.1748 57.773 94.2902 57.7692 94.4133 57.7615C94.7826 56.5766 95.1596 55.9842 95.5443 55.9842C95.852 55.9919 96.0674 56.1881 96.1905 56.5728C96.2213 56.6805 96.2559 56.7959 96.2944 56.919L95.8212 57.7499C96.3598 57.7653 96.6983 57.773 96.8368 57.773C96.983 57.773 97.0599 57.7884 97.0676 57.8192C97.083 57.8423 97.0907 57.8807 97.0907 57.9346C97.0907 58.0731 97.0561 58.2462 96.9868 58.4539C96.9253 58.6616 96.8522 58.7616 96.7676 58.754L95.6135 58.6963C95.4519 59.6349 95.3712 60.4119 95.3712 61.0274C95.3712 61.6429 95.4596 61.9507 95.6366 61.9507C95.7828 61.9507 96.0482 61.8314 96.4329 61.5929C96.8176 61.3467 97.0945 61.1121 97.2638 60.889C97.4331 60.6658 97.5716 60.5543 97.6793 60.5543C97.787 60.5543 97.8408 60.6851 97.8408 60.9467C97.8408 61.2082 97.7485 61.4775 97.5639 61.7545C97.3792 62.0238 97.1446 62.2738 96.8599 62.5046C96.5829 62.7277 96.2713 62.9124 95.9251 63.0586C95.5866 63.2048 95.2904 63.2778 95.0365 63.2778C94.7826 63.2778 94.5864 63.2201 94.4479 63.1047C94.3171 62.9816 94.2056 62.8201 94.1132 62.62ZM98.9531 61.3044L99.0224 62.7124C99.0224 62.897 98.9262 63.0624 98.7339 63.2086C98.5415 63.3548 98.2799 63.4279 97.9491 63.4279C97.7568 63.4279 97.6221 63.3279 97.5452 63.1278C97.476 62.9278 97.4413 62.6354 97.4413 62.2507C97.4413 61.4429 97.4798 60.812 97.5567 60.3581C97.6414 59.8965 97.8029 59.431 98.0414 58.9617C97.6875 58.6232 97.5106 58.3308 97.5106 58.0846C97.5106 57.5691 97.7875 57.3114 98.3415 57.3114C98.6262 57.3114 98.8762 57.4614 99.0916 57.7615C99.2455 57.9692 99.3571 58.2115 99.4263 58.4885C99.534 58.527 99.6687 58.5462 99.8302 58.5462C100.053 58.5462 100.311 58.4731 100.603 58.327L100.903 58.1769C100.996 58.1308 101.077 58.1077 101.146 58.1077C101.369 58.1077 101.592 58.4347 101.815 59.0886C101.746 59.3887 101.669 59.6772 101.584 59.9542C101.507 60.2311 101.415 60.5658 101.307 60.9582C101.2 61.3506 101.142 61.616 101.134 61.7545C101.134 61.8853 101.177 61.9507 101.261 61.9507C101.377 61.9507 101.519 61.8776 101.688 61.7314C101.858 61.5852 102.027 61.4275 102.196 61.2583C102.365 61.0813 102.519 60.9197 102.658 60.7735C102.804 60.6274 102.904 60.5543 102.958 60.5543C103.065 60.5543 103.119 60.6851 103.119 60.9467C103.119 61.4775 102.885 62.0007 102.415 62.5162C101.954 63.0316 101.423 63.2855 100.823 63.2778C100.469 63.2778 100.203 63.1355 100.026 62.8508C99.8495 62.5662 99.7571 62.22 99.7494 61.8122C99.7494 61.0044 99.9302 60.2388 100.292 59.5156C100.123 59.5849 99.9302 59.6195 99.7148 59.6195C99.5071 59.6195 99.3571 59.6118 99.2647 59.5964C99.1955 59.8888 99.1263 60.185 99.057 60.485C98.9878 60.7774 98.9531 61.0505 98.9531 61.3044ZM109.629 60.5197C109.767 60.5197 109.836 60.6966 109.836 61.0505C109.836 61.2429 109.755 61.4775 109.594 61.7545C109.432 62.0238 109.221 62.2738 108.959 62.5046C108.705 62.7277 108.421 62.9124 108.105 63.0586C107.79 63.2048 107.482 63.2778 107.182 63.2778C106.774 63.2778 106.501 62.9201 106.363 62.2046C106.162 62.5354 105.901 62.8085 105.578 63.024C105.255 63.2317 104.82 63.3355 104.274 63.3355C103.735 63.3355 103.3 63.1663 102.97 62.8278C102.639 62.4892 102.477 62.0776 102.485 61.5929C102.485 60.285 102.92 59.254 103.789 58.5001C104.158 58.1846 104.501 57.9769 104.816 57.8769C105.139 57.7769 105.478 57.7268 105.832 57.7268C106.186 57.7268 106.474 57.7884 106.697 57.9115C106.805 57.6884 106.928 57.5768 107.067 57.5768C107.336 57.5768 107.59 57.6961 107.828 57.9346C108.074 58.1654 108.197 58.3847 108.197 58.5924C108.09 58.8463 107.932 59.1502 107.724 59.5041C107.663 59.858 107.632 60.3542 107.632 60.9928C107.632 61.6314 107.713 61.9507 107.874 61.9507C108.074 61.9507 108.559 61.5506 109.328 60.7505C109.467 60.5966 109.567 60.5197 109.629 60.5197ZM104.181 61.2121C104.181 61.8045 104.401 62.1007 104.839 62.1007C105.308 62.093 105.697 61.843 106.005 61.3506C106.112 61.1813 106.201 60.9736 106.27 60.7274C106.27 59.8657 106.347 59.1271 106.501 58.5116C105.878 58.6347 105.335 58.9348 104.874 59.4118C104.412 59.8888 104.181 60.4889 104.181 61.2121ZM109.767 62.62C109.683 62.4123 109.621 62.1738 109.583 61.9045C109.544 61.6275 109.525 61.2429 109.525 60.7505C109.525 60.2581 109.617 59.5926 109.802 58.754H109.283C109.19 58.754 109.144 58.7155 109.144 58.6385C109.144 58.4539 109.16 58.3039 109.19 58.1885C109.229 58.0654 109.313 57.9269 109.444 57.773H109.721C109.829 57.773 109.944 57.7692 110.067 57.7615C110.437 56.5766 110.814 55.9842 111.198 55.9842C111.506 55.9919 111.722 56.1881 111.845 56.5728C111.875 56.6805 111.91 56.7959 111.949 56.919L111.475 57.7499C112.014 57.7653 112.352 57.773 112.491 57.773C112.637 57.773 112.714 57.7884 112.722 57.8192C112.737 57.8423 112.745 57.8807 112.745 57.9346C112.745 58.0731 112.71 58.2462 112.641 58.4539C112.579 58.6616 112.506 58.7616 112.422 58.754L111.268 58.6963C111.106 59.6349 111.025 60.4119 111.025 61.0274C111.025 61.6429 111.114 61.9507 111.291 61.9507C111.437 61.9507 111.702 61.8314 112.087 61.5929C112.472 61.3467 112.749 61.1121 112.918 60.889C113.087 60.6658 113.226 60.5543 113.333 60.5543C113.441 60.5543 113.495 60.6851 113.495 60.9467C113.495 61.2082 113.403 61.4775 113.218 61.7545C113.033 62.0238 112.799 62.2738 112.514 62.5046C112.237 62.7277 111.925 62.9124 111.579 63.0586C111.241 63.2048 110.944 63.2778 110.691 63.2778C110.437 63.2778 110.241 63.2201 110.102 63.1047C109.971 62.9816 109.86 62.8201 109.767 62.62ZM117.585 62.2623C116.977 62.9778 116.246 63.3355 115.392 63.3355C114.546 63.3355 113.911 63.1201 113.488 62.6893C113.065 62.2507 112.857 61.7083 112.865 61.0621C112.857 60.1465 113.145 59.3579 113.73 58.6963C114.315 58.0346 115.08 57.7038 116.027 57.7038C116.458 57.7038 116.804 57.7576 117.065 57.8653C117.519 58.05 117.746 58.2231 117.746 58.3847C117.746 58.5078 117.427 58.5732 116.788 58.5808C116.158 58.5808 115.627 58.8001 115.196 59.2387C114.773 59.6695 114.561 60.2158 114.561 60.8774C114.561 61.2236 114.661 61.516 114.861 61.7545C115.069 61.9853 115.357 62.1007 115.727 62.1007C116.104 62.1007 116.415 62.0238 116.661 61.8699C116.115 61.5006 115.842 60.9659 115.842 60.2658C115.834 59.8965 115.965 59.5618 116.234 59.2617C116.511 58.954 116.862 58.8001 117.285 58.8001C117.716 58.7924 118.023 58.9078 118.208 59.1463C118.393 59.3848 118.485 59.6926 118.485 60.0696C118.485 60.4389 118.396 60.8313 118.219 61.2467H118.289C118.627 61.239 118.92 61.1198 119.166 60.889C119.258 60.7966 119.335 60.7158 119.397 60.6466C119.466 60.5774 119.535 60.5427 119.604 60.5427C119.712 60.5427 119.766 60.6697 119.766 60.9236C119.766 61.3929 119.627 61.7468 119.35 61.9853C119.073 62.2161 118.766 62.3315 118.427 62.3315C118.096 62.3315 117.816 62.3084 117.585 62.2623ZM117.481 60.9236C117.612 60.6466 117.677 60.3773 117.677 60.1157C117.677 59.8542 117.592 59.7234 117.423 59.7234C117.354 59.7234 117.296 59.7734 117.25 59.8734C117.204 59.9734 117.181 60.0696 117.181 60.1619C117.181 60.4696 117.281 60.7235 117.481 60.9236ZM120.873 61.3044L120.943 62.7124C120.943 62.897 120.846 63.0624 120.654 63.2086C120.462 63.3548 120.2 63.4279 119.869 63.4279C119.677 63.4279 119.542 63.3279 119.465 63.1278C119.396 62.9278 119.362 62.6354 119.362 62.2507C119.362 61.4429 119.4 60.812 119.477 60.3581C119.562 59.8965 119.723 59.431 119.962 58.9617C119.608 58.6232 119.431 58.3308 119.431 58.0846C119.431 57.5691 119.708 57.3114 120.262 57.3114C120.546 57.3114 120.796 57.4614 121.012 57.7615C121.166 57.9692 121.277 58.2115 121.347 58.4885C121.454 58.527 121.589 58.5462 121.75 58.5462C121.974 58.5462 122.231 58.4731 122.524 58.327L122.824 58.1769C122.916 58.1308 122.997 58.1077 123.066 58.1077C123.289 58.1077 123.512 58.4347 123.735 59.0886C123.666 59.3887 123.589 59.6772 123.505 59.9542C123.428 60.2311 123.335 60.5658 123.228 60.9582C123.12 61.3506 123.062 61.616 123.055 61.7545C123.055 61.8853 123.097 61.9507 123.182 61.9507C123.297 61.9507 123.439 61.8776 123.609 61.7314C123.778 61.5852 123.947 61.4275 124.116 61.2583C124.286 61.0813 124.439 60.9197 124.578 60.7735C124.724 60.6274 124.824 60.5543 124.878 60.5543C124.986 60.5543 125.04 60.6851 125.04 60.9467C125.04 61.4775 124.805 62.0007 124.336 62.5162C123.874 63.0316 123.343 63.2855 122.743 63.2778C122.389 63.2778 122.124 63.1355 121.947 62.8508C121.77 62.5662 121.677 62.22 121.67 61.8122C121.67 61.0044 121.851 60.2388 122.212 59.5156C122.043 59.5849 121.851 59.6195 121.635 59.6195C121.427 59.6195 121.277 59.6118 121.185 59.5964C121.116 59.8888 121.047 60.185 120.977 60.485C120.908 60.7774 120.873 61.0505 120.873 61.3044Z" fill="black"/>
<path d="M98.0899 91.8005C98.0899 90.3434 96.9048 89.1467 95.457 89.3118C90.3464 89.8948 85.5456 92.1631 81.8359 95.7977C77.4948 100.051 74.9939 105.837 74.8697 111.913C74.7456 117.989 77.0081 123.872 81.1718 128.299C85.3355 132.726 91.0687 135.345 97.1411 135.593C103.214 135.841 109.141 133.699 113.653 129.627C118.164 125.554 120.899 119.876 121.271 113.81C121.644 107.744 119.623 101.773 115.644 97.18C112.243 93.2546 107.644 90.602 102.598 89.6038C101.168 89.321 99.8894 90.417 99.7705 91.8692C99.6515 93.3215 100.74 94.5759 102.159 94.9063C105.828 95.7604 109.16 97.7542 111.656 100.635C114.731 104.185 116.292 108.799 116.005 113.487C115.717 118.175 113.603 122.563 110.117 125.71C106.63 128.857 102.049 130.512 97.3567 130.321C92.6639 130.129 88.2333 128.105 85.0156 124.684C81.7979 121.262 80.0494 116.716 80.1453 112.021C80.2413 107.325 82.174 102.854 85.5289 99.5669C88.2514 96.8993 91.7345 95.1842 95.461 94.6324C96.9024 94.419 98.0899 93.2577 98.0899 91.8005Z" fill="black"/>
<ellipse cx="98.354" cy="112.387" rx="18.7384" ry="18.4745" fill="white"/>
<path d="M99.2344 104.395C99.2344 105.089 97.8764 107.087 95.1605 110.389C95.2802 111.024 95.3938 111.634 95.5015 112.22C95.6092 112.794 95.7288 113.303 95.8604 113.745C95.992 114.176 96.1416 114.523 96.3091 114.786C96.4886 115.05 96.686 115.181 96.9013 115.181C97.1167 115.181 97.356 115.067 97.6192 114.84C97.8824 114.613 98.1456 114.368 98.4089 114.104C98.6721 113.829 98.9114 113.578 99.1267 113.351C99.354 113.123 99.5096 113.01 99.5933 113.01C99.7608 113.01 99.8446 113.213 99.8446 113.62C99.8446 114.445 99.4199 115.259 98.5704 116.061C97.7209 116.85 96.8236 117.245 95.8784 117.245C94.8853 117.245 94.1017 116.384 93.5274 114.661C93.3599 114.146 93.1984 113.602 93.0428 113.028C92.6958 113.482 92.325 113.967 91.9301 114.481C91.5353 114.984 91.1106 115.45 90.6559 115.881C89.627 116.874 88.6818 117.371 87.8203 117.371C87.5571 117.371 87.3537 117.329 87.2102 117.245C87.0666 117.161 86.9948 117.083 86.9948 117.012C86.9948 116.928 87.0427 116.85 87.1384 116.778C87.2341 116.707 87.4853 116.485 87.8921 116.114C89.6629 114.487 91.2123 112.705 92.5403 110.766C92.313 109.618 92.0976 108.631 91.8942 107.805C91.5473 107.901 91.1824 107.949 90.7995 107.949C89.9261 107.949 89.2322 107.799 88.7177 107.5C88.0596 107.129 87.7306 106.597 87.7306 105.903C87.7306 105.209 87.952 104.652 88.3946 104.234C88.8373 103.815 89.3877 103.606 90.0457 103.606C90.7157 103.606 91.2781 103.719 91.7327 103.947C92.1874 104.162 92.5942 104.461 92.9531 104.844C93.5633 105.49 94.0777 106.459 94.4965 107.751C94.7238 107.38 94.9631 106.997 95.2144 106.603C95.4776 106.196 95.7169 105.813 95.9322 105.454C96.1595 105.095 96.3629 104.778 96.5424 104.503C96.7219 104.228 96.8535 104.024 96.9372 103.893C97.0329 103.749 97.1646 103.671 97.3321 103.659C97.7149 103.647 98.1277 103.713 98.5704 103.857C99.0131 103.988 99.2344 104.168 99.2344 104.395ZM90.3508 105.185C90.1355 105.185 90.0278 105.334 90.0278 105.634C90.0278 105.921 90.1714 106.184 90.4585 106.423C90.7576 106.662 91.1524 106.83 91.643 106.926C91.2721 105.765 90.8414 105.185 90.3508 105.185ZM109.974 112.956C110.19 112.956 110.298 113.231 110.298 113.781C110.298 114.08 110.172 114.445 109.921 114.876C109.669 115.295 109.34 115.684 108.934 116.043C108.539 116.39 108.096 116.677 107.606 116.904C107.115 117.131 106.636 117.245 106.17 117.245C105.512 117.245 105.081 116.707 104.878 115.63C104.16 116.766 103.095 117.335 101.683 117.335C100.822 117.335 100.134 117.072 99.6193 116.545C99.1048 116.019 98.8535 115.379 98.8655 114.625C98.8655 112.591 99.5415 110.988 100.893 109.815C101.827 109.013 102.796 108.613 103.801 108.613C104.255 108.613 104.614 108.649 104.878 108.72L105.29 108.828C105.781 106.519 106.349 104.975 106.995 104.198C107.211 103.935 107.426 103.803 107.641 103.803C107.988 103.803 108.311 104.042 108.611 104.521C108.874 104.916 109.005 105.257 109.005 105.544C109.005 105.831 108.963 106.112 108.88 106.387C108.796 106.662 108.688 106.92 108.557 107.159C108.437 107.386 108.299 107.614 108.144 107.841C107.988 108.056 107.833 108.278 107.677 108.505C107.33 109.797 107.073 111.245 106.906 112.848C106.858 113.303 106.834 113.668 106.834 113.943C106.834 114.768 106.971 115.181 107.247 115.181C107.558 115.181 108.311 114.559 109.508 113.315C109.723 113.075 109.879 112.956 109.974 112.956ZM101.504 114.033C101.504 114.954 101.845 115.414 102.527 115.414C102.933 115.414 103.34 115.259 103.747 114.948C104.166 114.637 104.489 114.116 104.716 113.386C104.74 112.31 104.866 111.125 105.093 109.833C104.136 110.024 103.298 110.491 102.58 111.233C101.863 111.975 101.504 112.908 101.504 114.033Z" fill="black"/>
<path d="M81.9639 149.835C82.0947 149.835 82.1601 150.012 82.1601 150.366C82.1601 150.558 82.0793 150.793 81.9178 151.069C81.7562 151.339 81.5446 151.589 81.283 151.82C81.0291 152.043 80.7445 152.227 80.429 152.374C80.1136 152.52 79.8058 152.593 79.5058 152.593C79.0519 152.593 78.7364 152.481 78.5595 152.258C78.3902 152.027 78.3056 151.693 78.3056 151.254C78.3056 150.808 78.4787 150.046 78.8249 148.969C77.7632 148.923 76.9899 148.9 76.5052 148.9H76.3437C76.2052 149.754 76.1359 150.65 76.1359 151.589C76.1359 152.004 75.9782 152.289 75.6628 152.443C75.5166 152.512 75.3743 152.577 75.2358 152.639C75.105 152.701 74.9627 152.731 74.8088 152.731C74.4241 152.731 74.2318 152.385 74.2318 151.693C74.2318 151 74.3895 150.112 74.7049 149.027C74.3664 149.065 74.0663 149.104 73.8048 149.142C73.5509 149.181 73.3508 149.2 73.2046 149.2C73.0585 149.2 72.9854 149.161 72.9854 149.085C72.9854 148.854 73.1739 148.619 73.5509 148.381C73.9355 148.142 74.4549 147.961 75.1088 147.838C75.832 145.999 76.7168 144.772 77.7632 144.157C78.1478 143.926 78.5556 143.81 78.9865 143.81C79.7558 143.818 80.3098 144.026 80.6483 144.434C80.9945 144.841 81.1676 145.384 81.1676 146.061C81.1753 146.73 80.9714 147.603 80.556 148.681C80.4021 149.096 80.2598 149.473 80.129 149.812C79.9982 150.15 79.9328 150.423 79.9328 150.631C79.9328 150.839 79.9482 150.996 79.9789 151.104C80.0097 151.212 80.0828 151.266 80.1982 151.266C80.4059 151.266 80.8945 150.866 81.6639 150.065C81.8023 149.912 81.9024 149.835 81.9639 149.835ZM79.5058 146.396C79.5058 145.726 79.2557 145.392 78.7556 145.392C78.2479 145.392 77.8093 145.607 77.44 146.038C77.0784 146.461 76.7976 147.03 76.5976 147.746L79.2173 147.78C79.4096 147.165 79.5058 146.703 79.5058 146.396ZM88.6726 149.835C88.8111 149.835 88.8803 150.012 88.8803 150.366C88.8803 150.558 88.7995 150.793 88.638 151.069C88.4764 151.339 88.2648 151.589 88.0032 151.82C87.7493 152.043 87.4647 152.227 87.1492 152.374C86.8338 152.52 86.526 152.593 86.226 152.593C85.8028 152.593 85.5259 152.247 85.3951 151.554C84.9334 152.285 84.2487 152.651 83.3408 152.651C82.7869 152.651 82.3445 152.481 82.0137 152.143C81.6829 151.804 81.5213 151.393 81.529 150.908C81.529 149.6 81.9637 148.569 82.8331 147.815C83.4332 147.3 84.0564 147.042 84.7026 147.042C84.995 147.042 85.2258 147.065 85.3951 147.111L85.6605 147.18C85.9759 145.695 86.3414 144.703 86.7568 144.203C86.8953 144.034 87.0338 143.949 87.1723 143.949C87.3954 143.949 87.6032 144.103 87.7955 144.411C87.9648 144.664 88.0494 144.884 88.0494 145.068C88.0494 145.253 88.0225 145.434 87.9686 145.611C87.9147 145.788 87.8455 145.953 87.7609 146.107C87.6839 146.253 87.5955 146.399 87.4954 146.546C87.3954 146.684 87.2954 146.826 87.1954 146.973C86.9723 147.804 86.8069 148.734 86.6991 149.765C86.6684 150.058 86.653 150.292 86.653 150.469C86.653 151 86.7415 151.266 86.9184 151.266C87.1185 151.266 87.6032 150.866 88.3725 150.065C88.511 149.912 88.611 149.835 88.6726 149.835ZM83.2254 150.527C83.2254 151.12 83.4447 151.416 83.8833 151.416C84.1448 151.416 84.4064 151.316 84.668 151.116C84.9373 150.916 85.145 150.581 85.2912 150.112C85.3066 149.419 85.3874 148.658 85.5336 147.827C84.9181 147.95 84.3795 148.25 83.9179 148.727C83.4563 149.204 83.2254 149.804 83.2254 150.527ZM92.966 151.577C92.3582 152.293 91.6273 152.651 90.7733 152.651C89.927 152.651 89.2923 152.435 88.8691 152.004C88.446 151.566 88.2382 151.023 88.2459 150.377C88.2382 149.462 88.5268 148.673 89.1115 148.011C89.6962 147.35 90.4617 147.019 91.408 147.019C91.8389 147.019 92.1851 147.073 92.4467 147.18C92.9006 147.365 93.1276 147.538 93.1276 147.7C93.1276 147.823 92.8083 147.888 92.1697 147.896C91.5388 147.896 91.008 148.115 90.5771 148.554C90.154 148.985 89.9424 149.531 89.9424 150.192C89.9424 150.539 90.0424 150.831 90.2425 151.069C90.4502 151.3 90.7387 151.416 91.108 151.416C91.485 151.416 91.7966 151.339 92.0428 151.185C91.4965 150.816 91.2234 150.281 91.2234 149.581C91.2157 149.211 91.3465 148.877 91.6158 148.577C91.8927 148.269 92.2428 148.115 92.666 148.115C93.0968 148.107 93.4046 148.223 93.5892 148.461C93.7739 148.7 93.8662 149.008 93.8662 149.385C93.8662 149.754 93.7777 150.146 93.6007 150.562H93.67C94.0085 150.554 94.3009 150.435 94.5471 150.204C94.6394 150.112 94.7163 150.031 94.7779 149.962C94.8471 149.892 94.9164 149.858 94.9856 149.858C95.0933 149.858 95.1472 149.985 95.1472 150.239C95.1472 150.708 95.0087 151.062 94.7317 151.3C94.4547 151.531 94.147 151.647 93.8085 151.647C93.4776 151.647 93.1968 151.623 92.966 151.577ZM92.8622 150.239C92.9929 149.962 93.0583 149.692 93.0583 149.431C93.0583 149.169 92.9737 149.038 92.8045 149.038C92.7352 149.038 92.6775 149.088 92.6313 149.188C92.5852 149.288 92.5621 149.385 92.5621 149.477C92.5621 149.785 92.6621 150.039 92.8622 150.239ZM95.5392 147.134C94.9699 146.888 94.6852 146.649 94.6852 146.419C94.6852 146.296 94.7352 146.238 94.8352 146.246C94.9737 146.246 95.1314 146.28 95.3084 146.349C95.4853 146.411 95.6661 146.461 95.8508 146.499C96.4817 145.307 97.1972 144.526 97.9973 144.157C98.2666 144.034 98.5359 143.968 98.8052 143.961C99.336 143.961 99.74 144.091 100.017 144.353C100.302 144.607 100.444 144.918 100.444 145.288C100.444 145.949 100.086 146.461 99.3707 146.823C98.7859 147.115 97.9896 147.296 96.9818 147.365C96.6202 148.257 96.4394 149.215 96.4394 150.239C96.4394 151 96.6163 151.443 96.9702 151.566C97.2164 151.65 97.4011 151.654 97.5242 151.577C97.6473 151.493 97.7434 151.385 97.8127 151.254C97.8819 151.116 97.9166 150.916 97.9166 150.654C97.9242 150.392 97.8512 150.173 97.6973 149.996C97.5511 149.812 97.4088 149.642 97.2703 149.488C97.3395 149.235 97.4395 149.023 97.5703 148.854C97.8165 148.523 98.0281 148.357 98.2051 148.357C98.382 148.357 98.5244 148.419 98.6321 148.542C98.7475 148.665 98.8398 148.819 98.909 149.004C98.9783 149.188 99.0321 149.388 99.0706 149.604C99.1168 149.819 99.1668 150.019 99.2206 150.204C99.2745 150.389 99.3399 150.542 99.4168 150.666C99.5015 150.789 99.6092 150.85 99.74 150.85C99.8784 150.85 100.002 150.8 100.109 150.7C100.217 150.592 100.313 150.477 100.398 150.354C100.482 150.231 100.559 150.119 100.629 150.019C100.698 149.912 100.767 149.858 100.836 149.858C100.913 149.858 100.986 149.919 101.056 150.042C101.133 150.165 101.171 150.281 101.171 150.389C101.171 150.635 101.048 150.927 100.802 151.266C100.563 151.604 100.255 151.773 99.8784 151.773C99.5015 151.766 99.2091 151.685 99.0014 151.531C98.8706 151.854 98.6475 152.124 98.332 152.339C98.0166 152.554 97.5665 152.662 96.9818 152.662C96.4047 152.662 95.9085 152.512 95.493 152.212C94.9929 151.85 94.7429 151.289 94.7429 150.527C94.7429 149.442 95.0083 148.311 95.5392 147.134ZM99.1745 145.495C99.1668 145.226 99.0668 145.091 98.8744 145.091C98.6898 145.091 98.4474 145.234 98.1474 145.518C97.8473 145.803 97.5588 146.199 97.2818 146.707C98.1204 146.561 98.6936 146.303 99.0014 145.934C99.1091 145.795 99.1668 145.649 99.1745 145.495ZM103.221 151.3C103.821 151.3 104.402 151.062 104.963 150.585C105.171 150.408 105.34 150.246 105.471 150.1C105.602 149.946 105.702 149.869 105.771 149.869C105.879 149.869 105.933 149.977 105.933 150.192C105.933 150.408 105.875 150.65 105.76 150.919C105.644 151.181 105.452 151.439 105.182 151.693C104.521 152.316 103.613 152.627 102.459 152.627C101.543 152.627 100.92 152.297 100.589 151.635C100.474 151.404 100.416 151.073 100.416 150.642C100.416 150.212 100.501 149.765 100.67 149.304C100.839 148.834 101.063 148.431 101.339 148.092C101.624 147.754 101.951 147.492 102.32 147.307C102.69 147.115 103.082 147.019 103.498 147.019C103.921 147.019 104.244 147.123 104.467 147.33C104.698 147.538 104.813 147.807 104.813 148.138C104.813 148.469 104.729 148.742 104.559 148.958C104.398 149.165 104.186 149.342 103.925 149.488C103.663 149.627 103.371 149.754 103.047 149.869C102.732 149.977 102.42 150.1 102.113 150.239V150.527C102.12 150.804 102.236 151 102.459 151.116C102.682 151.231 102.936 151.293 103.221 151.3ZM103.024 148.046C102.624 148.046 102.347 148.511 102.193 149.442C102.355 149.335 102.505 149.238 102.644 149.154C102.79 149.069 102.917 148.988 103.024 148.911C103.255 148.742 103.374 148.55 103.382 148.334C103.382 148.142 103.263 148.046 103.024 148.046ZM112.307 151.346C112.084 151.7 111.876 152 111.684 152.247C111.499 152.485 111.349 152.604 111.234 152.604C111.011 152.604 110.811 152.554 110.634 152.454C110.457 152.354 110.372 152.25 110.38 152.143C110.38 152.135 110.422 152.081 110.507 151.981C110.999 151.389 111.48 150.789 111.949 150.181C111.788 149.581 111.638 149.196 111.499 149.027C111.438 148.95 111.369 148.915 111.292 148.923C110.999 148.923 110.788 148.842 110.657 148.681C110.526 148.519 110.461 148.357 110.461 148.196C110.461 147.927 110.568 147.638 110.784 147.33C111.007 147.023 111.253 146.869 111.522 146.869C111.799 146.869 112.08 147.019 112.365 147.319C112.65 147.611 112.903 148 113.127 148.484L113.161 148.6C113.261 148.477 113.369 148.35 113.484 148.219C113.9 147.704 114.146 147.373 114.223 147.226C114.3 147.08 114.384 147.007 114.477 147.007C114.677 147.007 114.877 147.05 115.077 147.134C115.277 147.219 115.373 147.334 115.365 147.48C115.365 147.627 115.319 147.754 115.227 147.861C115.142 147.961 115.019 148.084 114.858 148.231C114.696 148.369 114.5 148.546 114.269 148.761C114.038 148.977 113.78 149.265 113.496 149.627C113.696 150.204 113.834 150.573 113.911 150.735C114.088 151.089 114.254 151.266 114.408 151.266C114.523 151.266 114.665 151.193 114.835 151.046C115.004 150.9 115.173 150.743 115.342 150.573C115.512 150.396 115.665 150.235 115.804 150.089C115.95 149.942 116.05 149.869 116.104 149.869C116.212 149.869 116.266 150 116.266 150.262C116.266 150.8 115.992 151.323 115.446 151.831C114.908 152.339 114.331 152.593 113.715 152.593C113.423 152.593 113.161 152.477 112.93 152.247C112.707 152.008 112.499 151.708 112.307 151.346ZM122.776 149.835C122.914 149.835 122.984 150.012 122.984 150.366C122.984 150.558 122.903 150.793 122.741 151.069C122.58 151.339 122.368 151.589 122.106 151.82C121.853 152.043 121.568 152.227 121.252 152.374C120.937 152.52 120.629 152.593 120.329 152.593C119.906 152.593 119.629 152.247 119.498 151.554C119.037 152.285 118.352 152.651 117.444 152.651C116.89 152.651 116.448 152.481 116.117 152.143C115.786 151.804 115.624 151.393 115.632 150.908C115.632 149.6 116.067 148.569 116.936 147.815C117.536 147.3 118.16 147.042 118.806 147.042C119.098 147.042 119.329 147.065 119.498 147.111L119.764 147.18C120.079 145.695 120.445 144.703 120.86 144.203C120.999 144.034 121.137 143.949 121.276 143.949C121.499 143.949 121.706 144.103 121.899 144.411C122.068 144.664 122.153 144.884 122.153 145.068C122.153 145.253 122.126 145.434 122.072 145.611C122.018 145.788 121.949 145.953 121.864 146.107C121.787 146.253 121.699 146.399 121.599 146.546C121.499 146.684 121.399 146.826 121.299 146.973C121.075 147.804 120.91 148.734 120.802 149.765C120.772 150.058 120.756 150.292 120.756 150.469C120.756 151 120.845 151.266 121.022 151.266C121.222 151.266 121.706 150.866 122.476 150.065C122.614 149.912 122.714 149.835 122.776 149.835ZM117.329 150.527C117.329 151.12 117.548 151.416 117.986 151.416C118.248 151.416 118.51 151.316 118.771 151.116C119.04 150.916 119.248 150.581 119.394 150.112C119.41 149.419 119.491 148.658 119.637 147.827C119.021 147.95 118.483 148.25 118.021 148.727C117.559 149.204 117.329 149.804 117.329 150.527Z" fill="black"/>
<path d="M27.198 91.8005C27.198 90.3434 26.013 89.1467 24.5652 89.3118C19.8538 89.8493 15.3963 91.82 11.8125 94.9892C7.56682 98.7438 4.84058 103.921 4.14735 109.546C3.45411 115.172 4.84173 120.856 8.04882 125.529C11.2559 130.202 16.0611 133.541 21.5592 134.917C27.0573 136.293 32.8689 135.611 37.8991 133C42.9293 130.389 46.831 126.028 48.8693 120.739C50.9075 115.451 50.9415 109.6 48.965 104.288C47.2966 99.804 44.2928 95.9658 40.39 93.2724C39.1908 92.4448 37.5817 92.9422 36.8954 94.2276C36.209 95.5129 36.7095 97.0968 37.8804 97.964C40.6592 100.022 42.8005 102.852 44.0195 106.128C45.547 110.233 45.5207 114.755 43.9455 118.842C42.3704 122.929 39.3552 126.299 35.4678 128.317C31.5804 130.335 27.0893 130.862 22.8403 129.798C18.5914 128.735 14.878 126.155 12.3995 122.543C9.92108 118.932 8.84873 114.539 9.38446 110.192C9.92019 105.845 12.027 101.844 15.3081 98.9421C17.9265 96.6266 21.1484 95.1389 24.569 94.6324C26.0104 94.419 27.198 93.2577 27.198 91.8005Z" fill="black"/>
<ellipse cx="27.4618" cy="112.387" rx="18.7384" ry="18.4745" fill="white"/>
<path d="M21.5374 117.834C21.5374 118.169 21.2981 118.337 20.8196 118.337C20.0658 118.337 19.5513 118.193 19.2761 117.906C19.001 117.607 18.8634 117.11 18.8634 116.416C18.8753 115.34 19.1685 113.617 19.7428 111.248C20.329 108.879 20.8794 107.12 21.3938 105.971C21.5255 105.672 21.7109 105.391 21.9502 105.128C22.1895 104.853 22.5065 104.715 22.9014 104.715C23.0689 104.715 23.2065 104.817 23.3141 105.02C23.4338 105.224 23.4936 105.457 23.4936 105.72C23.4936 105.983 23.4457 106.378 23.35 106.905C23.2543 107.419 23.1347 108.011 22.9911 108.681C22.8475 109.351 22.686 110.075 22.5065 110.853C21.8605 113.808 21.5374 116.135 21.5374 117.834ZM35.1432 114.011C35.3586 114.011 35.4662 114.287 35.4662 114.837C35.4662 115.136 35.3406 115.501 35.0894 115.932C34.8381 116.351 34.5091 116.739 34.1023 117.098C33.7075 117.445 33.2648 117.732 32.7742 117.96C32.2837 118.187 31.8051 118.301 31.3385 118.301C30.6805 118.301 30.2498 117.762 30.0464 116.686C29.3285 117.822 28.2637 118.39 26.8519 118.39C25.9904 118.39 25.3025 118.127 24.788 117.601C24.2735 117.074 24.0223 116.434 24.0342 115.681C24.0342 113.647 24.7102 112.043 26.0622 110.871C26.9954 110.069 27.9646 109.668 28.9696 109.668C29.4242 109.668 29.7831 109.704 30.0464 109.776L30.4591 109.884C30.9497 107.575 31.518 106.031 32.1641 105.254C32.3794 104.99 32.5948 104.859 32.8101 104.859C33.1571 104.859 33.4801 105.098 33.7793 105.577C34.0425 105.971 34.1741 106.312 34.1741 106.6C34.1741 106.887 34.1322 107.168 34.0485 107.443C33.9647 107.718 33.857 107.975 33.7254 108.215C33.6058 108.442 33.4682 108.669 33.3126 108.897C33.1571 109.112 33.0016 109.333 32.846 109.561C32.4991 110.853 32.2418 112.301 32.0743 113.904C32.0265 114.358 32.0025 114.723 32.0025 114.999C32.0025 115.824 32.1401 116.237 32.4153 116.237C32.7264 116.237 33.4801 115.615 34.6766 114.37C34.8919 114.131 35.0475 114.011 35.1432 114.011ZM26.6724 115.088C26.6724 116.01 27.0134 116.47 27.6954 116.47C28.1021 116.47 28.5089 116.315 28.9157 116.004C29.3345 115.692 29.6575 115.172 29.8848 114.442C29.9088 113.365 30.0344 112.181 30.2617 110.889C29.3046 111.08 28.4671 111.547 27.7492 112.289C27.0313 113.03 26.6724 113.964 26.6724 115.088Z" fill="black"/>
<path d="M8.09126 152.005C8.09126 152.22 7.93738 152.328 7.62964 152.328C7.14493 152.328 6.8141 152.236 6.63715 152.051C6.46019 151.859 6.37172 151.539 6.37172 151.093C6.37941 150.401 6.56791 149.293 6.9372 147.769C7.31419 146.246 7.6681 145.115 7.99893 144.377C8.08356 144.184 8.20282 144.003 8.35669 143.834C8.51056 143.657 8.71445 143.569 8.96834 143.569C9.07605 143.569 9.16453 143.634 9.23377 143.765C9.31071 143.896 9.34918 144.046 9.34918 144.215C9.34918 144.384 9.3184 144.638 9.25685 144.977C9.1953 145.307 9.11837 145.688 9.02604 146.119C8.93372 146.55 8.82985 147.015 8.71445 147.516C8.29899 149.416 8.09126 150.912 8.09126 152.005ZM11.2894 146.512C11.5664 146.512 11.828 146.777 12.0742 147.308C12.4358 146.931 12.882 146.742 13.4129 146.742C13.9514 146.742 14.3554 146.862 14.6246 147.1C14.8939 147.331 15.0286 147.662 15.0286 148.093C15.0286 148.516 14.9709 148.947 14.8555 149.385C14.7477 149.824 14.667 150.139 14.6131 150.331C14.5669 150.516 14.5439 150.67 14.5439 150.793C14.5439 150.916 14.5862 150.978 14.6708 150.978C14.7862 150.978 14.9285 150.905 15.0978 150.758C15.2671 150.612 15.4363 150.455 15.6056 150.285C15.7749 150.108 15.9287 149.947 16.0672 149.801C16.2134 149.654 16.3134 149.581 16.3673 149.581C16.475 149.581 16.5288 149.712 16.5288 149.974C16.5288 150.512 16.2634 151.032 15.7325 151.532C14.8401 152.055 14.2707 152.316 14.0245 152.316C14.0015 152.316 13.9861 152.313 13.9784 152.305C13.3629 152.305 13.0551 151.812 13.0551 150.828C13.0551 150.405 13.0936 150.016 13.1705 149.662C13.2552 149.308 13.3167 149.05 13.3552 148.889C13.3937 148.727 13.4129 148.562 13.4129 148.393C13.4129 148.116 13.2513 147.977 12.9282 147.977C12.6127 147.977 12.3088 148.216 12.0165 148.693C11.7318 149.162 11.5395 149.651 11.4395 150.158V150.239C11.4395 150.501 11.4779 150.77 11.5549 151.047C11.6395 151.324 11.6818 151.516 11.6818 151.624C11.6818 151.886 11.3548 152.143 10.7009 152.397C10.6008 152.436 10.5124 152.455 10.4354 152.455C10.2431 152.455 10.1084 152.355 10.0315 152.155C9.96227 151.955 9.92765 151.643 9.92765 151.22C9.92765 150.128 9.96996 149.339 10.0546 148.854C10.17 148.131 10.4316 147.458 10.8393 146.835C10.9778 146.619 11.1279 146.512 11.2894 146.512ZM23.039 149.547C23.1774 149.547 23.2467 149.724 23.2467 150.078C23.2467 150.27 23.1659 150.505 23.0043 150.782C22.8428 151.051 22.6312 151.301 22.3696 151.532C22.1157 151.755 21.8311 151.939 21.5156 152.086C21.2002 152.232 20.8924 152.305 20.5924 152.305C20.1692 152.305 19.8922 151.959 19.7614 151.266C19.2998 151.997 18.6151 152.363 17.7072 152.363C17.1533 152.363 16.7109 152.193 16.3801 151.855C16.0492 151.516 15.8877 151.105 15.8954 150.62C15.8954 149.312 16.3301 148.281 17.1994 147.527C17.7996 147.012 18.4227 146.754 19.069 146.754C19.3614 146.754 19.5922 146.777 19.7614 146.823L20.0269 146.892C20.3423 145.407 20.7078 144.415 21.1232 143.915C21.2617 143.746 21.4002 143.661 21.5387 143.661C21.7618 143.661 21.9695 143.815 22.1619 144.123C22.3311 144.377 22.4158 144.596 22.4158 144.78C22.4158 144.965 22.3888 145.146 22.335 145.323C22.2811 145.5 22.2119 145.665 22.1273 145.819C22.0503 145.965 21.9618 146.111 21.8618 146.258C21.7618 146.396 21.6618 146.538 21.5618 146.685C21.3387 147.516 21.1732 148.446 21.0655 149.477C21.0348 149.77 21.0194 150.004 21.0194 150.181C21.0194 150.712 21.1078 150.978 21.2848 150.978C21.4848 150.978 21.9695 150.578 22.7389 149.778C22.8774 149.624 22.9774 149.547 23.039 149.547ZM17.5918 150.239C17.5918 150.832 17.8111 151.128 18.2496 151.128C18.5112 151.128 18.7728 151.028 19.0344 150.828C19.3037 150.628 19.5114 150.293 19.6576 149.824C19.673 149.131 19.7538 148.37 19.8999 147.539C19.2844 147.662 18.7459 147.962 18.2843 148.439C17.8226 148.916 17.5918 149.516 17.5918 150.239ZM25.359 151.012C25.9591 151.012 26.54 150.774 27.1016 150.297C27.3093 150.12 27.4786 149.958 27.6094 149.812C27.7402 149.658 27.8402 149.581 27.9094 149.581C28.0171 149.581 28.071 149.689 28.071 149.904C28.071 150.12 28.0133 150.362 27.8979 150.632C27.7825 150.893 27.5901 151.151 27.3209 151.405C26.6592 152.028 25.7514 152.34 24.5973 152.34C23.6817 152.34 23.0586 152.009 22.7277 151.347C22.6123 151.116 22.5546 150.785 22.5546 150.355C22.5546 149.924 22.6393 149.477 22.8085 149.016C22.9778 148.547 23.2009 148.143 23.4779 147.804C23.7625 147.466 24.0895 147.204 24.4588 147.019C24.8281 146.827 25.2205 146.731 25.6359 146.731C26.0591 146.731 26.3822 146.835 26.6054 147.042C26.8362 147.25 26.9516 147.519 26.9516 147.85C26.9516 148.181 26.8669 148.454 26.6977 148.67C26.5361 148.877 26.3245 149.054 26.0629 149.2C25.8014 149.339 25.509 149.466 25.1859 149.581C24.8704 149.689 24.5588 149.812 24.2511 149.951V150.239C24.2588 150.516 24.3742 150.712 24.5973 150.828C24.8204 150.943 25.0743 151.005 25.359 151.012ZM25.1628 147.758C24.7627 147.758 24.4857 148.223 24.3319 149.154C24.4934 149.047 24.6435 148.95 24.7819 148.866C24.9281 148.781 25.0551 148.7 25.1628 148.623C25.3936 148.454 25.5128 148.262 25.5205 148.046C25.5205 147.854 25.4013 147.758 25.1628 147.758ZM30.1249 146.685C30.6403 146.677 31.025 146.773 31.2789 146.973C31.5328 147.165 31.6597 147.446 31.6597 147.816C31.6597 148.177 31.5482 148.489 31.3251 148.75C31.1096 149.004 30.8442 149.185 30.5288 149.293C30.7519 149.524 30.9519 149.758 31.1289 149.997C31.3135 150.235 31.4059 150.485 31.4059 150.747C31.4059 151.262 31.202 151.662 30.7942 151.947C30.3864 152.224 29.8171 152.363 29.0862 152.363C28.363 152.363 27.8206 152.22 27.459 151.936C27.0974 151.643 26.9166 151.316 26.9166 150.955C26.9166 150.585 27.0051 150.251 27.182 149.951C27.3667 149.651 27.5629 149.501 27.7706 149.501C27.8937 149.501 27.9822 149.547 28.036 149.639C28.0899 149.724 28.1899 149.978 28.3361 150.401C28.3899 150.555 28.4784 150.701 28.6015 150.839C28.8862 151.155 29.3363 151.312 29.9517 151.312C29.8594 151.02 29.7094 150.77 29.5017 150.562C29.3016 150.347 29.1016 150.139 28.9016 149.939C28.7015 149.739 28.5246 149.527 28.3707 149.304C28.2168 149.074 28.1399 148.804 28.1399 148.497C28.1399 147.943 28.3476 147.492 28.7631 147.146C29.1555 146.839 29.6094 146.685 30.1249 146.685ZM30.0787 148.82C30.3864 148.489 30.5403 148.223 30.5403 148.023C30.5403 147.931 30.5057 147.85 30.4365 147.781C30.3749 147.704 30.2826 147.666 30.1595 147.666C30.0364 147.666 29.9171 147.681 29.8017 147.712C29.694 147.743 29.6055 147.766 29.5363 147.781C29.5363 148.073 29.7171 148.42 30.0787 148.82ZM33.5105 152.305C32.7411 152.305 32.3564 151.586 32.3564 150.147C32.3564 149.362 32.4526 148.65 32.6449 148.012C32.945 147.027 33.2835 146.535 33.6605 146.535C33.8836 146.535 34.0606 146.685 34.1914 146.985C34.2991 147.216 34.3491 147.442 34.3414 147.666C34.3414 147.973 34.2491 148.516 34.0644 149.293C33.8875 149.97 33.799 150.389 33.799 150.551C33.799 150.712 33.8375 150.824 33.9144 150.885C33.999 150.947 34.0952 150.978 34.2029 150.978C34.3183 150.978 34.4606 150.905 34.6299 150.758C34.7992 150.612 34.9684 150.455 35.1377 150.285C35.3069 150.108 35.4608 149.947 35.5993 149.801C35.7455 149.654 35.8455 149.581 35.8994 149.581C36.0071 149.581 36.0609 149.712 36.0609 149.974C36.0609 150.512 35.7878 151.039 35.2416 151.555C34.703 152.063 34.126 152.313 33.5105 152.305ZM33.9836 145.6C33.7759 145.292 33.672 144.961 33.672 144.607C33.672 144.253 33.7259 143.961 33.8336 143.73C33.949 143.492 34.0567 143.319 34.1567 143.211C34.2568 143.096 34.3722 143.038 34.503 143.038C34.7184 143.038 34.9146 143.199 35.0915 143.523C35.2685 143.838 35.357 144.103 35.357 144.319C35.357 144.719 35.2146 145.034 34.93 145.265C34.653 145.488 34.3375 145.6 33.9836 145.6ZM39.9041 147.019C40.0118 146.681 40.1849 146.512 40.4234 146.512C40.6389 146.519 40.8427 146.673 41.0351 146.973C41.2274 147.266 41.3236 147.492 41.3236 147.654C41.3082 147.969 41.212 148.473 41.0351 149.166C40.8581 149.851 40.6081 150.743 40.2849 151.843C40.7927 151.451 41.2928 150.939 41.7852 150.308C41.9545 150.093 42.0968 149.92 42.2122 149.789C42.3353 149.651 42.4353 149.581 42.5123 149.581C42.62 149.581 42.6738 149.704 42.6738 149.951C42.6738 150.435 42.4007 151.001 41.8545 151.647C41.3159 152.293 40.6542 152.797 39.8695 153.159C39.7772 153.467 39.6771 153.759 39.5694 154.036C39.4617 154.313 39.3232 154.555 39.154 154.763C38.7847 155.209 38.223 155.432 37.4691 155.432C36.9613 155.432 36.5266 155.286 36.165 154.994C35.8111 154.701 35.6341 154.336 35.6341 153.897C35.6341 153.659 35.711 153.47 35.8649 153.332C36.0265 153.194 36.2458 153.082 36.5227 152.997C36.7997 152.913 37.1228 152.84 37.4921 152.778C37.8691 152.716 38.2692 152.64 38.6924 152.547C38.7308 152.416 38.7616 152.289 38.7847 152.166C38.8155 152.036 38.8462 151.905 38.877 151.774C38.4538 152.166 37.9345 152.363 37.319 152.363C36.7112 152.363 36.2419 152.193 35.9111 151.855C35.5803 151.516 35.4187 151.105 35.4264 150.62C35.4264 149.312 35.8611 148.281 36.7305 147.527C37.3306 147.012 37.9538 146.754 38.6 146.754C38.8231 146.754 39.0617 146.781 39.3155 146.835C39.5771 146.889 39.7733 146.95 39.9041 147.019ZM37.1228 150.239C37.1228 150.832 37.3421 151.128 37.7807 151.128C38.0268 151.128 38.2769 151.035 38.5308 150.851C38.7847 150.666 38.9886 150.366 39.1424 149.951C39.2578 149.412 39.3771 148.916 39.5002 148.462C39.631 148.008 39.7195 147.693 39.7656 147.516C39.1194 147.6 38.5154 147.889 37.9538 148.381C37.3998 148.873 37.1228 149.493 37.1228 150.239ZM38.3346 153.609C38.0576 153.663 37.8153 153.705 37.6075 153.736C37.3998 153.767 37.2267 153.794 37.0882 153.817C36.9574 153.84 36.8574 153.867 36.7882 153.897C36.7266 153.928 36.6958 153.978 36.6958 154.048C36.6958 154.186 36.7805 154.305 36.9497 154.405C37.1267 154.505 37.2998 154.551 37.4691 154.544C37.7614 154.544 38.0499 154.232 38.3346 153.609ZM43.6345 146.512C43.9115 146.512 44.1731 146.777 44.4193 147.308C44.7809 146.931 45.2271 146.742 45.758 146.742C46.2965 146.742 46.7004 146.862 46.9697 147.1C47.239 147.331 47.3736 147.662 47.3736 148.093C47.3736 148.516 47.3159 148.947 47.2005 149.385C47.0928 149.824 47.012 150.139 46.9582 150.331C46.912 150.516 46.8889 150.67 46.8889 150.793C46.8889 150.916 46.9312 150.978 47.0159 150.978C47.1313 150.978 47.2736 150.905 47.4429 150.758C47.6121 150.612 47.7814 150.455 47.9507 150.285C48.1199 150.108 48.2738 149.947 48.4123 149.801C48.5585 149.654 48.6585 149.581 48.7123 149.581C48.82 149.581 48.8739 149.712 48.8739 149.974C48.8739 150.512 48.6085 151.032 48.0776 151.532C47.1851 152.055 46.6158 152.316 46.3696 152.316C46.3465 152.316 46.3311 152.313 46.3234 152.305C45.708 152.305 45.4002 151.812 45.4002 150.828C45.4002 150.405 45.4387 150.016 45.5156 149.662C45.6002 149.308 45.6618 149.05 45.7003 148.889C45.7387 148.727 45.758 148.562 45.758 148.393C45.758 148.116 45.5964 147.977 45.2733 147.977C44.9578 147.977 44.6539 148.216 44.3616 148.693C44.0769 149.162 43.8845 149.651 43.7845 150.158V150.239C43.7845 150.501 43.823 150.77 43.8999 151.047C43.9846 151.324 44.0269 151.516 44.0269 151.624C44.0269 151.886 43.6999 152.143 43.0459 152.397C42.9459 152.436 42.8574 152.455 42.7805 152.455C42.5882 152.455 42.4535 152.355 42.3766 152.155C42.3073 151.955 42.2727 151.643 42.2727 151.22C42.2727 150.128 42.315 149.339 42.3997 148.854C42.5151 148.131 42.7767 147.458 43.1844 146.835C43.3229 146.619 43.4729 146.512 43.6345 146.512Z" fill="black"/>
</svg>
