<svg width="38" height="38" viewBox="0 0 38 38" fill="none" xmlns="http://www.w3.org/2000/svg">
<rect x="8" y="8" width="23" height="22" fill="#487473"/>
<path d="M18.7088 0C8.37608 0 0 8.37608 0 18.7088C0 29.0415 8.37608 37.4176 18.7088 37.4176C29.0415 37.4176 37.4176 29.0415 37.4176 18.7088C37.4176 8.37608 29.0415 0 18.7088 0ZM14.129 26.4632H10.3405V14.2713H14.129V26.4632ZM12.2114 12.7746C11.0148 12.7746 10.2411 11.9268 10.2411 10.8784C10.2411 9.80847 11.0382 8.98606 12.2601 8.98606C13.482 8.98606 14.2304 9.80847 14.2537 10.8784C14.2537 11.9268 13.482 12.7746 12.2114 12.7746ZM27.9657 26.4632H24.1772V19.7066C24.1772 18.1339 23.6276 17.0659 22.2576 17.0659C21.2111 17.0659 20.5894 17.7889 20.3146 18.4847C20.2133 18.7322 20.1879 19.083 20.1879 19.4318V26.4612H16.3975V18.1592C16.3975 16.6372 16.3487 15.3646 16.2981 14.2693H19.5896L19.7631 15.9629H19.8391C20.338 15.1678 21.5599 13.9946 23.6042 13.9946C26.0968 13.9946 27.9657 15.6647 27.9657 19.2544V26.4632V26.4632Z" fill="white"/>
</svg>
